<svg width="674" height="376" viewBox="0 0 674 376" fill="none" xmlns="http://www.w3.org/2000/svg">
<path d="M59.0312 218.83C176.88 272.331 267.015 279.691 344.146 255.164C372.428 246.17 391.862 228.455 385.391 220.201C377.682 211.176 359.767 234.061 329.522 233.963C347.425 227.811 382.158 212.564 377.87 200.798C373.583 189.032 347.583 208.654 318.537 214.302C335.74 206.424 368.507 188.558 361.952 180.122C353.759 169.578 297.12 204.597 294.573 192.367C292.026 180.136 320.37 173.468 308.594 162.267C296.819 151.065 253.788 212.217 82.2814 131.936" stroke="black" stroke-linecap="round" stroke-linejoin="round"/>
<path d="M615.795 277.433C501.573 338.294 412.086 351.352 333.556 331.761C304.76 324.577 284.243 308.13 290.178 299.483C297.299 289.987 316.629 311.691 346.806 309.676C328.55 304.671 292.92 291.655 296.454 279.642C299.987 267.628 327.178 285.563 356.524 289.359C338.856 282.586 305.023 266.833 311.03 257.999C318.538 246.957 377.283 278.316 379.05 265.949C380.816 253.582 352.107 248.723 363.149 236.798C374.191 224.872 421.01 283.175 587.085 192.187" stroke="black" stroke-linecap="round" stroke-linejoin="round"/>
<path d="M412.204 68.758C415.278 106.872 360.895 144.822 351.898 159.217C341.499 132.425 276.906 110.896 300.586 62.41C311.072 40.938 342.32 53.823 350.117 68.518C354.979 41.817 409.559 35.96 412.204 68.758Z" fill="#FAB443"/>
<path d="M422.204 63.758C425.278 101.872 370.895 139.822 361.899 154.217C351.499 127.425 286.906 105.896 310.586 57.41C321.072 35.938 352.32 48.823 360.117 63.518C364.979 36.817 419.559 30.96 422.204 63.758Z" stroke="black" stroke-linecap="round" stroke-linejoin="round"/>
</svg>
