<svg width="109" height="40" viewBox="0 0 109 40" fill="none" xmlns="http://www.w3.org/2000/svg">
<path d="M13.0686 7.38581H35.8497C32.1549 2.88751 26.5102 0 20.1874 0C17.6782 0 15.288 0.452993 13.085 1.27547V7.38454H13.0686V7.38581Z" fill="#9CC653"/>
<path d="M33.2733 20.6631H0C0.118942 24.4224 1.30456 27.9135 3.23673 30.8693H33.272V20.6631H33.2733Z" fill="#E52A24"/>
<path d="M36.9172 8.82959H24.713V19.2193H40.3412C40.1881 15.3752 38.9518 11.8171 36.9172 8.82959Z" fill="#ED772B"/>
<path d="M34.7485 20.6631V32.3296H13.0859V38.7246C15.2889 39.5471 17.6956 40.0001 20.187 40.0001C31.1031 40.0001 40.0022 31.4059 40.3577 20.6808H34.7485V20.6644V20.6631Z" fill="#FEE819"/>
<path d="M11.6109 19.219V1.89648C4.9666 4.98519 0.305098 11.5485 0.0166016 19.219H11.6109Z" fill="#5EC2EF"/>
<path d="M57.5467 16.3787V8.13627L54.3062 14.2744H52.9788L49.7383 8.13627V16.3787H47.2949V3.92773H49.9154L53.6343 11.0124L57.3873 3.92773H59.9901V16.3787H57.5467Z" fill="white"/>
<path d="M62.3801 3.57715H64.7526V5.90918H62.3801V3.57715ZM62.3801 7.18971H64.7526V16.3786H62.3801V7.18971Z" fill="white"/>
<path d="M70.4029 16.5531C69.6234 16.5531 68.8617 16.4304 68.119 16.1849C67.3749 15.9394 66.7385 15.5889 66.207 15.1321L67.0928 13.6593C67.6596 14.0566 68.2113 14.3577 68.7478 14.5627C69.2843 14.7677 69.8196 14.8702 70.351 14.8702C70.823 14.8702 71.195 14.7829 71.467 14.607C71.7391 14.4311 71.8745 14.1806 71.8745 13.8529C71.8745 13.5251 71.715 13.286 71.3962 13.1341C71.0773 12.9823 70.5585 12.8064 69.8373 12.6078C69.235 12.4445 68.7213 12.2864 68.2974 12.1345C67.8722 11.9827 67.5293 11.8106 67.2699 11.617C67.0105 11.4247 66.8207 11.202 66.703 10.9502C66.5854 10.6984 66.5259 10.3972 66.5259 10.0467C66.5259 9.57979 66.617 9.15843 66.8005 8.78389C66.9839 8.40935 67.2395 8.09174 67.5711 7.82855C67.9013 7.56536 68.2885 7.36417 68.7314 7.22372C69.1742 7.08327 69.6551 7.01367 70.1751 7.01367C70.8711 7.01367 71.524 7.11363 72.1313 7.31229C72.7387 7.51095 73.2967 7.83235 73.8041 8.27648L72.8475 9.69746C72.3755 9.34696 71.9175 9.0901 71.4746 8.92561C71.0318 8.76238 70.5914 8.68013 70.1549 8.68013C69.7538 8.68013 69.4172 8.76238 69.1451 8.92561C68.8731 9.0901 68.7377 9.35203 68.7377 9.71518C68.7377 9.87968 68.7706 10.0138 68.8351 10.1188C68.8997 10.2238 69.0034 10.3175 69.1451 10.3997C69.2869 10.482 69.4729 10.5604 69.7032 10.6364C69.9334 10.7123 70.2194 10.792 70.5623 10.873C71.2 11.0375 71.7454 11.2007 72.2009 11.3639C72.6552 11.5272 73.0272 11.7144 73.317 11.9245C73.6055 12.1345 73.818 12.3775 73.9547 12.652C74.0901 12.9266 74.1584 13.2569 74.1584 13.6428C74.1584 14.5425 73.8218 15.2536 73.1487 15.7736C72.4755 16.2937 71.5607 16.5544 70.4042 16.5544" fill="white"/>
<path d="M79.2027 16.5531C78.4232 16.5531 77.6628 16.4304 76.9188 16.1849C76.1747 15.9394 75.537 15.5889 75.0068 15.1321L75.8926 13.6593C76.4594 14.0566 77.0111 14.3577 77.5476 14.5627C78.0841 14.7677 78.6194 14.8702 79.1508 14.8702C79.6228 14.8702 79.9948 14.7829 80.2668 14.607C80.5389 14.4311 80.6743 14.1806 80.6743 13.8529C80.6743 13.5251 80.5148 13.286 80.196 13.1341C79.8771 12.9823 79.3583 12.8064 78.6371 12.6078C78.0348 12.4445 77.5211 12.2864 77.0972 12.1345C76.672 11.9827 76.3291 11.8106 76.0697 11.617C75.8103 11.4247 75.6205 11.202 75.5028 10.9502C75.3852 10.6984 75.3257 10.3972 75.3257 10.0467C75.3257 9.57979 75.4168 9.15843 75.6003 8.78389C75.7838 8.40935 76.0394 8.09174 76.3709 7.82855C76.7011 7.56536 77.0883 7.36417 77.5312 7.22372C77.9741 7.08327 78.4549 7.01367 78.9749 7.01367C79.6709 7.01367 80.3238 7.11363 80.9311 7.31229C81.5385 7.51095 82.0965 7.83235 82.6039 8.27648L81.6473 9.69746C81.1754 9.34696 80.7173 9.0901 80.2744 8.92561C79.8316 8.76238 79.3925 8.68013 78.9547 8.68013C78.5536 8.68013 78.217 8.76238 77.945 8.92561C77.6729 9.0901 77.5375 9.35203 77.5375 9.71518C77.5375 9.87968 77.5704 10.0138 77.6349 10.1188C77.6995 10.2238 77.8032 10.3175 77.945 10.3997C78.0867 10.482 78.2727 10.5604 78.503 10.6364C78.7333 10.7123 79.0192 10.792 79.3621 10.873C79.9999 11.0375 80.5452 11.2007 80.9995 11.3639C81.4537 11.5272 81.8257 11.7144 82.1155 11.9245C82.404 12.1345 82.6166 12.3775 82.7532 12.652C82.8886 12.9266 82.9569 13.2569 82.9569 13.6428C82.9569 14.5425 82.6204 15.2536 81.9472 15.7736C81.274 16.2937 80.3592 16.5544 79.2027 16.5544" fill="white"/>
<path d="M84.4961 3.57715H86.8686V5.90918H84.4961V3.57715ZM84.4961 7.18971H86.8686V16.3786H84.4961V7.18971Z" fill="white"/>
<path d="M97.6353 16.3785H95.2628V11.2235C95.2628 10.4871 95.1324 9.94933 94.8731 9.61022C94.6137 9.27111 94.253 9.10155 93.7925 9.10155C93.5558 9.10155 93.3142 9.14837 93.0662 9.24201C92.8181 9.33564 92.5853 9.46724 92.3664 9.63679C92.1475 9.80635 91.9501 10.0075 91.773 10.2416C91.5958 10.4757 91.4655 10.7326 91.3832 11.0135V16.3798H89.0107V7.19088H91.153V8.8915C91.4946 8.30692 91.9906 7.85139 92.641 7.52367C93.2901 7.19721 94.0227 7.03271 94.8364 7.03271C95.4146 7.03271 95.8866 7.13774 96.2535 7.34779C96.6192 7.55783 96.9027 7.83241 97.1038 8.17152C97.305 8.51064 97.4429 8.89657 97.5201 9.32931C97.5961 9.76206 97.6353 10.1999 97.6353 10.644V16.3785Z" fill="white"/>
<path d="M103.337 16.4305C102.711 16.4305 102.145 16.3078 101.638 16.0623C101.13 15.8168 100.69 15.4802 100.318 15.0538C99.9458 14.6274 99.6598 14.1326 99.4586 13.5721C99.2574 13.0103 99.1574 12.4143 99.1574 11.7829C99.1574 11.1161 99.2637 10.4973 99.4763 9.92411C99.6889 9.35091 99.9837 8.84857 100.362 8.41582C100.74 7.98308 101.195 7.64396 101.726 7.39849C102.258 7.15301 102.842 7.03027 103.479 7.03027C104.199 7.03027 104.83 7.19097 105.373 7.51237C105.916 7.83377 106.365 8.26398 106.719 8.80175V7.18844H108.79V15.9383C108.79 16.6165 108.66 17.2239 108.401 17.7617C108.141 18.2994 107.783 18.7549 107.329 19.1295C106.875 19.504 106.331 19.79 105.699 19.9887C105.068 20.1873 104.379 20.2873 103.637 20.2873C102.622 20.2873 101.769 20.1203 101.078 19.7875C100.387 19.4547 99.7952 18.984 99.2992 18.3753L100.592 17.1302C100.947 17.563 101.392 17.9021 101.93 18.1476C102.466 18.3931 103.037 18.5158 103.638 18.5158C104.004 18.5158 104.355 18.4664 104.692 18.3665C105.029 18.2665 105.326 18.1122 105.587 17.9021C105.846 17.6921 106.05 17.4225 106.198 17.0961C106.345 16.7684 106.419 16.3824 106.419 15.9383V14.7805C106.112 15.3069 105.682 15.7131 105.126 15.999C104.571 16.285 103.975 16.428 103.338 16.428M104.135 14.5515C104.395 14.5515 104.643 14.511 104.879 14.4287C105.115 14.3465 105.334 14.2364 105.535 14.096C105.735 13.9555 105.912 13.7923 106.066 13.605C106.219 13.4177 106.337 13.2191 106.42 13.009V10.8174C106.208 10.2797 105.874 9.84693 105.42 9.52047C104.965 9.19274 104.49 9.02952 103.994 9.02952C103.628 9.02952 103.296 9.10797 103.002 9.26614C102.707 9.4243 102.452 9.63435 102.24 9.89754C102.027 10.1607 101.865 10.4619 101.753 10.801C101.64 11.1401 101.584 11.4906 101.584 11.8538C101.584 12.2169 101.649 12.5788 101.779 12.9065C101.91 13.2343 102.089 13.5202 102.32 13.7657C102.55 14.0112 102.818 14.2035 103.126 14.344C103.432 14.4844 103.768 14.554 104.135 14.554" fill="white"/>
<path d="M57.5467 32.6333V24.3921L54.3062 30.529H52.9788L49.7383 24.3921V32.6333H47.2949V20.1836H49.9154L53.6343 27.267L57.3873 20.1836H59.9901V32.6333H57.5467Z" fill="white"/>
<path d="M64.913 32.8092C64.4638 32.8092 64.045 32.7358 63.6553 32.5903C63.2655 32.4448 62.929 32.2398 62.6455 31.9766C62.3621 31.7134 62.1407 31.4072 61.9812 31.0567C61.8218 30.7062 61.7421 30.3203 61.7421 29.8989C61.7421 29.4776 61.8395 29.0663 62.0344 28.6981C62.2292 28.3299 62.5 28.0174 62.8493 27.7605C63.1972 27.5036 63.6135 27.3024 64.0981 27.1557C64.5815 27.0101 65.1129 26.9368 65.6925 26.9368C66.105 26.9368 66.5099 26.9722 66.9059 27.0418C67.3007 27.1114 67.6525 27.2113 67.9599 27.3404V26.814C67.9599 26.2067 67.7853 25.7385 67.4374 25.4108C67.0894 25.083 66.5719 24.9198 65.8886 24.9198C65.3926 24.9198 64.908 25.0071 64.436 25.183C63.964 25.3589 63.4794 25.6157 62.9846 25.9549L62.2583 24.4643C63.4503 23.681 64.7371 23.29 66.1189 23.29C67.5006 23.29 68.4889 23.614 69.2266 24.2631C69.9642 24.9122 70.3337 25.8498 70.3337 27.0772V29.9356C70.3337 30.1811 70.378 30.357 70.4666 30.462C70.5552 30.567 70.6994 30.6252 70.9006 30.6366V32.6359C70.4995 32.7181 70.1515 32.7586 69.8554 32.7586C69.4062 32.7586 69.0608 32.6586 68.8191 32.4612C68.5774 32.2626 68.4269 31.9994 68.3674 31.6717L68.3142 31.163C67.9005 31.7008 67.3994 32.1095 66.8085 32.3904C66.2176 32.6713 65.5862 32.8118 64.9143 32.8118M65.5874 31.0934C65.9886 31.0934 66.3694 31.0238 66.73 30.8834C67.0894 30.7429 67.3703 30.5556 67.5715 30.3216C67.8309 30.1229 67.9612 29.9002 67.9612 29.6547V28.6019C67.6778 28.4969 67.3703 28.4122 67.04 28.3476C66.7098 28.2831 66.3909 28.2515 66.0835 28.2515C65.4698 28.2515 64.9674 28.3894 64.5777 28.664C64.188 28.9385 63.9931 29.2865 63.9931 29.7079C63.9931 30.1052 64.1462 30.4354 64.4537 30.6986C64.7599 30.9618 65.1382 31.0934 65.5874 31.0934Z" fill="white"/>
<path d="M78.1048 32.8091C77.3734 32.8091 76.7357 32.6484 76.1929 32.327C75.6501 32.0056 75.2249 31.5703 74.9174 31.0199V36.3685H72.5449V23.4443H74.6163V25.0222C74.9592 24.4844 75.4008 24.0605 75.9449 23.7505C76.4877 23.4405 77.1141 23.2861 77.8214 23.2861C78.4465 23.2861 79.0247 23.4114 79.5562 23.6632C80.0876 23.915 80.5444 24.2541 80.929 24.6805C81.3124 25.107 81.6136 25.6106 81.8325 26.1888C82.0501 26.7671 82.1602 27.3783 82.1602 28.021C82.1602 28.6638 82.0603 29.313 81.8591 29.8976C81.6579 30.4821 81.3782 30.9908 81.0176 31.4236C80.657 31.8563 80.2293 32.1954 79.7333 32.4409C79.2373 32.6864 78.6945 32.8091 78.1036 32.8091M77.3064 30.8099C77.6607 30.8099 77.9884 30.7339 78.2896 30.5821C78.5907 30.4303 78.8476 30.2253 79.0601 29.9684C79.2727 29.7115 79.4372 29.4129 79.5562 29.0738C79.6738 28.7347 79.7333 28.3842 79.7333 28.0223C79.7333 27.6364 79.6688 27.277 79.5384 26.9442C79.4081 26.6115 79.2284 26.3217 78.9981 26.0762C78.7678 25.8307 78.4958 25.6384 78.1833 25.498C77.8707 25.3575 77.5304 25.2879 77.1647 25.2879C76.9407 25.2879 76.7104 25.3259 76.4738 25.4018C76.2372 25.4777 76.0195 25.5865 75.8184 25.7257C75.6172 25.8662 75.4375 26.0294 75.2781 26.2167C75.1186 26.4039 74.9971 26.6089 74.9149 26.8304V28.9878C75.1275 29.5142 75.4514 29.9494 75.8892 30.2936C76.3258 30.639 76.7977 30.8111 77.3064 30.8111" fill="white"/>
<path d="M87.2759 32.8092C86.4965 32.8092 85.736 32.6864 84.992 32.4409C84.248 32.1955 83.6103 31.845 83.0801 31.3882L83.9658 29.9153C84.5327 30.3126 85.0844 30.6138 85.6209 30.8188C86.1574 31.0238 86.6926 31.1262 87.2241 31.1262C87.696 31.1262 88.068 31.0389 88.3401 30.8631C88.6121 30.6872 88.7475 30.4366 88.7475 30.1089C88.7475 29.7812 88.5881 29.542 88.2692 29.3902C87.9504 29.2384 87.4316 29.0625 86.7103 28.8638C86.108 28.7006 85.5943 28.5424 85.1704 28.3906C84.7453 28.2387 84.4024 28.0666 84.143 27.8731C83.8836 27.6807 83.6938 27.458 83.5761 27.2075C83.4584 26.9557 83.3989 26.6545 83.3989 26.304C83.3989 25.8371 83.49 25.4158 83.6735 25.0412C83.857 24.6667 84.1126 24.3491 84.4441 24.0859C84.7744 23.8227 85.1616 23.6215 85.6044 23.481C86.0473 23.3406 86.5281 23.271 87.0482 23.271C87.7441 23.271 88.397 23.371 89.0044 23.5696C89.6117 23.7683 90.1698 24.0897 90.6772 24.5338L89.7206 25.9535C89.2486 25.603 88.7905 25.3462 88.3477 25.1817C87.9048 25.0184 87.4657 24.9362 87.0279 24.9362C86.6268 24.9362 86.2902 25.0184 86.0182 25.1817C85.7461 25.3449 85.6108 25.6081 85.6108 25.9712C85.6108 26.1345 85.6437 26.2699 85.7082 26.3749C85.7727 26.4799 85.8765 26.5735 86.0182 26.6558C86.1599 26.738 86.3459 26.8165 86.5762 26.8924C86.8065 26.9683 87.0925 27.048 87.4354 27.129C88.0731 27.2923 88.6185 27.4568 89.0727 27.62C89.527 27.7832 89.899 27.9705 90.1887 28.1805C90.4772 28.3906 90.6898 28.6335 90.8265 28.9081C90.9619 29.1827 91.0302 29.5129 91.0302 29.8989C91.0302 30.7998 90.6936 31.5096 90.0205 32.0297C89.3473 32.5498 88.4325 32.8104 87.2759 32.8104" fill="white"/>
</svg>
