<svg width="109" height="41" viewBox="0 0 109 41" fill="none" xmlns="http://www.w3.org/2000/svg">
<path d="M13.0684 7.79816H35.8495C32.1547 3.29987 26.51 0.412354 20.1871 0.412354C17.678 0.412354 15.2878 0.865347 13.0848 1.68782V7.7969H13.0684V7.79816Z" fill="#9CC653"/>
<path d="M33.2733 21.0754H0C0.118942 24.8348 1.30456 28.3259 3.23673 31.2817H33.272V21.0754H33.2733Z" fill="#E52A24"/>
<path d="M36.9171 9.24194H24.7129V19.6317H40.3411C40.188 15.7876 38.9517 12.2294 36.9171 9.24194Z" fill="#ED772B"/>
<path d="M34.7485 21.0754V32.7419H13.0859V39.137C15.2889 39.9594 17.6956 40.4124 20.187 40.4124C31.1031 40.4124 40.0022 31.8182 40.3577 21.0932H34.7485V21.0767V21.0754Z" fill="#FEE819"/>
<path d="M11.6109 19.6316V2.30908C4.9666 5.39779 0.305098 11.9611 0.0166016 19.6316H11.6109Z" fill="#5EC2EF"/>
<path d="M57.5467 16.7911V8.54862L54.3062 14.6868H52.9788L49.7383 8.54862V16.7911H47.2949V4.34009H49.9154L53.6343 11.4247L57.3873 4.34009H59.9901V16.7911H57.5467Z" fill="#1D1D1B"/>
<path d="M62.3799 3.9895H64.7524V6.32153H62.3799V3.9895ZM62.3799 7.60206H64.7524V16.791H62.3799V7.60206Z" fill="#1D1D1B"/>
<path d="M70.4029 16.9655C69.6234 16.9655 68.8617 16.8427 68.119 16.5972C67.3749 16.3518 66.7385 16.0013 66.207 15.5445L67.0928 14.0716C67.6596 14.4689 68.2113 14.7701 68.7478 14.9751C69.2843 15.1801 69.8196 15.2825 70.351 15.2825C70.823 15.2825 71.195 15.1952 71.467 15.0194C71.7391 14.8435 71.8745 14.5929 71.8745 14.2652C71.8745 13.9375 71.715 13.6983 71.3962 13.5465C71.0773 13.3947 70.5585 13.2188 69.8373 13.0201C69.235 12.8569 68.7213 12.6987 68.2974 12.5469C67.8722 12.395 67.5293 12.2229 67.2699 12.0293C67.0105 11.837 66.8207 11.6143 66.703 11.3625C66.5854 11.1107 66.5259 10.8096 66.5259 10.4591C66.5259 9.99214 66.617 9.57078 66.8005 9.19624C66.9839 8.8217 67.2395 8.5041 67.5711 8.24091C67.9013 7.97772 68.2885 7.77653 68.7314 7.63607C69.1742 7.49562 69.6551 7.42603 70.1751 7.42603C70.8711 7.42603 71.524 7.52599 72.1313 7.72465C72.7387 7.92331 73.2967 8.2447 73.8041 8.68884L72.8475 10.1098C72.3755 9.75932 71.9175 9.50245 71.4746 9.33796C71.0318 9.17473 70.5914 9.09248 70.1549 9.09248C69.7538 9.09248 69.4172 9.17473 69.1451 9.33796C68.8731 9.50245 68.7377 9.76438 68.7377 10.1275C68.7377 10.292 68.7706 10.4262 68.8351 10.5312C68.8997 10.6362 69.0034 10.7298 69.1451 10.8121C69.2869 10.8943 69.4729 10.9728 69.7032 11.0487C69.9334 11.1246 70.2194 11.2043 70.5623 11.2853C71.2 11.4498 71.7454 11.613 72.2009 11.7763C72.6552 11.9395 73.0272 12.1268 73.317 12.3368C73.6055 12.5469 73.818 12.7898 73.9547 13.0644C74.0901 13.339 74.1584 13.6692 74.1584 14.0552C74.1584 14.9548 73.8218 15.6659 73.1487 16.186C72.4755 16.7061 71.5607 16.9667 70.4042 16.9667" fill="#1D1D1B"/>
<path d="M79.2027 16.9655C78.4232 16.9655 77.6628 16.8427 76.9188 16.5972C76.1747 16.3518 75.537 16.0013 75.0068 15.5445L75.8926 14.0716C76.4594 14.4689 77.0111 14.7701 77.5476 14.9751C78.0841 15.1801 78.6194 15.2825 79.1508 15.2825C79.6228 15.2825 79.9948 15.1952 80.2668 15.0194C80.5389 14.8435 80.6743 14.5929 80.6743 14.2652C80.6743 13.9375 80.5148 13.6983 80.196 13.5465C79.8771 13.3947 79.3583 13.2188 78.6371 13.0201C78.0348 12.8569 77.5211 12.6987 77.0972 12.5469C76.672 12.395 76.3291 12.2229 76.0697 12.0293C75.8103 11.837 75.6205 11.6143 75.5028 11.3625C75.3852 11.1107 75.3257 10.8096 75.3257 10.4591C75.3257 9.99214 75.4168 9.57078 75.6003 9.19624C75.7838 8.8217 76.0394 8.5041 76.3709 8.24091C76.7011 7.97772 77.0883 7.77653 77.5312 7.63607C77.9741 7.49562 78.4549 7.42603 78.9749 7.42603C79.6709 7.42603 80.3238 7.52599 80.9311 7.72465C81.5385 7.92331 82.0965 8.2447 82.6039 8.68884L81.6473 10.1098C81.1754 9.75932 80.7173 9.50245 80.2744 9.33796C79.8316 9.17473 79.3925 9.09248 78.9547 9.09248C78.5536 9.09248 78.217 9.17473 77.945 9.33796C77.6729 9.50245 77.5375 9.76438 77.5375 10.1275C77.5375 10.292 77.5704 10.4262 77.6349 10.5312C77.6995 10.6362 77.8032 10.7298 77.945 10.8121C78.0867 10.8943 78.2727 10.9728 78.503 11.0487C78.7333 11.1246 79.0192 11.2043 79.3621 11.2853C79.9999 11.4498 80.5452 11.613 80.9995 11.7763C81.4537 11.9395 81.8257 12.1268 82.1155 12.3368C82.404 12.5469 82.6166 12.7898 82.7532 13.0644C82.8886 13.339 82.9569 13.6692 82.9569 14.0552C82.9569 14.9548 82.6204 15.6659 81.9472 16.186C81.274 16.7061 80.3592 16.9667 79.2027 16.9667" fill="#1D1D1B"/>
<path d="M84.4961 3.9895H86.8686V6.32153H84.4961V3.9895ZM84.4961 7.60206H86.8686V16.791H84.4961V7.60206Z" fill="#1D1D1B"/>
<path d="M97.6353 16.7909H95.2628V11.6359C95.2628 10.8995 95.1324 10.3617 94.8731 10.0226C94.6137 9.68346 94.253 9.51391 93.7925 9.51391C93.5558 9.51391 93.3142 9.56072 93.0662 9.65436C92.8181 9.74799 92.5853 9.87959 92.3664 10.0491C92.1475 10.2187 91.9501 10.4199 91.773 10.654C91.5958 10.8881 91.4655 11.1449 91.3832 11.4258V16.7922H89.0107V7.60324H91.153V9.30386C91.4946 8.71927 91.9906 8.26375 92.641 7.93602C93.2901 7.60956 94.0227 7.44507 94.8364 7.44507C95.4146 7.44507 95.8866 7.55009 96.2535 7.76014C96.6192 7.97019 96.9027 8.24477 97.1038 8.58388C97.305 8.92299 97.4429 9.30892 97.5201 9.74167C97.5961 10.1744 97.6353 10.6122 97.6353 11.0564V16.7909Z" fill="#1D1D1B"/>
<path d="M103.337 16.8429C102.71 16.8429 102.145 16.7201 101.637 16.4746C101.13 16.2292 100.69 15.8926 100.318 15.4662C99.9455 15.0397 99.6596 14.545 99.4584 13.9845C99.2572 13.4226 99.1572 12.8267 99.1572 12.1953C99.1572 11.5284 99.2635 10.9097 99.4761 10.3365C99.6887 9.76327 99.9835 9.26093 100.362 8.82818C100.74 8.39543 101.194 8.05632 101.726 7.81084C102.257 7.56536 102.842 7.44263 103.478 7.44263C104.198 7.44263 104.83 7.60333 105.373 7.92472C105.915 8.24612 106.365 8.67634 106.719 9.21411V7.60079H108.79V16.3506C108.79 17.0289 108.66 17.6362 108.401 18.174C108.141 18.7118 107.783 19.1673 107.329 19.5418C106.875 19.9164 106.33 20.2024 105.699 20.401C105.068 20.5997 104.379 20.6996 103.637 20.6996C102.622 20.6996 101.769 20.5326 101.078 20.1998C100.387 19.867 99.795 19.3963 99.2989 18.7877L100.592 17.5426C100.946 17.9753 101.392 18.3145 101.93 18.5599C102.466 18.8054 103.037 18.9282 103.638 18.9282C104.003 18.9282 104.355 18.8788 104.692 18.7788C105.028 18.6789 105.326 18.5245 105.586 18.3145C105.846 18.1044 106.05 17.8349 106.198 17.5084C106.344 17.1807 106.419 16.7948 106.419 16.3506V15.1929C106.112 15.7192 105.681 16.1254 105.126 16.4114C104.57 16.6973 103.974 16.8403 103.338 16.8403M104.135 14.9638C104.394 14.9638 104.642 14.9233 104.879 14.8411C105.114 14.7588 105.333 14.6488 105.535 14.5083C105.734 14.3679 105.912 14.2046 106.066 14.0174C106.219 13.8301 106.337 13.6314 106.42 13.4214V11.2298C106.208 10.692 105.874 10.2593 105.419 9.93282C104.965 9.6051 104.489 9.44187 103.993 9.44187C103.628 9.44187 103.296 9.52032 103.001 9.67849C102.706 9.83666 102.452 10.0467 102.24 10.3099C102.027 10.5731 101.865 10.8742 101.752 11.2133C101.64 11.5525 101.584 11.903 101.584 12.2661C101.584 12.6293 101.649 12.9912 101.779 13.3189C101.909 13.6466 102.089 13.9326 102.319 14.1781C102.55 14.4235 102.818 14.6159 103.125 14.7563C103.432 14.8968 103.768 14.9664 104.135 14.9664" fill="#1D1D1B"/>
<path d="M57.5467 33.0454V24.8042L54.3062 30.9412H52.9788L49.7383 24.8042V33.0454H47.2949V20.5957H49.9154L53.6343 27.6791L57.3873 20.5957H59.9901V33.0454H57.5467Z" fill="#1D1D1B"/>
<path d="M64.9131 33.2216C64.4639 33.2216 64.0451 33.1482 63.6554 33.0027C63.2657 32.8572 62.9291 32.6522 62.6456 32.389C62.3622 32.1258 62.1408 31.8196 61.9813 31.4691C61.8219 31.1186 61.7422 30.7326 61.7422 30.3113C61.7422 29.8899 61.8396 29.4787 62.0345 29.1105C62.2293 28.7423 62.5001 28.4297 62.8494 28.1729C63.1973 27.916 63.6136 27.7148 64.0982 27.568C64.5816 27.4225 65.113 27.3491 65.6926 27.3491C66.1051 27.3491 66.51 27.3845 66.906 27.4541C67.3008 27.5237 67.6526 27.6237 67.9601 27.7528V27.2264C67.9601 26.619 67.7854 26.1508 67.4375 25.8231C67.0895 25.4954 66.572 25.3322 65.8887 25.3322C65.3927 25.3322 64.9081 25.4195 64.4361 25.5953C63.9641 25.7712 63.4795 26.0281 62.9847 26.3672L62.2584 24.8766C63.4504 24.0934 64.7372 23.7024 66.119 23.7024C67.5007 23.7024 68.489 24.0263 69.2267 24.6754C69.9643 25.3246 70.3338 26.2622 70.3338 27.4896V30.348C70.3338 30.5935 70.3781 30.7693 70.4667 30.8744C70.5553 30.9794 70.6995 31.0376 70.9007 31.049V33.0482C70.4996 33.1305 70.1516 33.171 69.8555 33.171C69.4063 33.171 69.0609 33.071 68.8192 32.8736C68.5775 32.6749 68.427 32.4118 68.3675 32.084L68.3143 31.5754C67.9006 32.1131 67.3995 32.5218 66.8086 32.8027C66.2177 33.0836 65.5863 33.2241 64.9144 33.2241M65.5875 31.5058C65.9887 31.5058 66.3695 31.4362 66.7302 31.2957C67.0895 31.1553 67.3704 30.968 67.5716 30.7339C67.831 30.5352 67.9613 30.3125 67.9613 30.0671V29.0143C67.6779 28.9093 67.3704 28.8245 67.0402 28.76C66.7099 28.6954 66.391 28.6638 66.0836 28.6638C65.4699 28.6638 64.9675 28.8017 64.5778 29.0763C64.1881 29.3509 63.9932 29.6989 63.9932 30.1202C63.9932 30.5175 64.1463 30.8478 64.4538 31.111C64.76 31.3742 65.1384 31.5058 65.5875 31.5058Z" fill="#1D1D1B"/>
<path d="M78.1048 33.2212C77.3734 33.2212 76.7357 33.0605 76.1929 32.7391C75.6501 32.4177 75.2249 31.9824 74.9174 31.432V36.7806H72.5449V23.8564H74.6163V25.4343C74.9592 24.8965 75.4008 24.4726 75.9449 24.1626C76.4877 23.8526 77.1141 23.6982 77.8214 23.6982C78.4465 23.6982 79.0247 23.8235 79.5562 24.0753C80.0876 24.3271 80.5444 24.6662 80.929 25.0926C81.3124 25.5191 81.6136 26.0227 81.8325 26.6009C82.0501 27.1792 82.1602 27.7904 82.1602 28.4332C82.1602 29.076 82.0603 29.7251 81.8591 30.3097C81.6579 30.8943 81.3782 31.4029 81.0176 31.8357C80.657 32.2684 80.2293 32.6075 79.7333 32.853C79.2373 33.0985 78.6945 33.2212 78.1036 33.2212M77.3064 31.222C77.6607 31.222 77.9884 31.1461 78.2896 30.9942C78.5907 30.8424 78.8476 30.6374 79.0601 30.3805C79.2727 30.1237 79.4372 29.825 79.5562 29.4859C79.6738 29.1468 79.7333 28.7963 79.7333 28.4344C79.7333 28.0485 79.6688 27.6891 79.5384 27.3564C79.4081 27.0236 79.2284 26.7338 78.9981 26.4883C78.7678 26.2428 78.4958 26.0505 78.1833 25.9101C77.8707 25.7696 77.5304 25.7 77.1647 25.7C76.9407 25.7 76.7104 25.738 76.4738 25.8139C76.2372 25.8898 76.0195 25.9986 75.8184 26.1378C75.6172 26.2783 75.4375 26.4415 75.2781 26.6288C75.1186 26.816 74.9971 27.021 74.9149 27.2425V29.3999C75.1275 29.9263 75.4514 30.3615 75.8892 30.7057C76.3258 31.0512 76.7977 31.2232 77.3064 31.2232" fill="#1D1D1B"/>
<path d="M87.2759 33.2215C86.4965 33.2215 85.736 33.0988 84.992 32.8533C84.248 32.6078 83.6103 32.2573 83.0801 31.8005L83.9658 30.3277C84.5327 30.725 85.0844 31.0261 85.6209 31.2311C86.1574 31.4361 86.6926 31.5386 87.2241 31.5386C87.696 31.5386 88.068 31.4513 88.3401 31.2754C88.6121 31.0995 88.7475 30.849 88.7475 30.5213C88.7475 30.1935 88.5881 29.9544 88.2692 29.8026C87.9504 29.6507 87.4316 29.4748 86.7103 29.2762C86.108 29.1129 85.5943 28.9548 85.1704 28.8029C84.7453 28.6511 84.4024 28.479 84.143 28.2854C83.8836 28.0931 83.6938 27.8704 83.5761 27.6198C83.4584 27.368 83.3989 27.0669 83.3989 26.7164C83.3989 26.2495 83.49 25.8281 83.6735 25.4536C83.857 25.079 84.1126 24.7614 84.4441 24.4982C84.7744 24.235 85.1616 24.0338 85.6044 23.8934C86.0473 23.7529 86.5281 23.6833 87.0482 23.6833C87.7441 23.6833 88.397 23.7833 89.0044 23.982C89.6117 24.1806 90.1698 24.502 90.6772 24.9462L89.7206 26.3659C89.2486 26.0154 88.7905 25.7585 88.3477 25.594C87.9048 25.4308 87.4657 25.3485 87.0279 25.3485C86.6268 25.3485 86.2902 25.4308 86.0182 25.594C85.7461 25.7572 85.6108 26.0204 85.6108 26.3836C85.6108 26.5468 85.6437 26.6822 85.7082 26.7872C85.7727 26.8923 85.8765 26.9859 86.0182 27.0681C86.1599 27.1504 86.3459 27.2288 86.5762 27.3048C86.8065 27.3807 87.0925 27.4604 87.4354 27.5414C88.0731 27.7046 88.6185 27.8691 89.0727 28.0323C89.527 28.1956 89.899 28.3828 90.1887 28.5929C90.4772 28.8029 90.6898 29.0459 90.8265 29.3205C90.9619 29.595 91.0302 29.9253 91.0302 30.3112C91.0302 31.2121 90.6936 31.922 90.0205 32.4421C89.3473 32.9621 88.4325 33.2228 87.2759 33.2228" fill="#1D1D1B"/>
</svg>
