<svg width="32" height="32" viewBox="0 0 32 32" fill="none" xmlns="http://www.w3.org/2000/svg">
<path d="M18.808 7.40272C19.1781 7.58768 19.5862 7.68396 20 7.68396C20.4138 7.68396 20.8219 7.58768 21.192 7.40272L26.0707 4.96272C26.2741 4.86106 26.5002 4.81313 26.7273 4.82348C26.9545 4.83382 27.1753 4.9021 27.3686 5.02183C27.562 5.14155 27.7215 5.30874 27.832 5.50749C27.9425 5.70625 28.0003 5.92997 28 6.15739V23.1761C27.9999 23.4236 27.9308 23.6662 27.8006 23.8768C27.6704 24.0873 27.4841 24.2574 27.2627 24.3681L21.192 27.4041C20.8219 27.589 20.4138 27.6853 20 27.6853C19.5862 27.6853 19.1781 27.589 18.808 27.4041L13.192 24.5961C12.8219 24.4111 12.4138 24.3148 12 24.3148C11.5862 24.3148 11.1781 24.4111 10.808 24.5961L5.92934 27.0361C5.72581 27.1378 5.49963 27.1857 5.27235 27.1753C5.04506 27.1649 4.82421 27.0965 4.63083 26.9766C4.43744 26.8567 4.27795 26.6893 4.16753 26.4904C4.05711 26.2915 3.99944 26.0676 4 25.8401V8.82272C4.00014 8.57517 4.06918 8.33255 4.19941 8.12202C4.32963 7.91149 4.5159 7.74137 4.73734 7.63072L10.808 4.59472C11.1781 4.40976 11.5862 4.31348 12 4.31348C12.4138 4.31348 12.8219 4.40976 13.192 4.59472L18.808 7.40272Z" stroke="white" stroke-width="2" stroke-linecap="round" stroke-linejoin="round"/>
<path d="M20 7.68408V27.6841" stroke="white" stroke-width="2" stroke-linecap="round" stroke-linejoin="round"/>
<path d="M12 4.31299V24.313" stroke="white" stroke-width="2" stroke-linecap="round" stroke-linejoin="round"/>
</svg>
