<svg width="1440" height="240" viewBox="0 0 1440 240" fill="none" xmlns="http://www.w3.org/2000/svg">
<rect width="1440" height="239.958" fill="white"/>
<rect width="240" height="239" transform="translate(0 0.479187)" fill="#F1F9FE"/>
<g filter="url(#filter0_n_494_973)">
<rect x="188.248" y="58.9849" width="180.494" height="137.495" transform="rotate(90 188.248 58.9849)" fill="#FFCBC9"/>
</g>
<g filter="url(#filter1_n_494_973)">
<path d="M119.499 62.3937L139.02 46.2606C150.972 36.3827 168.475 37.2123 179.439 48.1765C191.183 59.9197 191.183 78.9593 179.439 90.7025L119.499 150.643L59.5593 90.7025C47.8161 78.9593 47.8161 59.9197 59.5593 48.1765C70.5235 37.2123 88.0268 36.3827 99.9789 46.2606L119.499 62.3937Z" fill="#E12A23"/>
</g>
<g clip-path="url(#clip0_494_973)">
<g filter="url(#filter2_n_494_973)">
<rect x="240" width="240" height="240" fill="#5BC1EE"/>
</g>
<circle cx="38.6659" cy="38.6659" r="38.6659" transform="matrix(-1 0 0 1 416.492 55.7895)" fill="#0C2E45"/>
<circle cx="56.2402" cy="56.2402" r="56.2402" transform="matrix(-1 0 0 1 451.64 104.013)" fill="#0C2E45"/>
<circle cx="56.2402" cy="56.2402" r="56.2402" transform="matrix(-1 0 0 1 367.963 104.013)" fill="#0C2E45"/>
<circle cx="29.9137" cy="29.9137" r="29.9137" transform="matrix(-1 0 0 1 345.781 68.4778)" fill="#0C2E45"/>
<rect width="46.7422" height="61.9619" transform="matrix(-1 0 0 1 373.075 93.2096)" fill="#FAD9AE"/>
<path d="M360.496 25.1208C342.487 25.1208 327.736 39.0609 326.44 56.739L325.815 56.5807C318.439 54.7108 310.778 59.1304 308.704 66.4518C306.631 73.7732 310.93 81.2245 318.306 83.0944L326.447 85.1569C327.794 102.785 342.523 116.669 360.496 116.669C379.357 116.669 394.647 101.379 394.647 82.5182V59.2712C394.647 40.4106 379.357 25.1208 360.496 25.1208Z" fill="#FAD9AE"/>
<g filter="url(#filter3_n_494_973)">
<path d="M326.599 70.2059L318.609 68.065" stroke="#0C2E45" stroke-width="1.25" stroke-linecap="round"/>
</g>
<mask id="mask0_494_973" style="mask-type:alpha" maskUnits="userSpaceOnUse" x="326" y="25" width="69" height="92">
<rect width="68.3007" height="91.5479" rx="34.1503" transform="matrix(-1 0 0 1 394.647 25.1208)" fill="#D9D9D9"/>
</mask>
<g mask="url(#mask0_494_973)">
<ellipse cx="40.7132" cy="42.0775" rx="40.7132" ry="42.0775" transform="matrix(-1 0 0 1 451.306 -21.0548)" fill="#0C2E45"/>
<ellipse cx="53.5757" cy="55.3709" rx="53.5757" ry="55.3709" transform="matrix(-1 0 0 1 389.723 -53.2081)" fill="#0C2E45"/>
</g>
<g filter="url(#filter4_n_494_973)">
<path d="M370.094 72.2924L370.094 78.2666" stroke="#0C2E45" stroke-width="1.5" stroke-linecap="round"/>
</g>
<g filter="url(#filter5_n_494_973)">
<path d="M371.163 87.0807C367.827 88.4367 364.022 86.8308 362.667 83.494" stroke="#0C2E45" stroke-width="1.5" stroke-linecap="round"/>
</g>
<path d="M378.488 71.6768C381.262 68.3677 385.759 68.3677 388.533 71.6768" stroke="#0C2E45" stroke-width="1.5" stroke-linecap="round"/>
<g filter="url(#filter6_n_494_973)">
<path d="M351.111 70.6103C353.885 67.3012 358.382 67.3012 361.156 70.6103" stroke="#0C2E45" stroke-width="1.5" stroke-linecap="round"/>
</g>
<g filter="url(#filter7_n_494_973)">
<path d="M240.25 239.958H480.21V200.355C480.21 172.741 457.824 150.355 430.21 150.355H290.25C262.635 150.355 240.25 172.741 240.25 200.355V239.958Z" fill="#EF7B22"/>
<rect width="46.7422" height="44.1005" transform="matrix(-1 0 0 1 373.091 128.391)" fill="#EF7B22"/>
</g>
<path d="M321.587 150.442C303.428 150.442 288.706 135.72 288.706 117.561C288.706 99.4012 303.428 84.6799 321.587 84.6799L323.253 84.6799C341.413 84.6799 356.134 99.4012 356.134 117.561C356.134 135.72 341.413 150.442 323.253 150.442L321.587 150.442Z" fill="#0C2E45"/>
</g>
<g clip-path="url(#clip1_494_973)">
<rect width="240" height="239" transform="translate(480.209 0.479187)" fill="#EAF3D4"/>
<g filter="url(#filter8_n_494_973)">
<path d="M518.251 146.626C521.698 140.02 528.531 135.878 535.982 135.878H663.434C670.885 135.878 677.719 140.02 681.166 146.626L724.64 229.941C731.588 243.256 721.928 259.193 706.909 259.193H492.507C477.488 259.193 467.828 243.256 474.776 229.941L518.251 146.626Z" fill="#9CC652"/>
</g>
<g filter="url(#filter9_n_494_973)">
<ellipse cx="599.707" cy="173.146" rx="41.4508" ry="16.5978" fill="#628927"/>
</g>
<g filter="url(#filter10_n_494_973)">
<path d="M600.21 18.4778C616.323 18.4779 631.775 24.8525 643.169 36.1985C654.562 47.5447 660.964 62.933 660.964 78.9788C660.964 116.739 618.899 156.065 604.773 168.21C603.457 169.196 601.856 169.729 600.21 169.729C598.563 169.729 596.961 169.196 595.645 168.21C581.52 156.065 539.455 116.739 539.455 78.9788C539.455 62.933 545.856 47.5447 557.25 36.1985C568.643 24.8524 584.097 18.4778 600.21 18.4778ZM600.206 56.2913C587.623 56.2914 577.423 66.4487 577.423 78.9788C577.423 91.509 587.623 101.667 600.206 101.667C612.788 101.667 622.989 91.509 622.989 78.9788C622.989 66.4487 612.788 56.2913 600.206 56.2913Z" fill="#E12A23"/>
</g>
</g>
<g clip-path="url(#clip2_494_973)">
<g filter="url(#filter11_n_494_973)">
<rect x="720.209" y="-0.020813" width="240" height="240" fill="#9CC652"/>
</g>
<g filter="url(#filter12_n_494_973)">
<path d="M884.452 207.141L898.807 211.492L884.452 207.141ZM814.638 -31.6064L802.888 -40.9314L784.238 -17.4329L795.988 -8.10793L805.313 -19.8572L814.638 -31.6064ZM872.379 33.3714L863.054 45.1207L872.379 33.3714ZM831.718 101.452L837.641 87.6712L831.718 101.452ZM804.866 89.9117L810.789 76.1306H810.789L804.866 89.9117ZM791.361 155.539V170.539H846.172V155.539V140.539H791.361V155.539ZM884.452 207.141L870.097 202.79L851.918 262.77L866.273 267.121L880.628 271.472L898.807 211.492L884.452 207.141ZM805.313 -19.8572L795.988 -8.10793L863.054 45.1207L872.379 33.3714L881.704 21.6222L814.638 -31.6064L805.313 -19.8572ZM831.718 101.452L837.641 87.6712L810.789 76.1306L804.866 89.9117L798.944 103.693L825.795 115.233L831.718 101.452ZM872.379 33.3714L863.054 45.1207C885.915 63.2645 864.456 99.1958 837.641 87.6712L831.718 101.452L825.795 115.233C884.787 140.587 931.999 61.5391 881.704 21.6222L872.379 33.3714ZM846.172 155.539V170.539C862.948 170.539 874.963 186.735 870.097 202.79L884.452 207.141L898.807 211.492C909.513 176.171 883.08 140.539 846.172 140.539V155.539ZM757.158 121.336H742.158C742.158 148.51 764.187 170.539 791.361 170.539V155.539V140.539C780.755 140.539 772.158 131.941 772.158 121.336H757.158ZM757.158 121.336H772.158C772.158 107.541 786.27 98.2458 798.944 103.693L804.866 89.9117L810.789 76.1306C778.316 62.174 742.158 85.9901 742.158 121.336H757.158Z" fill="#3E5420"/>
</g>
<path d="M866.274 267.121L884.453 207.141C892.239 181.453 873.014 155.539 846.173 155.539H791.361C772.472 155.539 757.158 140.226 757.158 121.336C757.158 96.7655 782.293 80.21 804.867 89.9118L831.719 101.452C874.622 119.892 908.958 62.4019 872.38 33.3715L805.313 -19.8571" stroke="#F5FAEB" stroke-width="5" stroke-linecap="round" stroke-dasharray="5 20"/>
<circle cx="706.209" cy="0.479187" r="69" stroke="#BEE5F9" stroke-width="10" stroke-linecap="round"/>
<path d="M976.205 123.479L965.595 123.562C943.504 123.733 925.735 141.781 925.907 163.872L927.739 399.432C927.91 421.522 910.142 439.57 888.051 439.741L831.663 440.18" stroke="#BEE5F9" stroke-width="10" stroke-linecap="round"/>
</g>
<g clip-path="url(#clip3_494_973)">
<g filter="url(#filter13_n_494_973)">
<rect x="960.189" y="-0.020813" width="240" height="240" fill="#F5EB01"/>
</g>
<g filter="url(#filter14_n_494_973)">
<path d="M940.53 194.712C940.483 167.098 962.831 144.712 990.445 144.712H1170.72C1198.34 144.712 1220.76 167.098 1220.81 194.712L1221 307.509H940.721L940.53 194.712Z" fill="#E12A23"/>
</g>
<path d="M1080.04 15.2993C1085.78 15.2993 1091.04 17.3268 1095.15 20.7032C1096.36 21.6908 1097.97 22.0563 1099.49 21.718C1100.95 21.3916 1102.48 21.2192 1104.04 21.2192C1114.04 21.2194 1122.39 28.2418 1124.44 37.6216C1124.89 39.7101 1126.63 41.3699 1128.67 41.9933C1134.21 43.6833 1138.25 48.8376 1138.25 54.9341C1138.25 57.7661 1137.38 60.394 1135.89 62.5662C1135.17 63.6075 1134.79 64.8607 1134.92 66.1167C1134.99 66.8881 1135.03 67.6703 1135.03 68.4614C1135.03 81.6268 1124.36 92.2993 1111.19 92.2993C1098.03 92.2993 1087.35 81.6268 1087.35 68.4614C1087.35 65.5618 1084.37 62.7603 1081.48 62.9332C1081 62.9616 1080.52 62.9761 1080.04 62.9761C1079.64 62.9761 1079.26 63.1754 1079.03 63.5094C1074.74 69.7995 1067.51 73.9291 1059.32 73.9292C1046.16 73.9292 1035.49 63.2567 1035.49 50.0913C1035.49 41.5549 1039.97 34.0665 1046.72 29.8558C1047.62 29.2933 1048.3 28.4438 1048.73 27.4739C1050.84 22.7468 1055.58 19.4517 1061.09 19.4517C1061.9 19.4517 1062.7 19.5232 1063.47 19.66C1064.79 19.8954 1066.19 19.6913 1067.32 18.9715C1071 16.6458 1075.37 15.2993 1080.04 15.2993Z" fill="#40170A"/>
<path d="M1059.16 99.9191H1104.47V146.943C1104.47 159.454 1094.33 169.596 1081.82 169.596C1069.31 169.596 1059.16 159.454 1059.16 146.943V99.9191Z" fill="#C99C71"/>
<mask id="mask1_494_973" style="mask-type:alpha" maskUnits="userSpaceOnUse" x="1059" y="99" width="46" height="61">
<path d="M1059.16 99.919H1104.47V137.325C1104.47 149.836 1094.33 159.978 1081.82 159.978C1069.31 159.978 1059.16 149.836 1059.16 137.325V99.919Z" fill="#FAD9AE"/>
</mask>
<g mask="url(#mask1_494_973)">
<path d="M1074.7 125.138H1059.16V140.671L1074.7 125.138Z" fill="#0C2E45"/>
</g>
<path d="M1086.19 36.0932C1103.85 40.8248 1114.33 58.9759 1109.6 76.6344L1102.46 103.279C1097.73 120.938 1079.58 131.417 1061.92 126.686C1044.26 121.954 1033.78 103.803 1038.51 86.1446L1045.65 59.4995C1050.38 41.8412 1068.53 31.3619 1086.19 36.0932Z" fill="#C99C71"/>
<mask id="mask2_494_973" style="mask-type:alpha" maskUnits="userSpaceOnUse" x="1037" y="34" width="74" height="94">
<rect x="1054.22" y="27.5254" width="66.2034" height="93.7881" rx="33.1017" transform="rotate(15 1054.22 27.5254)" fill="#D9D9D9"/>
</mask>
<g mask="url(#mask2_494_973)">
<ellipse cx="1061.58" cy="34.2098" rx="16.8999" ry="17.4662" transform="rotate(15 1061.58 34.2098)" fill="#40170A"/>
<ellipse cx="1077.79" cy="43.8255" rx="8.15908" ry="8.43249" transform="rotate(15 1077.79 43.8255)" fill="#40170A"/>
<ellipse cx="1091.42" cy="40.5842" rx="16.8999" ry="17.4662" transform="rotate(15 1091.42 40.5842)" fill="#40170A"/>
<ellipse cx="1098.06" cy="54.1115" rx="11.5069" ry="11.8925" transform="rotate(15 1098.06 54.1115)" fill="#40170A"/>
<ellipse cx="1110.5" cy="62.4322" rx="13.0149" ry="13.451" transform="rotate(15 1110.5 62.4322)" fill="#40170A"/>
<ellipse cx="1040.3" cy="43.472" rx="16.8999" ry="17.4662" transform="rotate(15 1040.3 43.472)" fill="#40170A"/>
</g>
<g filter="url(#filter15_n_494_973)">
<path d="M1068.85 72.8043L1064.14 82.9397" stroke="#0C2E45" stroke-width="1.5" stroke-linecap="round"/>
</g>
<g filter="url(#filter16_n_494_973)">
<path d="M1057.9 89.196C1059.85 92.579 1064.18 93.7381 1067.56 91.7849" stroke="#0C2E45" stroke-width="1.5" stroke-linecap="round"/>
</g>
<g filter="url(#filter17_n_494_973)">
<rect x="1081.79" y="75.5897" width="2.58433" height="2.58433" rx="1.29217" transform="rotate(15 1081.79 75.5897)" fill="#0C2E45"/>
<rect x="1082.15" y="76.2021" width="1.58433" height="1.58433" rx="0.792166" transform="rotate(15 1082.15 76.2021)" stroke="#0C2E45"/>
</g>
<g filter="url(#filter18_n_494_973)">
<rect x="1054.76" y="68.3471" width="2.58433" height="2.58433" rx="1.29217" transform="rotate(15 1054.76 68.3471)" fill="#0C2E45"/>
<rect x="1055.12" y="68.9595" width="1.58433" height="1.58433" rx="0.792166" transform="rotate(15 1055.12 68.9595)" stroke="#0C2E45"/>
</g>
<rect x="1096.28" y="75.8181" width="33.1745" height="24.3004" rx="12.1502" transform="rotate(15 1096.28 75.8181)" fill="#C99C71"/>
<g filter="url(#filter19_n_494_973)">
<path d="M1118.17 93.0893L1110.64 91.0899" stroke="#0C2E45" stroke-width="1.5" stroke-linecap="round"/>
</g>
</g>
<g filter="url(#filter20_n_494_973)">
<rect width="240" height="239" transform="translate(1200.17 0.479187)" fill="#F1F9FE"/>
<path d="M1339.67 59.9792C1342.43 59.9792 1344.67 62.2178 1344.67 64.9792V90.9792C1344.67 93.1883 1346.46 94.9792 1348.67 94.9792H1374.67C1377.43 94.9792 1379.67 97.2178 1379.67 99.9792V139.979C1379.67 142.741 1377.43 144.979 1374.67 144.979H1348.67C1346.46 144.979 1344.67 146.77 1344.67 148.979V174.979C1344.67 177.741 1342.43 179.979 1339.67 179.979H1299.67C1296.91 179.979 1294.67 177.741 1294.67 174.979V148.979C1294.67 146.77 1292.88 144.979 1290.67 144.979H1264.67C1261.91 144.979 1259.67 142.741 1259.67 139.979V99.9792C1259.67 97.2178 1261.91 94.9792 1264.67 94.9792H1290.67C1292.88 94.9792 1294.67 93.1883 1294.67 90.9792V64.9792C1294.67 62.2178 1296.91 59.9792 1299.67 59.9792H1339.67Z" fill="#E42B27"/>
</g>
<defs>
<filter id="filter0_n_494_973" x="50.7529" y="58.9849" width="137.495" height="180.494" filterUnits="userSpaceOnUse" color-interpolation-filters="sRGB">
<feFlood flood-opacity="0" result="BackgroundImageFix"/>
<feBlend mode="normal" in="SourceGraphic" in2="BackgroundImageFix" result="shape"/>
<feTurbulence type="fractalNoise" baseFrequency="2 2" stitchTiles="stitch" numOctaves="3" result="noise" seed="9343" />
<feColorMatrix in="noise" type="luminanceToAlpha" result="alphaNoise" />
<feComponentTransfer in="alphaNoise" result="coloredNoise1">
<feFuncA type="discrete" tableValues="0 0 0 0 0 0 0 0 0 0 0 0 1 1 1 1 1 1 1 1 1 1 1 1 1 1 1 1 1 1 1 1 1 1 1 1 1 1 0 0 0 0 0 0 0 0 0 0 0 0 0 0 0 0 0 0 0 0 0 0 0 0 0 0 0 0 0 0 0 0 0 0 0 0 0 0 0 0 0 0 0 0 0 0 0 0 0 0 0 0 0 0 0 0 0 0 0 0 0 0 "/>
</feComponentTransfer>
<feComposite operator="in" in2="shape" in="coloredNoise1" result="noise1Clipped" />
<feFlood flood-color="rgba(255, 255, 255, 0.5)" result="color1Flood" />
<feComposite operator="in" in2="noise1Clipped" in="color1Flood" result="color1" />
<feMerge result="effect1_noise_494_973">
<feMergeNode in="shape" />
<feMergeNode in="color1" />
</feMerge>
</filter>
<filter id="filter1_n_494_973" x="50.7519" y="39.3689" width="137.495" height="111.274" filterUnits="userSpaceOnUse" color-interpolation-filters="sRGB">
<feFlood flood-opacity="0" result="BackgroundImageFix"/>
<feBlend mode="normal" in="SourceGraphic" in2="BackgroundImageFix" result="shape"/>
<feTurbulence type="fractalNoise" baseFrequency="2 2" stitchTiles="stitch" numOctaves="3" result="noise" seed="9343" />
<feColorMatrix in="noise" type="luminanceToAlpha" result="alphaNoise" />
<feComponentTransfer in="alphaNoise" result="coloredNoise1">
<feFuncA type="discrete" tableValues="0 0 0 0 0 0 0 0 0 0 0 0 1 1 1 1 1 1 1 1 1 1 1 1 1 1 1 1 1 1 1 1 1 1 1 1 1 1 0 0 0 0 0 0 0 0 0 0 0 0 0 0 0 0 0 0 0 0 0 0 0 0 0 0 0 0 0 0 0 0 0 0 0 0 0 0 0 0 0 0 0 0 0 0 0 0 0 0 0 0 0 0 0 0 0 0 0 0 0 0 "/>
</feComponentTransfer>
<feComposite operator="in" in2="shape" in="coloredNoise1" result="noise1Clipped" />
<feFlood flood-color="rgba(255, 255, 255, 0.5)" result="color1Flood" />
<feComposite operator="in" in2="noise1Clipped" in="color1Flood" result="color1" />
<feMerge result="effect1_noise_494_973">
<feMergeNode in="shape" />
<feMergeNode in="color1" />
</feMerge>
</filter>
<filter id="filter2_n_494_973" x="240" y="0" width="240" height="240" filterUnits="userSpaceOnUse" color-interpolation-filters="sRGB">
<feFlood flood-opacity="0" result="BackgroundImageFix"/>
<feBlend mode="normal" in="SourceGraphic" in2="BackgroundImageFix" result="shape"/>
<feTurbulence type="fractalNoise" baseFrequency="2 2" stitchTiles="stitch" numOctaves="3" result="noise" seed="9343" />
<feColorMatrix in="noise" type="luminanceToAlpha" result="alphaNoise" />
<feComponentTransfer in="alphaNoise" result="coloredNoise1">
<feFuncA type="discrete" tableValues="0 0 0 0 0 0 0 0 0 0 0 0 1 1 1 1 1 1 1 1 1 1 1 1 1 1 1 1 1 1 1 1 1 1 1 1 1 1 0 0 0 0 0 0 0 0 0 0 0 0 0 0 0 0 0 0 0 0 0 0 0 0 0 0 0 0 0 0 0 0 0 0 0 0 0 0 0 0 0 0 0 0 0 0 0 0 0 0 0 0 0 0 0 0 0 0 0 0 0 0 "/>
</feComponentTransfer>
<feComposite operator="in" in2="shape" in="coloredNoise1" result="noise1Clipped" />
<feFlood flood-color="rgba(255, 255, 255, 0.5)" result="color1Flood" />
<feComposite operator="in" in2="noise1Clipped" in="color1Flood" result="color1" />
<feMerge result="effect1_noise_494_973">
<feMergeNode in="shape" />
<feMergeNode in="color1" />
</feMerge>
</filter>
<filter id="filter3_n_494_973" x="317.984" y="67.4398" width="9.24036" height="3.3913" filterUnits="userSpaceOnUse" color-interpolation-filters="sRGB">
<feFlood flood-opacity="0" result="BackgroundImageFix"/>
<feBlend mode="normal" in="SourceGraphic" in2="BackgroundImageFix" result="shape"/>
<feTurbulence type="fractalNoise" baseFrequency="4.9049410820007324 4.9049410820007324" stitchTiles="stitch" numOctaves="3" result="noise" seed="9343" />
<feColorMatrix in="noise" type="luminanceToAlpha" result="alphaNoise" />
<feComponentTransfer in="alphaNoise" result="coloredNoise1">
<feFuncA type="discrete" tableValues="0 0 0 0 0 0 0 0 0 0 0 0 1 1 1 1 1 1 1 1 1 1 1 1 1 1 1 1 1 1 1 1 1 1 1 1 1 1 0 0 0 0 0 0 0 0 0 0 0 0 0 0 0 0 0 0 0 0 0 0 0 0 0 0 0 0 0 0 0 0 0 0 0 0 0 0 0 0 0 0 0 0 0 0 0 0 0 0 0 0 0 0 0 0 0 0 0 0 0 0 "/>
</feComponentTransfer>
<feComposite operator="in" in2="shape" in="coloredNoise1" result="noise1Clipped" />
<feFlood flood-color="rgba(0, 0, 0, 0.15)" result="color1Flood" />
<feComposite operator="in" in2="noise1Clipped" in="color1Flood" result="color1" />
<feMerge result="effect1_noise_494_973">
<feMergeNode in="shape" />
<feMergeNode in="color1" />
</feMerge>
</filter>
<filter id="filter4_n_494_973" x="369.344" y="71.5424" width="1.5" height="7.47424" filterUnits="userSpaceOnUse" color-interpolation-filters="sRGB">
<feFlood flood-opacity="0" result="BackgroundImageFix"/>
<feBlend mode="normal" in="SourceGraphic" in2="BackgroundImageFix" result="shape"/>
<feTurbulence type="fractalNoise" baseFrequency="2.093630313873291 2.093630313873291" stitchTiles="stitch" numOctaves="3" result="noise" seed="9343" />
<feColorMatrix in="noise" type="luminanceToAlpha" result="alphaNoise" />
<feComponentTransfer in="alphaNoise" result="coloredNoise1">
<feFuncA type="discrete" tableValues="0 0 0 0 0 0 0 0 0 0 0 0 1 1 1 1 1 1 1 1 1 1 1 1 1 1 1 1 1 1 1 1 1 1 1 1 1 1 0 0 0 0 0 0 0 0 0 0 0 0 0 0 0 0 0 0 0 0 0 0 0 0 0 0 0 0 0 0 0 0 0 0 0 0 0 0 0 0 0 0 0 0 0 0 0 0 0 0 0 0 0 0 0 0 0 0 0 0 0 0 "/>
</feComponentTransfer>
<feComposite operator="in" in2="shape" in="coloredNoise1" result="noise1Clipped" />
<feFlood flood-color="rgba(0, 0, 0, 0.15)" result="color1Flood" />
<feComposite operator="in" in2="noise1Clipped" in="color1Flood" result="color1" />
<feMerge result="effect1_noise_494_973">
<feMergeNode in="shape" />
<feMergeNode in="color1" />
</feMerge>
</filter>
<filter id="filter5_n_494_973" x="361.916" y="82.7438" width="9.99734" height="5.5686" filterUnits="userSpaceOnUse" color-interpolation-filters="sRGB">
<feFlood flood-opacity="0" result="BackgroundImageFix"/>
<feBlend mode="normal" in="SourceGraphic" in2="BackgroundImageFix" result="shape"/>
<feTurbulence type="fractalNoise" baseFrequency="2.093630313873291 2.093630313873291" stitchTiles="stitch" numOctaves="3" result="noise" seed="9343" />
<feColorMatrix in="noise" type="luminanceToAlpha" result="alphaNoise" />
<feComponentTransfer in="alphaNoise" result="coloredNoise1">
<feFuncA type="discrete" tableValues="0 0 0 0 0 0 0 0 0 0 0 0 1 1 1 1 1 1 1 1 1 1 1 1 1 1 1 1 1 1 1 1 1 1 1 1 1 1 0 0 0 0 0 0 0 0 0 0 0 0 0 0 0 0 0 0 0 0 0 0 0 0 0 0 0 0 0 0 0 0 0 0 0 0 0 0 0 0 0 0 0 0 0 0 0 0 0 0 0 0 0 0 0 0 0 0 0 0 0 0 "/>
</feComponentTransfer>
<feComposite operator="in" in2="shape" in="coloredNoise1" result="noise1Clipped" />
<feFlood flood-color="rgba(0, 0, 0, 0.15)" result="color1Flood" />
<feComposite operator="in" in2="noise1Clipped" in="color1Flood" result="color1" />
<feMerge result="effect1_noise_494_973">
<feMergeNode in="shape" />
<feMergeNode in="color1" />
</feMerge>
</filter>
<filter id="filter6_n_494_973" x="350.43" y="67.3156" width="11.408" height="4.10754" filterUnits="userSpaceOnUse" color-interpolation-filters="sRGB">
<feFlood flood-opacity="0" result="BackgroundImageFix"/>
<feBlend mode="normal" in="SourceGraphic" in2="BackgroundImageFix" result="shape"/>
<feTurbulence type="fractalNoise" baseFrequency="2.093630313873291 2.093630313873291" stitchTiles="stitch" numOctaves="3" result="noise" seed="9343" />
<feColorMatrix in="noise" type="luminanceToAlpha" result="alphaNoise" />
<feComponentTransfer in="alphaNoise" result="coloredNoise1">
<feFuncA type="discrete" tableValues="0 0 0 0 0 0 0 0 0 0 0 0 1 1 1 1 1 1 1 1 1 1 1 1 1 1 1 1 1 1 1 1 1 1 1 1 1 1 0 0 0 0 0 0 0 0 0 0 0 0 0 0 0 0 0 0 0 0 0 0 0 0 0 0 0 0 0 0 0 0 0 0 0 0 0 0 0 0 0 0 0 0 0 0 0 0 0 0 0 0 0 0 0 0 0 0 0 0 0 0 "/>
</feComponentTransfer>
<feComposite operator="in" in2="shape" in="coloredNoise1" result="noise1Clipped" />
<feFlood flood-color="rgba(0, 0, 0, 0.15)" result="color1Flood" />
<feComposite operator="in" in2="noise1Clipped" in="color1Flood" result="color1" />
<feMerge result="effect1_noise_494_973">
<feMergeNode in="shape" />
<feMergeNode in="color1" />
</feMerge>
</filter>
<filter id="filter7_n_494_973" x="240.25" y="128.391" width="239.96" height="111.567" filterUnits="userSpaceOnUse" color-interpolation-filters="sRGB">
<feFlood flood-opacity="0" result="BackgroundImageFix"/>
<feBlend mode="normal" in="SourceGraphic" in2="BackgroundImageFix" result="shape"/>
<feTurbulence type="fractalNoise" baseFrequency="2.093630313873291 2.093630313873291" stitchTiles="stitch" numOctaves="3" result="noise" seed="9343" />
<feColorMatrix in="noise" type="luminanceToAlpha" result="alphaNoise" />
<feComponentTransfer in="alphaNoise" result="coloredNoise1">
<feFuncA type="discrete" tableValues="0 0 0 0 0 0 0 0 0 0 0 0 1 1 1 1 1 1 1 1 1 1 1 1 1 1 1 1 1 1 1 1 1 1 1 1 1 1 0 0 0 0 0 0 0 0 0 0 0 0 0 0 0 0 0 0 0 0 0 0 0 0 0 0 0 0 0 0 0 0 0 0 0 0 0 0 0 0 0 0 0 0 0 0 0 0 0 0 0 0 0 0 0 0 0 0 0 0 0 0 "/>
</feComponentTransfer>
<feComposite operator="in" in2="shape" in="coloredNoise1" result="noise1Clipped" />
<feFlood flood-color="rgba(0, 0, 0, 0.15)" result="color1Flood" />
<feComposite operator="in" in2="noise1Clipped" in="color1Flood" result="color1" />
<feMerge result="effect1_noise_494_973">
<feMergeNode in="shape" />
<feMergeNode in="color1" />
</feMerge>
</filter>
<filter id="filter8_n_494_973" x="472.48" y="135.878" width="254.456" height="123.315" filterUnits="userSpaceOnUse" color-interpolation-filters="sRGB">
<feFlood flood-opacity="0" result="BackgroundImageFix"/>
<feBlend mode="normal" in="SourceGraphic" in2="BackgroundImageFix" result="shape"/>
<feTurbulence type="fractalNoise" baseFrequency="2.093630313873291 2.093630313873291" stitchTiles="stitch" numOctaves="3" result="noise" seed="9343" />
<feColorMatrix in="noise" type="luminanceToAlpha" result="alphaNoise" />
<feComponentTransfer in="alphaNoise" result="coloredNoise1">
<feFuncA type="discrete" tableValues="0 0 0 0 0 0 0 0 0 0 0 0 1 1 1 1 1 1 1 1 1 1 1 1 1 1 1 1 1 1 1 1 1 1 1 1 1 1 0 0 0 0 0 0 0 0 0 0 0 0 0 0 0 0 0 0 0 0 0 0 0 0 0 0 0 0 0 0 0 0 0 0 0 0 0 0 0 0 0 0 0 0 0 0 0 0 0 0 0 0 0 0 0 0 0 0 0 0 0 0 "/>
</feComponentTransfer>
<feComposite operator="in" in2="shape" in="coloredNoise1" result="noise1Clipped" />
<feFlood flood-color="rgba(0, 0, 0, 0.15)" result="color1Flood" />
<feComposite operator="in" in2="noise1Clipped" in="color1Flood" result="color1" />
<feMerge result="effect1_noise_494_973">
<feMergeNode in="shape" />
<feMergeNode in="color1" />
</feMerge>
</filter>
<filter id="filter9_n_494_973" x="558.256" y="156.548" width="82.9016" height="33.1956" filterUnits="userSpaceOnUse" color-interpolation-filters="sRGB">
<feFlood flood-opacity="0" result="BackgroundImageFix"/>
<feBlend mode="normal" in="SourceGraphic" in2="BackgroundImageFix" result="shape"/>
<feTurbulence type="fractalNoise" baseFrequency="2.093630313873291 2.093630313873291" stitchTiles="stitch" numOctaves="3" result="noise" seed="9343" />
<feColorMatrix in="noise" type="luminanceToAlpha" result="alphaNoise" />
<feComponentTransfer in="alphaNoise" result="coloredNoise1">
<feFuncA type="discrete" tableValues="0 0 0 0 0 0 0 0 0 0 0 0 1 1 1 1 1 1 1 1 1 1 1 1 1 1 1 1 1 1 1 1 1 1 1 1 1 1 0 0 0 0 0 0 0 0 0 0 0 0 0 0 0 0 0 0 0 0 0 0 0 0 0 0 0 0 0 0 0 0 0 0 0 0 0 0 0 0 0 0 0 0 0 0 0 0 0 0 0 0 0 0 0 0 0 0 0 0 0 0 "/>
</feComponentTransfer>
<feComposite operator="in" in2="shape" in="coloredNoise1" result="noise1Clipped" />
<feFlood flood-color="rgba(0, 0, 0, 0.15)" result="color1Flood" />
<feComposite operator="in" in2="noise1Clipped" in="color1Flood" result="color1" />
<feMerge result="effect1_noise_494_973">
<feMergeNode in="shape" />
<feMergeNode in="color1" />
</feMerge>
</filter>
<filter id="filter10_n_494_973" x="539.455" y="18.4778" width="121.509" height="151.251" filterUnits="userSpaceOnUse" color-interpolation-filters="sRGB">
<feFlood flood-opacity="0" result="BackgroundImageFix"/>
<feBlend mode="normal" in="SourceGraphic" in2="BackgroundImageFix" result="shape"/>
<feTurbulence type="fractalNoise" baseFrequency="2 2" stitchTiles="stitch" numOctaves="3" result="noise" seed="9343" />
<feColorMatrix in="noise" type="luminanceToAlpha" result="alphaNoise" />
<feComponentTransfer in="alphaNoise" result="coloredNoise1">
<feFuncA type="discrete" tableValues="0 0 0 0 0 0 0 0 0 0 0 0 1 1 1 1 1 1 1 1 1 1 1 1 1 1 1 1 1 1 1 1 1 1 1 1 1 1 0 0 0 0 0 0 0 0 0 0 0 0 0 0 0 0 0 0 0 0 0 0 0 0 0 0 0 0 0 0 0 0 0 0 0 0 0 0 0 0 0 0 0 0 0 0 0 0 0 0 0 0 0 0 0 0 0 0 0 0 0 0 "/>
</feComponentTransfer>
<feComposite operator="in" in2="shape" in="coloredNoise1" result="noise1Clipped" />
<feFlood flood-color="rgba(255, 255, 255, 0.5)" result="color1Flood" />
<feComposite operator="in" in2="noise1Clipped" in="color1Flood" result="color1" />
<feMerge result="effect1_noise_494_973">
<feMergeNode in="shape" />
<feMergeNode in="color1" />
</feMerge>
</filter>
<filter id="filter11_n_494_973" x="720.209" y="-0.020813" width="240" height="240" filterUnits="userSpaceOnUse" color-interpolation-filters="sRGB">
<feFlood flood-opacity="0" result="BackgroundImageFix"/>
<feBlend mode="normal" in="SourceGraphic" in2="BackgroundImageFix" result="shape"/>
<feTurbulence type="fractalNoise" baseFrequency="2 2" stitchTiles="stitch" numOctaves="3" result="noise" seed="9343" />
<feColorMatrix in="noise" type="luminanceToAlpha" result="alphaNoise" />
<feComponentTransfer in="alphaNoise" result="coloredNoise1">
<feFuncA type="discrete" tableValues="0 0 0 0 0 0 0 0 0 0 0 0 1 1 1 1 1 1 1 1 1 1 1 1 1 1 1 1 1 1 1 1 1 1 1 1 1 1 0 0 0 0 0 0 0 0 0 0 0 0 0 0 0 0 0 0 0 0 0 0 0 0 0 0 0 0 0 0 0 0 0 0 0 0 0 0 0 0 0 0 0 0 0 0 0 0 0 0 0 0 0 0 0 0 0 0 0 0 0 0 "/>
</feComponentTransfer>
<feComposite operator="in" in2="shape" in="coloredNoise1" result="noise1Clipped" />
<feFlood flood-color="rgba(255, 255, 255, 0.5)" result="color1Flood" />
<feComposite operator="in" in2="noise1Clipped" in="color1Flood" result="color1" />
<feMerge result="effect1_noise_494_973">
<feMergeNode in="shape" />
<feMergeNode in="color1" />
</feMerge>
</filter>
<filter id="filter12_n_494_973" x="742.158" y="-40.9314" width="160.802" height="312.403" filterUnits="userSpaceOnUse" color-interpolation-filters="sRGB">
<feFlood flood-opacity="0" result="BackgroundImageFix"/>
<feBlend mode="normal" in="SourceGraphic" in2="BackgroundImageFix" result="shape"/>
<feTurbulence type="fractalNoise" baseFrequency="2.093630313873291 2.093630313873291" stitchTiles="stitch" numOctaves="3" result="noise" seed="9343" />
<feColorMatrix in="noise" type="luminanceToAlpha" result="alphaNoise" />
<feComponentTransfer in="alphaNoise" result="coloredNoise1">
<feFuncA type="discrete" tableValues="0 0 0 0 0 0 0 0 0 0 0 0 1 1 1 1 1 1 1 1 1 1 1 1 1 1 1 1 1 1 1 1 1 1 1 1 1 1 0 0 0 0 0 0 0 0 0 0 0 0 0 0 0 0 0 0 0 0 0 0 0 0 0 0 0 0 0 0 0 0 0 0 0 0 0 0 0 0 0 0 0 0 0 0 0 0 0 0 0 0 0 0 0 0 0 0 0 0 0 0 "/>
</feComponentTransfer>
<feComposite operator="in" in2="shape" in="coloredNoise1" result="noise1Clipped" />
<feFlood flood-color="rgba(0, 0, 0, 0.15)" result="color1Flood" />
<feComposite operator="in" in2="noise1Clipped" in="color1Flood" result="color1" />
<feMerge result="effect1_noise_494_973">
<feMergeNode in="shape" />
<feMergeNode in="color1" />
</feMerge>
</filter>
<filter id="filter13_n_494_973" x="960.189" y="-0.020813" width="240" height="240" filterUnits="userSpaceOnUse" color-interpolation-filters="sRGB">
<feFlood flood-opacity="0" result="BackgroundImageFix"/>
<feBlend mode="normal" in="SourceGraphic" in2="BackgroundImageFix" result="shape"/>
<feTurbulence type="fractalNoise" baseFrequency="2 2" stitchTiles="stitch" numOctaves="3" result="noise" seed="9343" />
<feColorMatrix in="noise" type="luminanceToAlpha" result="alphaNoise" />
<feComponentTransfer in="alphaNoise" result="coloredNoise1">
<feFuncA type="discrete" tableValues="0 0 0 0 0 0 0 0 0 0 0 0 1 1 1 1 1 1 1 1 1 1 1 1 1 1 1 1 1 1 1 1 1 1 1 1 1 1 0 0 0 0 0 0 0 0 0 0 0 0 0 0 0 0 0 0 0 0 0 0 0 0 0 0 0 0 0 0 0 0 0 0 0 0 0 0 0 0 0 0 0 0 0 0 0 0 0 0 0 0 0 0 0 0 0 0 0 0 0 0 "/>
</feComponentTransfer>
<feComposite operator="in" in2="shape" in="coloredNoise1" result="noise1Clipped" />
<feFlood flood-color="rgba(255, 255, 255, 0.5)" result="color1Flood" />
<feComposite operator="in" in2="noise1Clipped" in="color1Flood" result="color1" />
<feMerge result="effect1_noise_494_973">
<feMergeNode in="shape" />
<feMergeNode in="color1" />
</feMerge>
</filter>
<filter id="filter14_n_494_973" x="940.53" y="144.712" width="280.469" height="162.797" filterUnits="userSpaceOnUse" color-interpolation-filters="sRGB">
<feFlood flood-opacity="0" result="BackgroundImageFix"/>
<feBlend mode="normal" in="SourceGraphic" in2="BackgroundImageFix" result="shape"/>
<feTurbulence type="fractalNoise" baseFrequency="2.093630313873291 2.093630313873291" stitchTiles="stitch" numOctaves="3" result="noise" seed="9343" />
<feColorMatrix in="noise" type="luminanceToAlpha" result="alphaNoise" />
<feComponentTransfer in="alphaNoise" result="coloredNoise1">
<feFuncA type="discrete" tableValues="0 0 0 0 0 0 0 0 0 0 0 0 1 1 1 1 1 1 1 1 1 1 1 1 1 1 1 1 1 1 1 1 1 1 1 1 1 1 0 0 0 0 0 0 0 0 0 0 0 0 0 0 0 0 0 0 0 0 0 0 0 0 0 0 0 0 0 0 0 0 0 0 0 0 0 0 0 0 0 0 0 0 0 0 0 0 0 0 0 0 0 0 0 0 0 0 0 0 0 0 "/>
</feComponentTransfer>
<feComposite operator="in" in2="shape" in="coloredNoise1" result="noise1Clipped" />
<feFlood flood-color="rgba(0, 0, 0, 0.15)" result="color1Flood" />
<feComposite operator="in" in2="noise1Clipped" in="color1Flood" result="color1" />
<feMerge result="effect1_noise_494_973">
<feMergeNode in="shape" />
<feMergeNode in="color1" />
</feMerge>
</filter>
<filter id="filter15_n_494_973" x="1063.39" y="72.0541" width="6.2146" height="11.6357" filterUnits="userSpaceOnUse" color-interpolation-filters="sRGB">
<feFlood flood-opacity="0" result="BackgroundImageFix"/>
<feBlend mode="normal" in="SourceGraphic" in2="BackgroundImageFix" result="shape"/>
<feTurbulence type="fractalNoise" baseFrequency="2.093630313873291 2.093630313873291" stitchTiles="stitch" numOctaves="3" result="noise" seed="9343" />
<feColorMatrix in="noise" type="luminanceToAlpha" result="alphaNoise" />
<feComponentTransfer in="alphaNoise" result="coloredNoise1">
<feFuncA type="discrete" tableValues="0 0 0 0 0 0 0 0 0 0 0 0 1 1 1 1 1 1 1 1 1 1 1 1 1 1 1 1 1 1 1 1 1 1 1 1 1 1 0 0 0 0 0 0 0 0 0 0 0 0 0 0 0 0 0 0 0 0 0 0 0 0 0 0 0 0 0 0 0 0 0 0 0 0 0 0 0 0 0 0 0 0 0 0 0 0 0 0 0 0 0 0 0 0 0 0 0 0 0 0 "/>
</feComponentTransfer>
<feComposite operator="in" in2="shape" in="coloredNoise1" result="noise1Clipped" />
<feFlood flood-color="rgba(0, 0, 0, 0.15)" result="color1Flood" />
<feComposite operator="in" in2="noise1Clipped" in="color1Flood" result="color1" />
<feMerge result="effect1_noise_494_973">
<feMergeNode in="shape" />
<feMergeNode in="color1" />
</feMerge>
</filter>
<filter id="filter16_n_494_973" x="1057.15" y="88.4459" width="11.1624" height="5.03796" filterUnits="userSpaceOnUse" color-interpolation-filters="sRGB">
<feFlood flood-opacity="0" result="BackgroundImageFix"/>
<feBlend mode="normal" in="SourceGraphic" in2="BackgroundImageFix" result="shape"/>
<feTurbulence type="fractalNoise" baseFrequency="2.093630313873291 2.093630313873291" stitchTiles="stitch" numOctaves="3" result="noise" seed="9343" />
<feColorMatrix in="noise" type="luminanceToAlpha" result="alphaNoise" />
<feComponentTransfer in="alphaNoise" result="coloredNoise1">
<feFuncA type="discrete" tableValues="0 0 0 0 0 0 0 0 0 0 0 0 1 1 1 1 1 1 1 1 1 1 1 1 1 1 1 1 1 1 1 1 1 1 1 1 1 1 0 0 0 0 0 0 0 0 0 0 0 0 0 0 0 0 0 0 0 0 0 0 0 0 0 0 0 0 0 0 0 0 0 0 0 0 0 0 0 0 0 0 0 0 0 0 0 0 0 0 0 0 0 0 0 0 0 0 0 0 0 0 "/>
</feComponentTransfer>
<feComposite operator="in" in2="shape" in="coloredNoise1" result="noise1Clipped" />
<feFlood flood-color="rgba(0, 0, 0, 0.15)" result="color1Flood" />
<feComposite operator="in" in2="noise1Clipped" in="color1Flood" result="color1" />
<feMerge result="effect1_noise_494_973">
<feMergeNode in="shape" />
<feMergeNode in="color1" />
</feMerge>
</filter>
<filter id="filter17_n_494_973" x="1081.41" y="75.8798" width="2.58496" height="2.58496" filterUnits="userSpaceOnUse" color-interpolation-filters="sRGB">
<feFlood flood-opacity="0" result="BackgroundImageFix"/>
<feBlend mode="normal" in="SourceGraphic" in2="BackgroundImageFix" result="shape"/>
<feTurbulence type="fractalNoise" baseFrequency="2.093630313873291 2.093630313873291" stitchTiles="stitch" numOctaves="3" result="noise" seed="9343" />
<feColorMatrix in="noise" type="luminanceToAlpha" result="alphaNoise" />
<feComponentTransfer in="alphaNoise" result="coloredNoise1">
<feFuncA type="discrete" tableValues="0 0 0 0 0 0 0 0 0 0 0 0 1 1 1 1 1 1 1 1 1 1 1 1 1 1 1 1 1 1 1 1 1 1 1 1 1 1 0 0 0 0 0 0 0 0 0 0 0 0 0 0 0 0 0 0 0 0 0 0 0 0 0 0 0 0 0 0 0 0 0 0 0 0 0 0 0 0 0 0 0 0 0 0 0 0 0 0 0 0 0 0 0 0 0 0 0 0 0 0 "/>
</feComponentTransfer>
<feComposite operator="in" in2="shape" in="coloredNoise1" result="noise1Clipped" />
<feFlood flood-color="rgba(0, 0, 0, 0.15)" result="color1Flood" />
<feComposite operator="in" in2="noise1Clipped" in="color1Flood" result="color1" />
<feMerge result="effect1_noise_494_973">
<feMergeNode in="shape" />
<feMergeNode in="color1" />
</feMerge>
</filter>
<filter id="filter18_n_494_973" x="1054.39" y="68.6372" width="2.58496" height="2.58496" filterUnits="userSpaceOnUse" color-interpolation-filters="sRGB">
<feFlood flood-opacity="0" result="BackgroundImageFix"/>
<feBlend mode="normal" in="SourceGraphic" in2="BackgroundImageFix" result="shape"/>
<feTurbulence type="fractalNoise" baseFrequency="2.093630313873291 2.093630313873291" stitchTiles="stitch" numOctaves="3" result="noise" seed="9343" />
<feColorMatrix in="noise" type="luminanceToAlpha" result="alphaNoise" />
<feComponentTransfer in="alphaNoise" result="coloredNoise1">
<feFuncA type="discrete" tableValues="0 0 0 0 0 0 0 0 0 0 0 0 1 1 1 1 1 1 1 1 1 1 1 1 1 1 1 1 1 1 1 1 1 1 1 1 1 1 0 0 0 0 0 0 0 0 0 0 0 0 0 0 0 0 0 0 0 0 0 0 0 0 0 0 0 0 0 0 0 0 0 0 0 0 0 0 0 0 0 0 0 0 0 0 0 0 0 0 0 0 0 0 0 0 0 0 0 0 0 0 "/>
</feComponentTransfer>
<feComposite operator="in" in2="shape" in="coloredNoise1" result="noise1Clipped" />
<feFlood flood-color="rgba(0, 0, 0, 0.15)" result="color1Flood" />
<feComposite operator="in" in2="noise1Clipped" in="color1Flood" result="color1" />
<feMerge result="effect1_noise_494_973">
<feMergeNode in="shape" />
<feMergeNode in="color1" />
</feMerge>
</filter>
<filter id="filter19_n_494_973" x="1109.89" y="90.3397" width="9.02783" height="3.49976" filterUnits="userSpaceOnUse" color-interpolation-filters="sRGB">
<feFlood flood-opacity="0" result="BackgroundImageFix"/>
<feBlend mode="normal" in="SourceGraphic" in2="BackgroundImageFix" result="shape"/>
<feTurbulence type="fractalNoise" baseFrequency="4.9049410820007324 4.9049410820007324" stitchTiles="stitch" numOctaves="3" result="noise" seed="9343" />
<feColorMatrix in="noise" type="luminanceToAlpha" result="alphaNoise" />
<feComponentTransfer in="alphaNoise" result="coloredNoise1">
<feFuncA type="discrete" tableValues="0 0 0 0 0 0 0 0 0 0 0 0 1 1 1 1 1 1 1 1 1 1 1 1 1 1 1 1 1 1 1 1 1 1 1 1 1 1 0 0 0 0 0 0 0 0 0 0 0 0 0 0 0 0 0 0 0 0 0 0 0 0 0 0 0 0 0 0 0 0 0 0 0 0 0 0 0 0 0 0 0 0 0 0 0 0 0 0 0 0 0 0 0 0 0 0 0 0 0 0 "/>
</feComponentTransfer>
<feComposite operator="in" in2="shape" in="coloredNoise1" result="noise1Clipped" />
<feFlood flood-color="rgba(0, 0, 0, 0.15)" result="color1Flood" />
<feComposite operator="in" in2="noise1Clipped" in="color1Flood" result="color1" />
<feMerge result="effect1_noise_494_973">
<feMergeNode in="shape" />
<feMergeNode in="color1" />
</feMerge>
</filter>
<filter id="filter20_n_494_973" x="1200.17" y="0.479187" width="240" height="239" filterUnits="userSpaceOnUse" color-interpolation-filters="sRGB">
<feFlood flood-opacity="0" result="BackgroundImageFix"/>
<feBlend mode="normal" in="SourceGraphic" in2="BackgroundImageFix" result="shape"/>
<feTurbulence type="fractalNoise" baseFrequency="2 2" stitchTiles="stitch" numOctaves="3" result="noise" seed="9343" />
<feColorMatrix in="noise" type="luminanceToAlpha" result="alphaNoise" />
<feComponentTransfer in="alphaNoise" result="coloredNoise1">
<feFuncA type="discrete" tableValues="0 0 0 0 0 0 0 0 0 0 0 0 1 1 1 1 1 1 1 1 1 1 1 1 1 1 1 1 1 1 1 1 1 1 1 1 1 1 0 0 0 0 0 0 0 0 0 0 0 0 0 0 0 0 0 0 0 0 0 0 0 0 0 0 0 0 0 0 0 0 0 0 0 0 0 0 0 0 0 0 0 0 0 0 0 0 0 0 0 0 0 0 0 0 0 0 0 0 0 0 "/>
</feComponentTransfer>
<feComposite operator="in" in2="shape" in="coloredNoise1" result="noise1Clipped" />
<feFlood flood-color="rgba(255, 255, 255, 0.5)" result="color1Flood" />
<feComposite operator="in" in2="noise1Clipped" in="color1Flood" result="color1" />
<feMerge result="effect1_noise_494_973">
<feMergeNode in="shape" />
<feMergeNode in="color1" />
</feMerge>
</filter>
<clipPath id="clip0_494_973">
<rect width="240.209" height="239.958" fill="white" transform="translate(240)"/>
</clipPath>
<clipPath id="clip1_494_973">
<rect width="240" height="239" fill="white" transform="translate(480.209 0.479187)"/>
</clipPath>
<clipPath id="clip2_494_973">
<rect width="240" height="239" fill="white" transform="translate(720.209 0.479187)"/>
</clipPath>
<clipPath id="clip3_494_973">
<rect width="239.958" height="239.958" fill="white" transform="matrix(-1 0 0 1 1200.17 0)"/>
</clipPath>
</defs>
</svg>
