<svg width="720" height="362" viewBox="0 0 720 362" fill="none" xmlns="http://www.w3.org/2000/svg">
<rect x="360" y="66.0415" width="295" height="295" rx="147.5" fill="#E2F2FC"/>
<g filter="url(#filter0_n_696_1551)">
<path d="M507.499 131.667C524.871 131.667 541.532 138.568 553.815 150.852C566.099 163.136 573.001 179.796 573.001 197.167C573.001 238.048 527.649 280.623 512.42 293.772C511.001 294.839 509.274 295.416 507.499 295.416C505.724 295.415 503.997 294.839 502.578 293.772C487.349 280.623 441.998 238.048 441.998 197.167C441.998 179.796 448.899 163.136 461.183 150.852C473.466 138.568 490.127 131.668 507.499 131.667ZM507.498 172.604C493.933 172.604 482.936 183.601 482.936 197.167C482.936 210.732 493.932 221.729 507.498 221.729C521.064 221.729 532.062 210.732 532.062 197.167C532.061 183.601 521.064 172.604 507.498 172.604Z" fill="#0C2E45"/>
</g>
<g filter="url(#filter1_n_696_1551)">
<g clip-path="url(#clip0_696_1551)">
<rect x="234" y="22.0415" width="158" height="158" rx="79" fill="#D5E9AD"/>
<path d="M274.78 134.467V202.042H234.002V134.467H274.78ZM414 202.042H282.78V134.467H342.43C362.312 134.467 378.429 118.349 378.43 98.4673V81.8579H414V202.042ZM370.43 98.4673C370.429 113.931 357.894 126.467 342.43 126.467H234.002V22.0415H370.43V98.4673ZM414 73.8579H378.43V22.0415H414V73.8579Z" fill="#9CC652"/>
<g filter="url(#filter2_n_696_1551)">
<path d="M316.266 114.034L320.335 127.364" stroke="#0C2E45" stroke-width="9.6" stroke-linecap="round" stroke-linejoin="round"/>
</g>
<g filter="url(#filter3_n_696_1551)">
<path d="M303.922 99.5403C304.188 100.532 304.171 101.579 303.874 102.562C303.577 103.545 303.012 104.426 302.242 105.106L298.139 108.777C297.369 109.456 296.804 110.337 296.507 111.32C296.21 112.303 296.193 113.35 296.458 114.342L297.001 116.368C297.191 117.075 297.653 117.678 298.287 118.044C298.921 118.41 299.675 118.509 300.382 118.32L332.375 109.747C333.082 109.558 333.685 109.095 334.051 108.461C334.417 107.827 334.516 107.074 334.327 106.367L333.784 104.341C333.517 103.349 332.98 102.451 332.231 101.748C331.482 101.045 330.552 100.565 329.546 100.361L324.157 99.2334C323.15 99.03 322.22 98.5498 321.472 97.8468C320.723 97.1438 320.185 96.2459 319.919 95.2541L317.233 85.2295C317.043 84.5224 317.143 83.7691 317.509 83.1351C317.875 82.5011 318.477 82.0385 319.185 81.8491C320.599 81.4701 321.804 80.5449 322.536 79.277C323.269 78.0091 323.467 76.5023 323.088 75.0881C322.709 73.6739 321.784 72.4682 320.516 71.7362C319.248 71.0041 317.741 70.8058 316.327 71.1847L294.998 76.8997C293.584 77.2786 292.378 78.2038 291.646 79.4718C290.914 80.7397 290.716 82.2465 291.095 83.6607C291.474 85.0748 292.399 86.2806 293.667 87.0126C294.935 87.7446 296.442 87.943 297.856 87.5641C298.563 87.3746 299.316 87.4738 299.95 87.8398C300.584 88.2058 301.047 88.8087 301.236 89.5158L303.922 99.5403Z" fill="#E12A23"/>
</g>
</g>
</g>
<g filter="url(#filter4_n_696_1551)">
<rect x="185" y="180.042" width="175" height="181" rx="5" fill="#E06016"/>
<path d="M289 221.042C291.278 221.042 293.125 222.888 293.125 225.167V246.617C293.125 248.439 294.602 249.917 296.425 249.917H317.875C320.153 249.917 322 251.763 322 254.042V287.042C322 289.32 320.153 291.167 317.875 291.167H296.425C294.602 291.167 293.125 292.644 293.125 294.467V315.917C293.125 318.195 291.278 320.042 289 320.042H256C253.722 320.042 251.875 318.195 251.875 315.917V294.467C251.875 292.644 250.398 291.167 248.575 291.167H227.125C224.847 291.167 223 289.32 223 287.042V254.042C223 251.763 224.847 249.917 227.125 249.917H248.575C250.398 249.917 251.875 248.439 251.875 246.617V225.167C251.875 222.888 253.722 221.042 256 221.042H289Z" fill="#FEF2F2"/>
</g>
<defs>
<filter id="filter0_n_696_1551" x="441.998" y="131.667" width="131.002" height="163.748" filterUnits="userSpaceOnUse" color-interpolation-filters="sRGB">
<feFlood flood-opacity="0" result="BackgroundImageFix"/>
<feBlend mode="normal" in="SourceGraphic" in2="BackgroundImageFix" result="shape"/>
<feTurbulence type="fractalNoise" baseFrequency="3.3333461284637451 3.3333461284637451" stitchTiles="stitch" numOctaves="3" result="noise" seed="9343" />
<feColorMatrix in="noise" type="luminanceToAlpha" result="alphaNoise" />
<feComponentTransfer in="alphaNoise" result="coloredNoise1">
<feFuncA type="discrete" tableValues="0 0 0 0 0 0 0 0 0 0 0 0 1 1 1 1 1 1 1 1 1 1 1 1 1 1 1 1 1 1 1 1 1 1 1 1 1 1 0 0 0 0 0 0 0 0 0 0 0 0 0 0 0 0 0 0 0 0 0 0 0 0 0 0 0 0 0 0 0 0 0 0 0 0 0 0 0 0 0 0 0 0 0 0 0 0 0 0 0 0 0 0 0 0 0 0 0 0 0 0 "/>
</feComponentTransfer>
<feComposite operator="in" in2="shape" in="coloredNoise1" result="noise1Clipped" />
<feFlood flood-color="rgba(255, 255, 255, 0.5)" result="color1Flood" />
<feComposite operator="in" in2="noise1Clipped" in="color1Flood" result="color1" />
<feMerge result="effect1_noise_696_1551">
<feMergeNode in="shape" />
<feMergeNode in="color1" />
</feMerge>
</filter>
<filter id="filter1_n_696_1551" x="234" y="22.0415" width="158" height="158" filterUnits="userSpaceOnUse" color-interpolation-filters="sRGB">
<feFlood flood-opacity="0" result="BackgroundImageFix"/>
<feBlend mode="normal" in="SourceGraphic" in2="BackgroundImageFix" result="shape"/>
<feTurbulence type="fractalNoise" baseFrequency="2.6170377731323242 2.6170377731323242" stitchTiles="stitch" numOctaves="3" result="noise" seed="9343" />
<feColorMatrix in="noise" type="luminanceToAlpha" result="alphaNoise" />
<feComponentTransfer in="alphaNoise" result="coloredNoise1">
<feFuncA type="discrete" tableValues="0 0 0 0 0 0 0 0 0 0 0 0 1 1 1 1 1 1 1 1 1 1 1 1 1 1 1 1 1 1 1 1 1 1 1 1 1 1 0 0 0 0 0 0 0 0 0 0 0 0 0 0 0 0 0 0 0 0 0 0 0 0 0 0 0 0 0 0 0 0 0 0 0 0 0 0 0 0 0 0 0 0 0 0 0 0 0 0 0 0 0 0 0 0 0 0 0 0 0 0 "/>
</feComponentTransfer>
<feComposite operator="in" in2="shape" in="coloredNoise1" result="noise1Clipped" />
<feFlood flood-color="rgba(0, 0, 0, 0.15)" result="color1Flood" />
<feComposite operator="in" in2="noise1Clipped" in="color1Flood" result="color1" />
<feMerge result="effect1_noise_696_1551">
<feMergeNode in="shape" />
<feMergeNode in="color1" />
</feMerge>
</filter>
<filter id="filter2_n_696_1551" x="311.387" y="109.312" width="13.8281" height="22.7738" filterUnits="userSpaceOnUse" color-interpolation-filters="sRGB">
<feFlood flood-opacity="0" result="BackgroundImageFix"/>
<feBlend mode="normal" in="SourceGraphic" in2="BackgroundImageFix" result="shape"/>
<feTurbulence type="fractalNoise" baseFrequency="2.6170377731323242 2.6170377731323242" stitchTiles="stitch" numOctaves="3" result="noise" seed="9343" />
<feColorMatrix in="noise" type="luminanceToAlpha" result="alphaNoise" />
<feComponentTransfer in="alphaNoise" result="coloredNoise1">
<feFuncA type="discrete" tableValues="0 0 0 0 0 0 0 0 0 0 0 0 1 1 1 1 1 1 1 1 1 1 1 1 1 1 1 1 1 1 1 1 1 1 1 1 1 1 0 0 0 0 0 0 0 0 0 0 0 0 0 0 0 0 0 0 0 0 0 0 0 0 0 0 0 0 0 0 0 0 0 0 0 0 0 0 0 0 0 0 0 0 0 0 0 0 0 0 0 0 0 0 0 0 0 0 0 0 0 0 "/>
</feComponentTransfer>
<feComposite operator="in" in2="shape" in="coloredNoise1" result="noise1Clipped" />
<feFlood flood-color="rgba(0, 0, 0, 0.15)" result="color1Flood" />
<feComposite operator="in" in2="noise1Clipped" in="color1Flood" result="color1" />
<feMerge result="effect1_noise_696_1551">
<feMergeNode in="shape" />
<feMergeNode in="color1" />
</feMerge>
</filter>
<filter id="filter3_n_696_1551" x="290.906" y="70.9966" width="43.5137" height="47.4174" filterUnits="userSpaceOnUse" color-interpolation-filters="sRGB">
<feFlood flood-opacity="0" result="BackgroundImageFix"/>
<feBlend mode="normal" in="SourceGraphic" in2="BackgroundImageFix" result="shape"/>
<feTurbulence type="fractalNoise" baseFrequency="2.6170377731323242 2.6170377731323242" stitchTiles="stitch" numOctaves="3" result="noise" seed="9343" />
<feColorMatrix in="noise" type="luminanceToAlpha" result="alphaNoise" />
<feComponentTransfer in="alphaNoise" result="coloredNoise1">
<feFuncA type="discrete" tableValues="0 0 0 0 0 0 0 0 0 0 0 0 1 1 1 1 1 1 1 1 1 1 1 1 1 1 1 1 1 1 1 1 1 1 1 1 1 1 0 0 0 0 0 0 0 0 0 0 0 0 0 0 0 0 0 0 0 0 0 0 0 0 0 0 0 0 0 0 0 0 0 0 0 0 0 0 0 0 0 0 0 0 0 0 0 0 0 0 0 0 0 0 0 0 0 0 0 0 0 0 "/>
</feComponentTransfer>
<feComposite operator="in" in2="shape" in="coloredNoise1" result="noise1Clipped" />
<feFlood flood-color="rgba(0, 0, 0, 0.15)" result="color1Flood" />
<feComposite operator="in" in2="noise1Clipped" in="color1Flood" result="color1" />
<feMerge result="effect1_noise_696_1551">
<feMergeNode in="shape" />
<feMergeNode in="color1" />
</feMerge>
</filter>
<filter id="filter4_n_696_1551" x="185" y="180.042" width="175" height="181" filterUnits="userSpaceOnUse" color-interpolation-filters="sRGB">
<feFlood flood-opacity="0" result="BackgroundImageFix"/>
<feBlend mode="normal" in="SourceGraphic" in2="BackgroundImageFix" result="shape"/>
<feTurbulence type="fractalNoise" baseFrequency="2 2" stitchTiles="stitch" numOctaves="3" result="noise" seed="9343" />
<feColorMatrix in="noise" type="luminanceToAlpha" result="alphaNoise" />
<feComponentTransfer in="alphaNoise" result="coloredNoise1">
<feFuncA type="discrete" tableValues="0 0 0 0 0 0 0 0 0 0 0 0 1 1 1 1 1 1 1 1 1 1 1 1 1 1 1 1 1 1 1 1 1 1 1 1 1 1 0 0 0 0 0 0 0 0 0 0 0 0 0 0 0 0 0 0 0 0 0 0 0 0 0 0 0 0 0 0 0 0 0 0 0 0 0 0 0 0 0 0 0 0 0 0 0 0 0 0 0 0 0 0 0 0 0 0 0 0 0 0 "/>
</feComponentTransfer>
<feComposite operator="in" in2="shape" in="coloredNoise1" result="noise1Clipped" />
<feFlood flood-color="rgba(255, 255, 255, 0.5)" result="color1Flood" />
<feComposite operator="in" in2="noise1Clipped" in="color1Flood" result="color1" />
<feMerge result="effect1_noise_696_1551">
<feMergeNode in="shape" />
<feMergeNode in="color1" />
</feMerge>
</filter>
<clipPath id="clip0_696_1551">
<rect x="234" y="22.0415" width="158" height="158" rx="79" fill="white"/>
</clipPath>
</defs>
</svg>
