<svg width="363" height="300" viewBox="0 0 363 300" fill="none" xmlns="http://www.w3.org/2000/svg">
<path d="M310.636 224.385C285.571 267.481 239.576 296.893 186.573 298.696C206.567 276.991 221.826 251.686 231.708 224.385H310.636ZM131.028 224.385C140.91 251.685 156.168 276.99 176.161 298.694C123.188 296.867 77.2221 267.462 52.1689 224.385H131.028ZM223.738 224.385C214.226 249.655 199.918 273.092 181.368 293.312C162.818 273.092 148.51 249.655 138.998 224.385H223.738ZM117.956 143.224C117.899 145.269 117.869 147.318 117.869 149.369C117.869 172.501 121.508 195.271 128.474 216.909H48.1006C37.8048 196.624 32 173.675 32 149.369C32 147.311 32.0435 145.262 32.126 143.224H117.956ZM237.299 143.224C237.358 145.269 237.391 147.317 237.391 149.369C237.391 172.535 233.613 195.324 226.394 216.909H136.344C129.124 195.324 125.346 172.535 125.346 149.369C125.346 147.317 125.379 145.269 125.438 143.224H237.299ZM330.679 143.224C330.761 145.262 330.805 147.311 330.805 149.369C330.805 173.675 325 196.624 314.704 216.909H234.264C241.23 195.271 244.867 172.501 244.867 149.369C244.867 147.318 244.838 145.269 244.781 143.224H330.679ZM135.897 62.0641C125.882 85.2812 119.872 110.196 118.291 135.748H32.6143C35.0862 108.391 44.9317 83.163 60.1465 62.0641H135.897ZM218.667 62.0641C229.063 85.1919 235.31 110.134 236.951 135.748H125.786C127.427 110.135 133.673 85.1918 144.069 62.0641H218.667ZM302.658 62.0641C317.873 83.163 327.718 108.391 330.19 135.748H244.445C242.864 110.196 236.854 85.2813 226.839 62.0641H302.658ZM176.161 0.0426025C161.087 16.4068 148.705 34.8179 139.289 54.5875H65.9023C92.2698 22.487 131.754 1.57383 176.161 0.0426025ZM181.368 5.42542C194.98 20.2627 206.306 36.8331 215.131 54.5875H147.606C156.431 36.8332 167.756 20.2626 181.368 5.42542ZM186.573 0.041626C231.009 1.55322 270.521 22.4701 296.902 54.5875H223.448C214.032 34.8171 201.648 16.4063 186.573 0.041626Z" fill="#BEE5F9"/>
<path d="M78.3595 228.498H74.4228V251.857H78.3595V228.498Z" fill="white"/>
<path d="M80.4012 248.066H72.5279V272.415H80.4012V248.066Z" fill="#303030"/>
<path d="M92.9721 270.842H60.0918V274.005H92.9721V270.842Z" fill="white"/>
<path d="M62.6802 270.842H60.0918V280.332H62.6802V270.842Z" fill="white"/>
<path d="M64.8171 283.963C65.2372 281.35 63.4592 278.891 60.8457 278.471C58.2322 278.051 55.773 279.829 55.3529 282.442C54.9328 285.056 56.7109 287.515 59.3244 287.935C61.9379 288.355 64.3971 286.577 64.8171 283.963Z" fill="#303030"/>
<path d="M90.3835 280.332H92.972V270.842H90.3835V280.332Z" fill="white"/>
<path d="M96.281 286.685C98.2002 284.861 98.2779 281.827 96.4545 279.908C94.6312 277.989 91.5974 277.911 89.6782 279.735C87.7591 281.558 87.6814 284.592 89.5047 286.511C91.328 288.43 94.3619 288.508 96.281 286.685Z" fill="#303030"/>
<path d="M47.083 231.638H83.8321C86.3389 231.638 88.1412 228.833 87.4312 226.035L69.8818 156.859C69.4109 155.003 67.9461 153.729 66.2828 153.729H29.5336C27.0268 153.729 25.225 156.534 25.9345 159.332L43.4839 228.508C43.9549 230.364 45.4196 231.638 47.083 231.638Z" fill="#303030"/>
<path d="M49.9757 231.638H104.416C106.955 231.638 109.013 229.58 109.013 227.041C109.013 224.501 106.955 222.443 104.416 222.443H49.9757C47.4366 222.443 45.3784 224.501 45.3784 227.041C45.3784 229.58 47.4366 231.638 49.9757 231.638Z" fill="#303030"/>
<path d="M77.0088 173.821C78.8176 177.17 87.3366 193.058 91.2817 198.196C92.974 200.401 96.1673 200.749 98.3091 198.978C100.246 197.377 100.566 194.724 99.1819 192.627L85.2889 168.881C83.754 166.555 80.5746 166.009 78.3516 167.689C76.4537 169.123 75.8787 171.728 77.0088 173.821Z" fill="#FAD9AE"/>
<path d="M86.7435 167.271C88.1908 169.258 92.6333 175.733 92.6333 175.733L79.745 182.421L74.9665 174.271C73.6919 171.608 74.26 168.428 76.3784 166.37C79.3865 163.448 84.2736 163.882 86.7435 167.271Z" fill="#4B6922"/>
<path d="M93.6435 199.851C93.6435 199.851 106.506 200.551 120.27 198.576L121.732 194.761L96.5645 191.68L93.6435 199.851Z" fill="#FAD9AE"/>
<path d="M75.0103 160.031L58.9938 165.213C58.4098 165.403 58.019 165.953 58.0335 166.567L60.5621 200.076H79.3238L84.189 188.377C86.0998 184.75 86.872 178.627 86.404 174.554L85.9091 167.177C85.8245 166.441 85.3893 165.79 84.7411 165.43L75.0103 160.031Z" fill="#4B6922"/>
<path d="M68.5899 162.108L75.0104 160.031L81.7988 163.797L78.478 169.846L68.5899 162.108Z" fill="#FAD9AE"/>
<path d="M86.4766 178.928C86.4766 178.928 86.3436 175.527 86.022 173.425" stroke="#303030" stroke-width="0.5207" stroke-miterlimit="10" stroke-linecap="round" stroke-linejoin="round"/>
<path d="M56.7889 169.552C54.9771 172.899 45.433 188.728 43.2937 194.843C42.3761 197.466 43.8338 200.328 46.4885 201.151C48.8882 201.895 51.2834 200.71 52.2802 198.404L65.4573 173.775C66.5625 171.218 65.2785 168.258 62.6558 167.318C60.4158 166.515 57.921 167.46 56.7889 169.552Z" fill="#FAD9AE"/>
<path d="M55.6025 167.662C54.1552 169.649 49.7128 176.124 49.7128 176.124L62.6011 182.811L67.3796 174.663C68.6542 171.999 68.0856 168.819 65.9677 166.762C62.959 163.84 58.072 164.273 55.6025 167.662Z" fill="#4B6922"/>
<path d="M61.0754 182.069L62.6009 182.812L66.8985 175.562" stroke="#303030" stroke-width="0.5207" stroke-miterlimit="10" stroke-linecap="round" stroke-linejoin="round"/>
<path d="M47.4794 201.351C47.4794 201.351 60.3423 202.05 74.1054 200.076L75.5681 196.261L50.4004 193.18L47.4794 201.351Z" fill="#FAD9AE"/>
<path d="M49.7624 193.099L54.6585 193.721" stroke="#303030" stroke-width="0.5207" stroke-miterlimit="10" stroke-linecap="round" stroke-linejoin="round"/>
<path d="M75.5655 196.261C75.5655 196.261 83.4617 191.549 86.0202 200.076H74.1033L75.5655 196.261Z" fill="#FAD9AE"/>
<path d="M81.0553 263.991L92.6969 247.408L100.851 251.733L88.359 268.968L81.0553 263.991Z" fill="#FAD9AE"/>
<path d="M93.6454 261.674L86.2694 256.563L81.0553 263.991L88.359 268.968L93.6454 261.674Z" fill="white"/>
<path d="M85.1565 265.929L85.2382 265.979C86.09 266.507 87.1734 266.29 87.8256 265.53C88.2667 265.015 88.9329 264.502 89.9271 264.223C90.8526 263.964 91.8225 264.468 92.161 265.368C93.3136 268.434 96.3889 276.065 100.395 281.678C101.317 282.97 101.562 284.625 101.019 286.117L100.724 286.928L74.5962 268.696L80.8505 261.67C81.2756 260.725 82.37 260.282 83.3328 260.665C84.2225 261.02 84.7194 261.972 84.5008 262.905L84.2733 263.798C84.0796 264.625 84.4351 265.482 85.1565 265.929Z" fill="#303030"/>
<path d="M74.5953 268.696C74.5953 268.696 74.1154 268.699 73.8082 269.223C73.4363 269.858 73.6703 270.68 74.2762 271.097L97.9548 287.689C98.9137 288.35 100.237 287.986 100.723 286.927L74.5953 268.696Z" fill="white"/>
<path d="M94.0491 269.775C94.0491 269.775 93.2624 269.288 91.5383 270.489" stroke="white" stroke-width="1.0727" stroke-miterlimit="10" stroke-linecap="round" stroke-linejoin="round"/>
<path d="M94.7448 271.168C94.7448 271.168 93.9582 270.681 92.2341 271.882" stroke="white" stroke-width="1.0727" stroke-miterlimit="10" stroke-linecap="round" stroke-linejoin="round"/>
<path d="M95.4371 272.561C95.4371 272.561 94.6504 272.074 92.9263 273.275" stroke="white" stroke-width="1.0727" stroke-miterlimit="10" stroke-linecap="round" stroke-linejoin="round"/>
<path d="M77.2105 265.76C77.2105 265.76 85.5857 269.206 88.4863 278.389L74.5962 268.697C74.5962 268.697 75.465 267.078 77.2105 265.76Z" fill="#0C2E45"/>
<path d="M107.204 219.426L85.9148 252.42L97.3155 260.385L120.978 228.767C123.982 224.621 122.568 218.773 118.003 216.457C114.176 214.516 109.501 215.801 107.204 219.426Z" fill="#9E1916"/>
<path d="M61.8405 199.971C61.8405 199.971 56.1748 207.061 60.5859 216.01C63.9893 222.915 106.627 225.671 106.627 225.671L114.608 213.04L79.6837 199.971H61.8405Z" fill="#9E1916"/>
<path d="M105.244 278.165L105.37 257.903L114.535 256.815L114.082 278.096L105.244 278.165Z" fill="#FAD9AE"/>
<path d="M114.273 269.089H105.301L105.244 278.165L114.082 278.096L114.273 269.089Z" fill="white"/>
<path d="M109.715 277.423L109.811 277.418C110.812 277.367 111.579 276.572 111.682 275.575C111.751 274.9 112.007 274.1 112.665 273.305C113.278 272.564 114.363 272.426 115.153 272.973C117.846 274.838 124.72 279.359 131.209 281.691C132.703 282.228 133.847 283.45 134.25 284.985L134.469 285.819L102.609 285.712L103.75 276.375C103.56 275.356 104.208 274.369 105.218 274.136C106.151 273.921 107.102 274.421 107.453 275.311L107.775 276.175C108.088 276.964 108.868 277.466 109.715 277.423Z" fill="#303030"/>
<path d="M102.611 285.712C102.611 285.712 102.218 285.987 102.263 286.594C102.319 287.327 102.98 287.869 103.715 287.867L132.628 288.022C133.793 288.019 134.673 286.966 134.47 285.819L102.611 285.712Z" fill="white"/>
<path d="M119.216 275.521C119.216 275.521 118.291 275.568 117.558 277.537" stroke="white" stroke-width="1.0727" stroke-miterlimit="10" stroke-linecap="round" stroke-linejoin="round"/>
<path d="M120.583 276.269C120.583 276.269 119.659 276.317 118.925 278.286" stroke="white" stroke-width="1.0727" stroke-miterlimit="10" stroke-linecap="round" stroke-linejoin="round"/>
<path d="M121.943 277.019C121.943 277.019 121.019 277.066 120.285 279.035" stroke="white" stroke-width="1.0727" stroke-miterlimit="10" stroke-linecap="round" stroke-linejoin="round"/>
<path d="M103.087 281.809C103.087 281.809 111.935 279.872 119.548 285.769L102.611 285.712C102.611 285.712 102.404 283.887 103.087 281.809Z" fill="#0C2E45"/>
<path d="M101.334 223.503L102.647 265.885L116.555 265.94L118.039 219.808C118.08 218.49 117.873 217.164 117.345 215.955C116.841 214.801 116 213.598 114.607 213.04L106.039 214.692L101.334 223.503Z" fill="#9E1916"/>
<path d="M101.286 225.254L101.009 220.268" stroke="#303030" stroke-width="0.5207" stroke-miterlimit="10" stroke-linecap="round" stroke-linejoin="round"/>
<path d="M80.6434 130.904C80.6434 130.904 76.4692 128.7 71.497 131.665C65.9782 134.957 61.2728 150.551 61.2728 150.551C61.2728 150.551 81.0661 160.867 92.6315 151.594C92.6315 151.594 92.0411 128.835 80.6434 130.904Z" fill="#74530F"/>
<path d="M67.7473 138.661C67.5865 145.028 73.8552 149.703 77.6927 149.73C83.0418 149.767 87.5635 145.997 87.8039 140.835C88.0444 135.674 83.9071 131.288 78.563 131.04C74.0035 130.827 67.8753 133.591 67.7473 138.661Z" fill="#74530F"/>
<path d="M75.1517 147.959L71.7772 163.912L79.2985 164.428L80.9862 150.394L75.1517 147.959Z" fill="#FAD9AE"/>
<path d="M80.2184 156.779C80.2184 156.779 76.2932 155.731 73.9238 150.031L80.8462 151.984L80.2184 156.779Z" fill="#303030"/>
<path d="M81.9674 132.666C81.9674 132.666 88.6184 133.183 87.7282 141.537C86.838 149.89 85.7063 152.069 82.1227 153.667C78.902 155.103 74.9394 153.504 72.8175 149.836C71.9841 148.395 71.4076 146.261 71.3523 144.618L70.9326 142.406C70.9326 142.406 68.6892 131.396 81.9674 132.666Z" fill="#FAD9AE"/>
<g filter="url(#filter0_n_487_393)">
<path d="M80.3839 143.142L80.2539 145.426" stroke="#0C2E45" stroke-width="0.5" stroke-linecap="round"/>
</g>
<g filter="url(#filter1_n_487_393)">
<path d="M79.0265 147.291C79.7847 148.032 80.9997 148.018 81.7404 147.26" stroke="#0C2E45" stroke-width="0.5" stroke-linecap="round"/>
</g>
<g filter="url(#filter2_n_487_393)">
<path d="M75.3388 142.826C76.2261 143.653 77.6157 143.604 78.4427 142.717" stroke="#0C2E45" stroke-width="0.5" stroke-linecap="round"/>
</g>
<g filter="url(#filter3_n_487_393)">
<path d="M82.8487 142.562C83.7359 143.389 85.1256 143.341 85.9526 142.453" stroke="#0C2E45" stroke-width="0.5" stroke-linecap="round"/>
</g>
<path d="M80.6077 131.789C80.6077 131.789 82.8864 140.925 69.9941 140.008C69.9941 140.008 71.6998 131.911 80.6077 131.789Z" fill="#74530F"/>
<path d="M73.7325 139.271L72.3165 145.3L69.1795 142.107L69.7381 138.392L73.7325 139.271Z" fill="#74530F"/>
<path d="M73.0469 146.831C72.6113 148.452 71.7893 149.038 69.6564 148.502C68.0294 148.093 67.179 146.048 67.6147 144.428C68.0503 142.808 69.4095 142.483 71.0878 143.101C72.2563 143.532 73.4825 145.211 73.0469 146.831Z" fill="#FAD9AE"/>
<path d="M69.4488 144.584C69.4488 144.584 71.0151 144.311 71.4557 146.539" stroke="#303030" stroke-width="0.4834" stroke-miterlimit="10" stroke-linecap="round" stroke-linejoin="round"/>
<path d="M117.643 172.528L107.943 197.588H145.281L154.531 172.806C154.78 171.642 153.892 170.545 152.702 170.545H120.127C118.937 170.545 117.906 171.368 117.643 172.528Z" fill="#4D495D"/>
<path d="M145.483 197.588H107.943V199.971H145.483V197.588Z" fill="#D1D1D1"/>
<path d="M88.618 199.971H107.945V197.588H91.0018C89.6854 197.588 88.618 198.655 88.618 199.971Z" fill="#303030"/>
<path d="M135.452 185.313C134.878 186.819 133.315 187.622 131.963 187.106C130.61 186.59 129.978 184.951 130.552 183.446C131.126 181.94 132.688 181.137 134.041 181.653C135.394 182.169 136.026 183.808 135.452 185.313Z" fill="#D1D1D1"/>
<path d="M58.6917 198.348H84.9333C85.83 198.348 86.5564 199.075 86.5564 199.971H57.0681C57.0686 199.075 57.7955 198.348 58.6917 198.348Z" fill="#303030"/>
<path d="M53.4048 203.547L45.7427 287.474H48.3939L59.5221 203.547H53.4048Z" fill="white"/>
<path d="M133.612 203.547L141.275 287.474H138.623L127.495 203.547H133.612Z" fill="white"/>
<path d="M227.261 203.547L219.599 287.474H222.25L233.378 203.547H227.261Z" fill="white"/>
<path d="M307.009 203.547L314.671 287.474H312.02L300.891 203.547H307.009Z" fill="white"/>
<path d="M312.861 199.444H117.238V207.651H312.861V199.444Z" fill="white"/>
<path d="M117.235 199.444H33.7952V207.651H117.235V199.444Z" fill="white"/>
<path d="M238.896 171.981L248.595 197.04H211.258L202.007 172.259C201.759 171.095 202.646 169.998 203.837 169.998H236.412C237.601 169.997 238.632 170.821 238.896 171.981Z" fill="#4D495D"/>
<path d="M213.23 199.424H248.596L249.35 197.04H211.258L211.266 197.491C211.283 198.564 212.157 199.424 213.23 199.424Z" fill="#303030"/>
<path d="M267.923 199.424H248.596V197.04H265.539C266.856 197.04 267.923 198.107 267.923 199.424Z" fill="#303030"/>
<path d="M206.426 173.13L214.074 194.373H243.976L235.929 173.13H206.426Z" fill="#F1F9FE"/>
<path d="M287.798 275.587L280.185 251.421L271.484 255.781L279.726 279.097L287.798 275.587Z" fill="#BA4814"/>
<path d="M287.274 274.18C285.052 275.177 282.436 275.625 279.373 274.122C279.373 274.122 278.155 270.381 274.763 272.556C274.763 272.556 270.844 276.939 265.021 278.12C256.945 279.757 256.583 283.516 256.583 283.516H292.299L289.065 275.188C288.925 274.356 288.045 273.835 287.274 274.18Z" fill="#442D04"/>
<path d="M256.584 287.257H292.301V283.516H256.584V287.257Z" fill="white"/>
<path d="M257.627 221.832L272.749 267.851H288.167L276.017 220.766L257.627 221.832Z" fill="#FAD9AE"/>
<path d="M272.142 275.587L264.529 251.421L255.827 255.781L264.07 279.097L272.142 275.587Z" fill="#BA4814"/>
<path d="M271.619 274.18C269.397 275.177 266.781 275.625 263.718 274.122C263.718 274.122 262.5 270.381 259.108 272.556C259.108 272.556 255.189 276.939 249.366 278.12C241.29 279.757 240.928 283.516 240.928 283.516H276.644L273.41 275.188C273.271 274.356 272.39 273.835 271.619 274.18Z" fill="#442D04"/>
<path d="M240.929 287.257H276.646V283.516H240.929V287.257Z" fill="white"/>
<path d="M241.531 221.204L256.047 267.851H273.551L260.358 220.766L241.531 221.204Z" fill="#FDEED7"/>
<path d="M276.357 204.942L244.604 212.338C241.571 213.1 240.469 218.265 241.537 221.204L245.907 221.254C246.665 223.34 246.831 224.215 249.05 224.215L317.799 222.732L293.576 205.057L276.357 204.942Z" fill="#FDEED7"/>
<path d="M266.927 243.532L262.917 230.998" stroke="#442D04" stroke-width="0.5207" stroke-miterlimit="10" stroke-linecap="round" stroke-linejoin="round"/>
<path opacity="0.13" d="M264.882 138.478L269.697 143.774C269.697 143.774 268.769 146.429 266.769 146.422L261.934 141.275C261.934 141.275 262.741 138.611 264.882 138.478Z" fill="white"/>
<path d="M261.726 142.922C261.932 145.212 263.926 146.862 266.179 146.607C268.432 146.352 270.092 144.289 269.886 141.998C269.68 139.708 267.686 138.058 265.433 138.314C263.179 138.568 261.519 140.631 261.726 142.922Z" stroke="white" stroke-width="1.2593" stroke-miterlimit="10"/>
<path d="M265.496 140.269C265.819 146.394 269.01 151.354 274.97 151.039C280.93 150.724 287.167 142.897 286.844 136.772C286.52 130.646 282.172 127.227 274.666 127.911C268.723 128.453 265.172 134.143 265.496 140.269Z" fill="#442D04"/>
<path d="M268.443 131.552C268.443 131.552 263.347 131.923 263.925 138.552C263.925 138.552 264.3 141.105 264.825 147.326C265.104 150.612 267.608 154.633 271.714 153.939C273.706 153.603 276.122 153.739 277.898 152.03L279.96 147.675C285.562 139.842 278.471 129.058 269.122 131.37C268.899 131.425 268.673 131.485 268.443 131.552Z" fill="#BA4814"/>
<path d="M265.6 143.826L263.916 147.026C263.741 147.349 263.874 147.82 264.285 147.818L266.465 147.957L265.6 143.826Z" fill="#BA4814"/>
<path d="M265.356 149.293C265.944 149.177 266.503 148.862 266.758 148.484" stroke="#442D04" stroke-width="0.5026" stroke-miterlimit="10" stroke-linecap="round" stroke-linejoin="round"/>
<path d="M273.511 152.225L276.155 162.912L285.321 161.856L279.493 143.681L273.511 152.225Z" fill="#BA4814"/>
<path d="M271.062 143.74L270.064 139.684C270.064 139.684 265.497 134.874 268.442 131.551C268.442 131.551 271.744 130.787 272.255 133.72C272.765 136.654 273.238 140.544 273.238 140.544L271.062 143.74Z" fill="#442D04"/>
<path d="M273.801 147.162C273.801 147.162 274.769 150.96 280.999 148.375L282.741 143.205C282.741 143.205 285.715 131.712 279.712 130.45C273.708 129.188 268.442 131.552 268.442 131.552L273.801 147.162Z" fill="#442D04"/>
<path d="M276.453 143.76C276.446 145.658 273.936 147.453 272.395 147.418C270.855 147.383 270.867 145.533 270.874 143.635C270.881 141.738 272.135 140.227 273.676 140.262C275.216 140.296 276.46 141.863 276.453 143.76Z" fill="#BA4814"/>
<path d="M274.209 142.685C272.328 142.673 272.221 144.676 272.221 144.676" stroke="#442D04" stroke-width="0.5026" stroke-miterlimit="10" stroke-linecap="round" stroke-linejoin="round"/>
<path d="M273.872 153.68L273.512 152.225C272.364 153.58 270.249 153.989 270.249 153.989C270.959 154.157 273.872 153.68 273.872 153.68Z" fill="#21120E"/>
<path d="M261.727 142.922L270.808 142.7" stroke="white" stroke-width="1.2593" stroke-miterlimit="10"/>
<path d="M274.667 127.911C274.667 127.911 263.039 127.971 264.277 134.947C264.277 134.947 266.039 133.279 269.092 133.447L274.667 127.911Z" fill="#442D04"/>
<path d="M266.579 161.155C271.379 160.726 285.61 158.217 293.163 158.946C295.948 159.215 298.27 162.465 299.059 165.149L305.324 204.941C305.324 204.941 293.344 209.718 276.353 204.941L266.331 173.913C266.113 173.257 266.04 172.562 266.115 171.876L266.755 166.008C267.004 163.726 264.293 161.36 266.579 161.155Z" fill="#628927"/>
<path d="M295.503 159.888C295.503 159.888 307.306 167.889 311.277 191.093H298.738L295.503 159.888Z" fill="#628927"/>
<path d="M238.743 193.439L234.297 191.29C233.447 190.879 232.447 190.918 231.631 191.395L228.013 193.509C226.854 194.187 226.103 195.393 226.005 196.732L225.808 199.434H227.656L229.151 196.352C229.151 196.352 230.946 199.434 237.924 199.434L238.743 193.439Z" fill="#BA4814"/>
<path d="M256.185 188.68L239.248 190.33C239.248 190.33 234.259 196.719 236.673 199.435H258.048L256.185 188.68Z" fill="#628927"/>
<path d="M260.694 165.258L251.769 191.555C250.122 195.111 254.14 199.208 258.052 199.435C258.459 199.458 258.862 199.437 259.254 199.385C261.45 199.09 263.341 197.683 264.459 195.771L273.126 171.962C275.842 166.296 273.118 161.862 268.006 161.213C264.948 160.824 261.989 162.46 260.694 165.258Z" fill="#628927"/>
<path d="M269.189 182.769L272.044 174.924" stroke="#442D04" stroke-width="0.4132" stroke-miterlimit="10" stroke-linecap="round" stroke-linejoin="round"/>
<path d="M291.672 251.33H295.608V227.971H291.672V251.33Z" fill="white"/>
<path d="M289.633 271.888H297.507V247.539H289.633V271.888Z" fill="#303030"/>
<path d="M277.063 273.478H309.943V270.315H277.063V273.478Z" fill="white"/>
<path d="M307.354 279.805H309.943V270.315H307.354V279.805Z" fill="white"/>
<path d="M313.327 286.07C315.199 284.199 315.199 281.164 313.327 279.292C311.456 277.42 308.421 277.42 306.549 279.292C304.677 281.164 304.677 284.199 306.549 286.07C308.421 287.942 311.456 287.942 313.327 286.07Z" fill="#303030"/>
<path d="M279.648 270.315H277.059V279.805H279.648V270.315Z" fill="white"/>
<path d="M281.799 283.435C282.222 280.822 280.446 278.361 277.833 277.938C275.219 277.515 272.758 279.291 272.336 281.904C271.913 284.518 273.689 286.979 276.302 287.401C278.915 287.824 281.376 286.048 281.799 283.435Z" fill="#303030"/>
<path d="M321.657 231.111H286.195C283.688 231.111 281.886 228.306 282.596 225.508L300.145 156.332C300.616 154.476 302.081 153.202 303.745 153.202H340.249C342.756 153.202 344.558 156.007 343.848 158.804L325.256 227.981C324.785 229.837 323.32 231.111 321.657 231.111Z" fill="#303030"/>
<path d="M318.765 231.111H257.797C255.258 231.111 253.199 229.053 253.199 226.514C253.199 223.974 255.258 221.916 257.797 221.916H320.052C322.591 221.916 323.362 223.974 323.362 226.514C323.362 229.053 321.304 231.111 318.765 231.111Z" fill="#303030"/>
<rect x="244.043" y="20" width="56" height="56" rx="8" fill="#FEF7EE"/>
<path d="M257.613 34.6799C257.545 34.5246 257.526 34.3526 257.558 34.1863C257.59 34.0199 257.671 33.867 257.79 33.7473C257.91 33.6276 258.063 33.5466 258.229 33.5149C258.396 33.4832 258.568 33.5023 258.723 33.5696L286.012 44.6558C286.178 44.7234 286.318 44.8415 286.413 44.9934C286.508 45.1454 286.553 45.3234 286.541 45.5021C286.529 45.6809 286.461 45.8514 286.347 45.9894C286.233 46.1274 286.078 46.2259 285.904 46.2709L275.46 48.9657C274.869 49.1175 274.331 49.4245 273.899 49.8549C273.468 50.2853 273.16 50.8234 273.007 51.4132L270.314 61.8615C270.269 62.0349 270.17 62.1898 270.032 62.3041C269.894 62.4183 269.724 62.4862 269.545 62.4981C269.366 62.51 269.188 62.4653 269.036 62.3703C268.884 62.2753 268.766 62.1349 268.699 61.969L257.613 34.6799Z" fill="#303030"/>
<rect x="90.0401" y="62.5" width="56" height="56" rx="8" fill="#FEF7EE"/>
<path d="M118.041 75.5469C121.213 75.547 124.255 76.8076 126.499 79.0508C128.742 81.2942 130.002 84.3371 130.002 87.5098C130.002 94.9758 121.72 102.752 118.939 105.153C118.68 105.348 118.365 105.453 118.041 105.453C117.716 105.453 117.4 105.348 117.141 105.153C114.36 102.752 106.078 94.9758 106.078 87.5098C106.078 84.3371 107.338 81.2942 109.582 79.0508C111.825 76.8074 114.868 75.5469 118.041 75.5469ZM118.039 83.0234C115.561 83.0235 113.553 85.0323 113.553 87.5098C113.553 89.9872 115.561 91.995 118.039 91.9951C120.516 91.9951 122.525 89.9872 122.525 87.5098C122.525 85.0322 120.516 83.0234 118.039 83.0234Z" fill="#303030"/>
<defs>
<filter id="filter0_n_487_393" x="80.0039" y="142.892" width="0.629959" height="2.78406" filterUnits="userSpaceOnUse" color-interpolation-filters="sRGB">
<feFlood flood-opacity="0" result="BackgroundImageFix"/>
<feBlend mode="normal" in="SourceGraphic" in2="BackgroundImageFix" result="shape"/>
<feTurbulence type="fractalNoise" baseFrequency="2.093630313873291 2.093630313873291" stitchTiles="stitch" numOctaves="3" result="noise" seed="9343" />
<feColorMatrix in="noise" type="luminanceToAlpha" result="alphaNoise" />
<feComponentTransfer in="alphaNoise" result="coloredNoise1">
<feFuncA type="discrete" tableValues="0 0 0 0 0 0 0 0 0 0 0 0 1 1 1 1 1 1 1 1 1 1 1 1 1 1 1 1 1 1 1 1 1 1 1 1 1 1 0 0 0 0 0 0 0 0 0 0 0 0 0 0 0 0 0 0 0 0 0 0 0 0 0 0 0 0 0 0 0 0 0 0 0 0 0 0 0 0 0 0 0 0 0 0 0 0 0 0 0 0 0 0 0 0 0 0 0 0 0 0 "/>
</feComponentTransfer>
<feComposite operator="in" in2="shape" in="coloredNoise1" result="noise1Clipped" />
<feFlood flood-color="rgba(0, 0, 0, 0.15)" result="color1Flood" />
<feComposite operator="in" in2="noise1Clipped" in="color1Flood" result="color1" />
<feMerge result="effect1_noise_487_393">
<feMergeNode in="shape" />
<feMergeNode in="color1" />
</feMerge>
</filter>
<filter id="filter1_n_487_393" x="78.7765" y="147.01" width="3.21391" height="1.078" filterUnits="userSpaceOnUse" color-interpolation-filters="sRGB">
<feFlood flood-opacity="0" result="BackgroundImageFix"/>
<feBlend mode="normal" in="SourceGraphic" in2="BackgroundImageFix" result="shape"/>
<feTurbulence type="fractalNoise" baseFrequency="2.093630313873291 2.093630313873291" stitchTiles="stitch" numOctaves="3" result="noise" seed="9343" />
<feColorMatrix in="noise" type="luminanceToAlpha" result="alphaNoise" />
<feComponentTransfer in="alphaNoise" result="coloredNoise1">
<feFuncA type="discrete" tableValues="0 0 0 0 0 0 0 0 0 0 0 0 1 1 1 1 1 1 1 1 1 1 1 1 1 1 1 1 1 1 1 1 1 1 1 1 1 1 0 0 0 0 0 0 0 0 0 0 0 0 0 0 0 0 0 0 0 0 0 0 0 0 0 0 0 0 0 0 0 0 0 0 0 0 0 0 0 0 0 0 0 0 0 0 0 0 0 0 0 0 0 0 0 0 0 0 0 0 0 0 "/>
</feComponentTransfer>
<feComposite operator="in" in2="shape" in="coloredNoise1" result="noise1Clipped" />
<feFlood flood-color="rgba(0, 0, 0, 0.15)" result="color1Flood" />
<feComposite operator="in" in2="noise1Clipped" in="color1Flood" result="color1" />
<feMerge result="effect1_noise_487_393">
<feMergeNode in="shape" />
<feMergeNode in="color1" />
</feMerge>
</filter>
<filter id="filter2_n_487_393" x="75.0889" y="142.467" width="3.60387" height="1.19873" filterUnits="userSpaceOnUse" color-interpolation-filters="sRGB">
<feFlood flood-opacity="0" result="BackgroundImageFix"/>
<feBlend mode="normal" in="SourceGraphic" in2="BackgroundImageFix" result="shape"/>
<feTurbulence type="fractalNoise" baseFrequency="2.093630313873291 2.093630313873291" stitchTiles="stitch" numOctaves="3" result="noise" seed="9343" />
<feColorMatrix in="noise" type="luminanceToAlpha" result="alphaNoise" />
<feComponentTransfer in="alphaNoise" result="coloredNoise1">
<feFuncA type="discrete" tableValues="0 0 0 0 0 0 0 0 0 0 0 0 1 1 1 1 1 1 1 1 1 1 1 1 1 1 1 1 1 1 1 1 1 1 1 1 1 1 0 0 0 0 0 0 0 0 0 0 0 0 0 0 0 0 0 0 0 0 0 0 0 0 0 0 0 0 0 0 0 0 0 0 0 0 0 0 0 0 0 0 0 0 0 0 0 0 0 0 0 0 0 0 0 0 0 0 0 0 0 0 "/>
</feComponentTransfer>
<feComposite operator="in" in2="shape" in="coloredNoise1" result="noise1Clipped" />
<feFlood flood-color="rgba(0, 0, 0, 0.15)" result="color1Flood" />
<feComposite operator="in" in2="noise1Clipped" in="color1Flood" result="color1" />
<feMerge result="effect1_noise_487_393">
<feMergeNode in="shape" />
<feMergeNode in="color1" />
</feMerge>
</filter>
<filter id="filter3_n_487_393" x="82.5987" y="142.203" width="3.60387" height="1.19873" filterUnits="userSpaceOnUse" color-interpolation-filters="sRGB">
<feFlood flood-opacity="0" result="BackgroundImageFix"/>
<feBlend mode="normal" in="SourceGraphic" in2="BackgroundImageFix" result="shape"/>
<feTurbulence type="fractalNoise" baseFrequency="2.093630313873291 2.093630313873291" stitchTiles="stitch" numOctaves="3" result="noise" seed="9343" />
<feColorMatrix in="noise" type="luminanceToAlpha" result="alphaNoise" />
<feComponentTransfer in="alphaNoise" result="coloredNoise1">
<feFuncA type="discrete" tableValues="0 0 0 0 0 0 0 0 0 0 0 0 1 1 1 1 1 1 1 1 1 1 1 1 1 1 1 1 1 1 1 1 1 1 1 1 1 1 0 0 0 0 0 0 0 0 0 0 0 0 0 0 0 0 0 0 0 0 0 0 0 0 0 0 0 0 0 0 0 0 0 0 0 0 0 0 0 0 0 0 0 0 0 0 0 0 0 0 0 0 0 0 0 0 0 0 0 0 0 0 "/>
</feComponentTransfer>
<feComposite operator="in" in2="shape" in="coloredNoise1" result="noise1Clipped" />
<feFlood flood-color="rgba(0, 0, 0, 0.15)" result="color1Flood" />
<feComposite operator="in" in2="noise1Clipped" in="color1Flood" result="color1" />
<feMerge result="effect1_noise_487_393">
<feMergeNode in="shape" />
<feMergeNode in="color1" />
</feMerge>
</filter>
</defs>
</svg>
