<svg width="363" height="300" viewBox="0 0 363 300" fill="none" xmlns="http://www.w3.org/2000/svg">
<g clip-path="url(#clip0_487_592)">
<rect x="-0.150391" y="24" width="362.15" height="263" rx="20" fill="#F7BD7A"/>
<path d="M240.621 80.5613C241.342 79.9182 242.057 79.2698 243.5 79.2698C246.361 79.2698 246.361 81.8203 249.221 81.8203C252.082 81.8203 252.082 79.2698 254.942 79.2698C256.795 79.2698 257.448 80.3398 258.455 81.0937V112H233.953C233.953 99.8306 236.487 88.7698 240.621 80.5613Z" fill="#74530F"/>
<path d="M260.663 81.8203C263.523 81.8203 263.523 79.2698 266.383 79.2698C269.243 79.2698 269.243 81.8203 272.103 81.8203C274.123 81.8203 274.717 80.5494 275.898 79.8018C280.263 88.0811 282.958 99.451 282.958 112H258.456V81.0937C259.003 81.5038 259.655 81.8203 260.663 81.8203Z" fill="#89670A"/>
<path d="M266.383 79.2698C263.523 79.2698 263.523 81.8203 260.663 81.8203C259.655 81.8203 259.003 81.5034 258.456 81.0937V66.1484C265.282 66.1484 271.455 71.3739 275.898 79.8018C274.717 80.5494 274.123 81.8203 272.103 81.8203C269.243 81.8203 269.243 79.2698 266.383 79.2698Z" fill="#FDEED7"/>
<path d="M254.942 79.2698C252.082 79.2698 252.082 81.8203 249.221 81.8203C246.36 81.8203 246.36 79.2698 243.5 79.2698C242.058 79.2698 241.342 79.9182 240.621 80.5613C245.089 71.689 251.426 66.1488 258.455 66.1488V81.0941C257.448 80.3398 256.795 79.2698 254.942 79.2698Z" fill="#FEF7EE"/>
<path d="M217.744 66.0896C218.249 65.6396 218.749 65.1857 219.759 65.1857C221.762 65.1857 221.762 66.9711 223.764 66.9711C225.766 66.9711 225.766 65.1857 227.769 65.1857C229.066 65.1857 229.523 65.9347 230.228 66.4625V111.849H210.78C210.78 103.329 214.85 71.8359 217.744 66.0896Z" fill="#74530F"/>
<path d="M231.773 66.9707C233.776 66.9707 233.776 65.1853 235.778 65.1853C237.78 65.1853 237.78 66.9707 239.782 66.9707C241.195 66.9707 241.611 66.0812 242.438 65.5579C245.494 71.3536 249.931 103.064 249.931 111.849H230.228V66.4621C230.612 66.7492 231.068 66.9707 231.773 66.9707Z" fill="#89670A"/>
<path d="M235.777 65.1853C233.775 65.1853 233.775 66.9707 231.773 66.9707C231.068 66.9707 230.611 66.7488 230.228 66.4621V56C235.006 56 239.328 59.6581 242.438 65.5579C241.611 66.0812 241.195 66.9707 239.782 66.9707C237.78 66.9707 237.78 65.1853 235.777 65.1853Z" fill="#FDEED7"/>
<path d="M227.769 65.1853C225.767 65.1853 225.767 66.9707 223.764 66.9707C221.761 66.9707 221.761 65.1853 219.759 65.1853C218.749 65.1853 218.249 65.6392 217.744 66.0892C220.872 59.8782 225.308 56 230.228 56V66.4621C229.523 65.9343 229.066 65.1853 227.769 65.1853Z" fill="#FEF7EE"/>
<path d="M218.429 101.953C217.078 101.953 217.078 103.359 215.727 103.359C215.251 103.359 214.943 103.185 214.685 102.959V94.719C217.909 94.719 220.825 97.6 222.924 102.246C222.366 102.659 222.085 103.359 221.131 103.359C219.78 103.359 219.78 101.953 218.429 101.953Z" fill="#FDEED7"/>
<path d="M213.025 101.953C211.674 101.953 211.674 103.359 210.323 103.359C208.972 103.359 208.972 101.953 207.621 101.953C206.939 101.953 206.601 102.311 206.261 102.665C208.371 97.7735 211.364 94.719 214.685 94.719V102.959C214.209 102.543 213.901 101.953 213.025 101.953Z" fill="#FEF7EE"/>
<path d="M203.729 111.849C204.268 108.39 205.139 105.267 206.262 102.665C206.602 102.311 206.94 101.953 207.621 101.953C208.973 101.953 208.973 103.359 210.324 103.359C211.675 103.359 211.675 101.953 213.026 101.953C213.902 101.953 214.21 102.543 214.686 102.959V111.849H203.729Z" fill="#74530F"/>
<path d="M330.354 30.9861L330.354 15.9861L300.354 15.9861L300.354 30.9861L315.354 30.9861L330.354 30.9861ZM257.048 126.328L257.048 141.328L257.048 126.328ZM275.354 126.328L275.354 111.328L275.354 126.328ZM315.354 86.3281L330.354 86.3281L330.354 30.9861L315.354 30.9861L300.354 30.9861L300.354 86.3281L315.354 86.3281ZM114.113 166.328L99.1133 166.328L99.1133 172.46L114.113 172.46L129.113 172.46L129.113 166.328L114.113 166.328ZM154.113 212.46L154.113 227.46L203.128 227.46L203.128 212.46L203.128 197.46L154.113 197.46L154.113 212.46ZM241.408 264.062L227.053 259.711L208.874 319.691L223.229 324.042L237.584 328.393L255.763 268.413L241.408 264.062ZM275.354 126.328L275.354 111.328L257.048 111.328L257.048 126.328L257.048 141.328L275.354 141.328L275.354 126.328ZM257.048 126.328L257.048 111.328L154.113 111.328L154.113 126.328L154.113 141.328L257.048 141.328L257.048 126.328ZM203.128 212.46L203.128 227.46C219.904 227.46 231.919 243.656 227.053 259.711L241.408 264.062L255.763 268.413C266.468 233.092 240.035 197.46 203.128 197.46L203.128 212.46ZM114.113 172.46L99.1133 172.46C99.1133 202.835 123.738 227.46 154.113 227.46L154.113 212.46L154.113 197.46C140.306 197.46 129.113 186.267 129.113 172.46L114.113 172.46ZM114.113 166.328L129.113 166.328C129.113 152.521 140.306 141.328 154.113 141.328L154.113 126.328L154.113 111.328C123.738 111.328 99.1133 135.952 99.1133 166.328L114.113 166.328ZM315.354 86.3281L300.354 86.3281C300.354 100.135 289.161 111.328 275.354 111.328L275.354 126.328L275.354 141.328C305.729 141.328 330.354 116.704 330.354 86.3281L315.354 86.3281Z" fill="#E06016"/>
<path d="M267.626 101.096C267.626 101.066 267.625 101.037 267.623 101.015L267.618 100.943L267.617 100.925L267.616 100.921C267.616 100.904 267.616 100.915 267.616 100.91L267.616 100.908L267.614 100.899L267.609 100.864C267.603 100.816 267.597 100.769 267.59 100.723C267.539 100.349 267.491 100 267.45 99.7012C267.369 99.1034 267.314 98.7049 267.314 98.7049C267.314 98.7049 267.259 99.1034 267.178 99.7012C267.137 99.9999 267.089 100.349 267.038 100.723C267.032 100.769 267.025 100.817 267.019 100.864L267.014 100.899L267.013 100.908L267.012 100.91C267.012 100.908 267.012 100.92 267.012 100.905L267.011 100.909L267.009 100.927L267 100.999C266.998 101.025 266.994 101.044 266.99 101.063L266.978 101.12C266.968 101.161 266.958 101.203 266.948 101.244C266.902 101.409 266.836 101.57 266.756 101.722C266.593 102.025 266.365 102.283 266.122 102.47C265.878 102.656 265.623 102.771 265.402 102.829C265.291 102.857 265.189 102.876 265.098 102.884C265.078 102.886 265.059 102.887 265.04 102.888V101.334H264.065V103.748C264.044 103.744 264.023 103.741 264.001 103.737C263.886 103.724 263.759 103.691 263.62 103.648C263.553 103.62 263.479 103.597 263.407 103.563C263.372 103.545 263.335 103.526 263.298 103.507C263.261 103.489 263.222 103.47 263.188 103.445C263.116 103.397 263.036 103.354 262.967 103.294C262.93 103.265 262.893 103.237 262.856 103.208C262.821 103.175 262.787 103.142 262.751 103.108C262.677 103.045 262.617 102.965 262.548 102.89C262.513 102.853 262.487 102.809 262.456 102.768C262.427 102.725 262.391 102.686 262.367 102.64C262.314 102.55 262.256 102.46 262.214 102.361C262.163 102.266 262.13 102.165 262.092 102.063C262.071 102.011 262.065 101.965 262.05 101.916C262.037 101.865 262.019 101.824 262.013 101.758C262.004 101.697 261.996 101.637 261.987 101.576L261.984 101.553L261.983 101.548C261.983 101.543 261.984 101.575 261.983 101.56L261.983 101.557L261.982 101.546L261.978 101.5L261.97 101.41C261.948 101.168 261.926 100.93 261.906 100.699C261.864 100.238 261.825 99.8084 261.792 99.4397C261.726 98.7025 261.681 98.2112 261.681 98.2112C261.681 98.2112 261.637 98.7025 261.57 99.4397C261.537 99.8084 261.498 100.238 261.457 100.699C261.436 100.929 261.414 101.167 261.393 101.41L261.385 101.5L261.38 101.546L261.379 101.557L261.379 101.56C261.379 101.547 261.379 101.581 261.379 101.578L261.379 101.584L261.378 101.607C261.376 101.668 261.373 101.73 261.371 101.791C261.366 101.848 261.374 101.927 261.378 101.998C261.385 102.069 261.386 102.147 261.399 102.214C261.422 102.35 261.442 102.489 261.483 102.622C261.515 102.758 261.565 102.886 261.614 103.016C261.636 103.082 261.67 103.141 261.698 103.204C261.729 103.265 261.755 103.33 261.79 103.388C261.861 103.504 261.925 103.625 262.007 103.73C262.047 103.785 262.086 103.838 262.125 103.892C262.169 103.942 262.212 103.991 262.255 104.04C262.338 104.141 262.435 104.225 262.527 104.312C262.571 104.356 262.621 104.394 262.669 104.431C262.718 104.469 262.766 104.506 262.814 104.542C262.91 104.613 263.012 104.67 263.107 104.73C263.304 104.837 263.493 104.925 263.67 104.982C263.713 104.997 263.756 105.012 263.797 105.027C263.838 105.039 263.879 105.048 263.918 105.058C263.97 105.07 264.018 105.081 264.065 105.093V112H265.04V104.243C265.085 104.234 265.134 104.223 265.186 104.212C265.25 104.195 265.32 104.177 265.393 104.154C265.539 104.109 265.699 104.044 265.865 103.962C266.198 103.797 266.547 103.538 266.839 103.202C267.13 102.866 267.363 102.455 267.495 102.017C267.561 101.798 267.603 101.572 267.619 101.35C267.623 101.294 267.625 101.239 267.626 101.183L267.626 101.096Z" fill="#303030"/>
<path d="M264.4 91.6952C260.923 91.6952 258.104 94.8109 258.104 98.6542C258.104 99.5098 258.104 98.8231 258.104 99.7373L259.153 99.0347L260.203 99.7373L261.252 99.0347L262.301 99.7373L263.351 99.0347L264.4 99.7373L265.449 99.0347L266.498 99.7373L267.547 99.0347L268.597 99.7373L269.646 99.0347L270.695 99.7373C270.695 98.8536 270.695 99.5586 270.695 98.6542C270.696 94.8109 267.877 91.6952 264.4 91.6952Z" fill="#7FAC36"/>
<path d="M254.959 103.347C251.482 103.347 248.664 106.462 248.664 110.306C248.664 111.161 248.664 110.475 248.664 111.389L249.713 110.686L250.762 111.389L251.812 110.686L252.861 111.389L253.91 110.686L254.959 111.389L256.009 110.686L257.058 111.389L258.107 110.686L259.156 111.389L260.205 110.686L261.255 111.389C261.255 110.505 261.255 111.21 261.255 110.306C261.255 106.462 258.437 103.347 254.959 103.347Z" fill="#36481F"/>
<path d="M269.648 99.0347L268.599 99.7373L267.55 99.0347L266.5 99.7373L265.451 99.0347L264.402 99.7373L263.353 99.0347L262.303 99.7373L261.254 99.0347L260.205 99.7373L259.155 99.0347L258.106 99.7373C258.106 101.268 258.106 102.565 258.106 102.565L259.155 101.862L260.205 102.565L261.254 101.862L262.303 102.565L263.353 101.862L264.402 102.565L265.451 101.862L266.5 102.565L267.55 101.862L268.599 102.565L269.648 101.862L270.697 102.565C270.697 102.565 270.697 101.302 270.697 99.7373L269.648 99.0347Z" fill="#36481F"/>
<path d="M299.267 219.813H254.959V291.838H299.267V219.813Z" fill="#943A18"/>
<path d="M281.823 279.45C279.597 279.45 277.793 280.647 277.793 282.125V291.538H285.852V282.125C285.852 280.647 284.048 279.45 281.823 279.45Z" fill="#442D04"/>
<path d="M264.893 281.597H259.083V287.979H264.893V281.597Z" fill="#F7BD7A"/>
<path d="M264.893 270.391H259.083V276.773H264.893V270.391Z" fill="#F7BD7A"/>
<path d="M264.893 259.185H259.083V265.567H264.893V259.185Z" fill="#F7BD7A"/>
<path d="M264.893 247.979H259.083V254.361H264.893V247.979Z" fill="#F7BD7A"/>
<path d="M264.893 236.773H259.083V243.155H264.893V236.773Z" fill="#F7BD7A"/>
<path d="M264.893 225.567H259.083V231.948H264.893V225.567Z" fill="#F7BD7A"/>
<path d="M274.899 281.597H269.088V287.979H274.899V281.597Z" fill="#F7BD7A"/>
<path d="M274.899 270.391H269.088V276.773H274.899V270.391Z" fill="#F7BD7A"/>
<path d="M274.899 259.185H269.088V265.567H274.899V259.185Z" fill="#F7BD7A"/>
<path d="M274.899 247.979H269.088V254.361H274.899V247.979Z" fill="#F7BD7A"/>
<path d="M274.899 236.773H269.088V243.155H274.899V236.773Z" fill="#F7BD7A"/>
<path d="M274.899 225.567H269.088V231.948H274.899V225.567Z" fill="#F7BD7A"/>
<path d="M284.903 270.391H279.092V276.773H284.903V270.391Z" fill="#F7BD7A"/>
<path d="M284.903 259.185H279.092V265.567H284.903V259.185Z" fill="#F7BD7A"/>
<path d="M284.903 247.979H279.092V254.361H284.903V247.979Z" fill="#F7BD7A"/>
<path d="M284.903 236.773H279.092V243.155H284.903V236.773Z" fill="#F7BD7A"/>
<path d="M284.903 225.567H279.092V231.948H284.903V225.567Z" fill="#F7BD7A"/>
<path d="M294.905 281.597H289.094V287.979H294.905V281.597Z" fill="#F7BD7A"/>
<path d="M294.905 270.391H289.094V276.773H294.905V270.391Z" fill="#F7BD7A"/>
<path d="M294.905 259.185H289.094V265.567H294.905V259.185Z" fill="#F7BD7A"/>
<path d="M294.905 247.979H289.094V254.361H294.905V247.979Z" fill="#F7BD7A"/>
<path d="M294.905 236.773H289.094V243.155H294.905V236.773Z" fill="#F7BD7A"/>
<path d="M294.905 225.567H289.094V231.948H294.905V225.567Z" fill="#F7BD7A"/>
<path d="M344.527 231.823H299.267V291.431H344.527V231.823Z" fill="#BA4814"/>
<path d="M326.821 279.45C324.966 279.45 323.462 280.647 323.462 282.125V291.538H330.178V282.125C330.178 280.648 328.675 279.45 326.821 279.45Z" fill="#1A270C"/>
<path d="M309.83 280.674H304.02V287.056H309.83V280.674Z" fill="#F7BD7A"/>
<path d="M309.83 269.468H304.02V275.849H309.83V269.468Z" fill="#F7BD7A"/>
<path d="M309.83 258.261H304.02V264.643H309.83V258.261Z" fill="#F7BD7A"/>
<path d="M309.83 247.056H304.02V253.437H309.83V247.056Z" fill="#F7BD7A"/>
<path d="M309.83 235.849H304.02V242.231H309.83V235.849Z" fill="#F7BD7A"/>
<path d="M319.834 280.674H314.024V287.056H319.834V280.674Z" fill="#F7BD7A"/>
<path d="M319.834 269.468H314.024V275.849H319.834V269.468Z" fill="#F7BD7A"/>
<path d="M319.834 258.261H314.024V264.643H319.834V258.261Z" fill="#F7BD7A"/>
<path d="M319.834 247.056H314.024V253.437H319.834V247.056Z" fill="#F7BD7A"/>
<path d="M319.834 235.849H314.024V242.231H319.834V235.849Z" fill="#F7BD7A"/>
<path d="M329.84 269.468H324.029V275.849H329.84V269.468Z" fill="#F7BD7A"/>
<path d="M329.84 258.261H324.029V264.643H329.84V258.261Z" fill="#F7BD7A"/>
<path d="M329.84 247.056H324.029V253.437H329.84V247.056Z" fill="#F7BD7A"/>
<path d="M329.84 235.849H324.029V242.231H329.84V235.849Z" fill="#F7BD7A"/>
<path d="M339.842 280.674H334.031V287.056H339.842V280.674Z" fill="#F7BD7A"/>
<path d="M339.842 269.468H334.031V275.849H339.842V269.468Z" fill="#F7BD7A"/>
<path d="M339.842 258.261H334.031V264.643H339.842V258.261Z" fill="#F7BD7A"/>
<path d="M339.842 247.056H334.031V253.437H339.842V247.056Z" fill="#F7BD7A"/>
<path d="M339.842 235.85H334.031V242.231H339.842V235.85Z" fill="#F7BD7A"/>
<path d="M299.266 208.801H264.893L254.958 219.813H299.266V208.801Z" fill="#442D04"/>
<path d="M335.455 220.937H299.265V231.949H344.524L335.455 220.937Z" fill="#40170A"/>
<path d="M308.124 214.307H305.723V226.182H308.124V214.307Z" fill="#888888"/>
<path d="M311.711 216.873H309.829V226.182H311.711V216.873Z" fill="#888888"/>
<path d="M271.397 200.202H268.996V212.077H271.397V200.202Z" fill="#888888"/>
<path d="M274.986 202.768H273.104V212.077H274.986V202.768Z" fill="#888888"/>
<path d="M126.63 108.514H145.655" stroke="#F7BD7A" stroke-width="2" stroke-miterlimit="10"/>
<path d="M212.835 215.965H210.929V236.087H212.835V215.965Z" fill="#454545"/>
<path d="M211.883 202.718L204.917 214.774H218.849L211.883 202.718Z" fill="#F7BD7A"/>
<path d="M218.85 215.965H204.918C204.492 215.965 204.098 215.738 203.886 215.37C203.673 215.001 203.673 214.547 203.886 214.179L210.852 202.123C211.065 201.755 211.458 201.528 211.884 201.528C212.309 201.528 212.702 201.755 212.915 202.123L219.882 214.179C220.094 214.547 220.094 215.001 219.882 215.37C219.669 215.738 219.276 215.965 218.85 215.965ZM206.982 213.583H216.786L211.884 205.099L206.982 213.583Z" fill="#BF1A16"/>
<path d="M210.8 260.902H156.654V290.796H210.8V260.902Z" fill="#FCFFE7"/>
<path d="M183.793 270.463C181.152 270.463 179.012 272.476 179.012 274.959V290.779H188.573V274.959C188.573 272.476 186.432 270.463 183.793 270.463Z" fill="#442D04"/>
<path d="M174.331 270.917H166.705V279.291H174.331V270.917Z" fill="#F7BD7A"/>
<path d="M200.582 270.917H192.957V279.291H200.582V270.917Z" fill="#F7BD7A"/>
<path d="M152.721 262.183L214.48 262.551" stroke="#9E1916" stroke-width="7" stroke-miterlimit="10"/>
<path d="M201.328 97H164.128V148H201.328V97Z" fill="#FEF7EE"/>
<path d="M186.328 139C184.671 139 183.328 139.892 183.328 140.992V148H189.328V140.992C189.329 139.892 187.985 139 186.328 139Z" fill="#442D04"/>
<path d="M172.475 140.257H167.593V144.725H172.475V140.257Z" fill="#0F80BA"/>
<path d="M172.475 132.411H167.593V136.879H172.475V132.411Z" fill="#0F80BA"/>
<path d="M172.475 124.565H167.593V129.034H172.475V124.565Z" fill="#0F80BA"/>
<path d="M172.475 116.72H167.593V121.188H172.475V116.72Z" fill="#0F80BA"/>
<path d="M172.475 108.874H167.593V113.342H172.475V108.874Z" fill="#0F80BA"/>
<path d="M172.475 101.028H167.593V105.496H172.475V101.028Z" fill="#0F80BA"/>
<path d="M180.878 140.257H175.996V144.725H180.878V140.257Z" fill="#0F80BA"/>
<path d="M180.878 132.411H175.996V136.879H180.878V132.411Z" fill="#0F80BA"/>
<path d="M180.878 124.565H175.996V129.034H180.878V124.565Z" fill="#0F80BA"/>
<path d="M180.878 116.72H175.996V121.188H180.878V116.72Z" fill="#0F80BA"/>
<path d="M180.878 108.874H175.996V113.342H180.878V108.874Z" fill="#0F80BA"/>
<path d="M180.878 101.028H175.996V105.496H180.878V101.028Z" fill="#0F80BA"/>
<path d="M189.283 132.411H184.401V136.879H189.283V132.411Z" fill="#0F80BA"/>
<path d="M189.283 124.565H184.401V129.034H189.283V124.565Z" fill="#0F80BA"/>
<path d="M189.283 116.72H184.401V121.188H189.283V116.72Z" fill="#0F80BA"/>
<path d="M189.283 108.874H184.401V113.342H189.283V108.874Z" fill="#0F80BA"/>
<path d="M189.283 101.028H184.401V105.496H189.283V101.028Z" fill="#0F80BA"/>
<path d="M197.688 140.257H192.806V144.725H197.688V140.257Z" fill="#0F80BA"/>
<path d="M197.688 132.411H192.806V136.879H197.688V132.411Z" fill="#0F80BA"/>
<path d="M197.688 124.565H192.806V129.034H197.688V124.565Z" fill="#0F80BA"/>
<path d="M197.688 116.72H192.806V121.188H197.688V116.72Z" fill="#0F80BA"/>
<path d="M197.688 108.874H192.806V113.342H197.688V108.874Z" fill="#0F80BA"/>
<path d="M197.688 101.028H192.806V105.496H197.688V101.028Z" fill="#0F80BA"/>
<path d="M199.831 84H165.85L161.729 98H203.729L199.831 84Z" fill="#442D04"/>
<path d="M184.061 87.64C184.061 87.416 184.061 87.304 184.017 87.2184C183.979 87.1431 183.918 87.0819 183.842 87.0436C183.757 87 183.645 87 183.421 87H182.036C181.812 87 181.7 87 181.615 87.0436C181.539 87.0819 181.478 87.1431 181.44 87.2184C181.396 87.304 181.396 87.416 181.396 87.64V89.028C181.396 89.252 181.396 89.364 181.353 89.4496C181.314 89.5248 181.253 89.586 181.178 89.6244C181.092 89.668 180.98 89.668 180.756 89.668H179.369C179.144 89.668 179.032 89.668 178.947 89.7116C178.872 89.7499 178.81 89.8111 178.772 89.8864C178.729 89.9719 178.729 90.084 178.729 90.308V91.6924C178.729 91.9164 178.729 92.0284 178.772 92.114C178.81 92.1892 178.872 92.2504 178.947 92.2888C179.032 92.3324 179.144 92.3324 179.369 92.3324H180.756C180.98 92.3324 181.092 92.3324 181.178 92.376C181.253 92.4143 181.314 92.4755 181.353 92.5508C181.396 92.6364 181.396 92.7484 181.396 92.9724V94.36C181.396 94.584 181.396 94.696 181.44 94.7816C181.478 94.8569 181.539 94.9181 181.615 94.9564C181.7 95 181.812 95 182.036 95H183.421C183.645 95 183.757 95 183.842 94.9564C183.918 94.9181 183.979 94.8569 184.017 94.7816C184.061 94.696 184.061 94.584 184.061 94.36V92.9724C184.061 92.7484 184.061 92.6364 184.104 92.5508C184.143 92.4755 184.204 92.4143 184.279 92.376C184.365 92.3324 184.477 92.3324 184.701 92.3324H186.089C186.313 92.3324 186.425 92.3324 186.51 92.2888C186.585 92.2504 186.647 92.1892 186.685 92.114C186.729 92.0284 186.729 91.9164 186.729 91.6924V90.308C186.729 90.084 186.729 89.9719 186.685 89.8864C186.647 89.8111 186.585 89.7499 186.51 89.7116C186.425 89.668 186.313 89.668 186.089 89.668H184.701C184.477 89.668 184.365 89.668 184.279 89.6244C184.204 89.586 184.143 89.5248 184.104 89.4496C184.061 89.364 184.061 89.252 184.061 89.028V87.64Z" fill="#E42B27"/>
<path d="M159.224 210.105L140.351 202.188L122.399 210.105V230.436H159.224V210.105Z" fill="#FEF7EE"/>
<path d="M140.825 218.967C138.615 218.967 136.824 220.156 136.824 221.623V230.97H144.826V221.623C144.825 220.156 143.034 218.967 140.825 218.967Z" fill="#303030"/>
<path d="M135.342 213.632H130.156V219.328H135.342V213.632Z" fill="#F7BD7A"/>
<path d="M151.866 213.632H146.68V219.328H151.866V213.632Z" fill="#F7BD7A"/>
<path d="M119.726 210.976L140.813 200.019L161.728 211.227" stroke="#9E1916" stroke-width="6" stroke-miterlimit="10"/>
<path d="M141.271 131.112H142.81V147.36H141.271V131.112Z" fill="#454545"/>
<path d="M143.238 122.74L151.61 131.112H146.339L137.967 122.74H143.238Z" fill="#F7BD7A"/>
<path d="M148.507 122.74L153.674 127.907V131.112H151.607L143.236 122.74H148.507Z" fill="#454545"/>
<path d="M153.674 122.74V127.907L148.507 122.74H153.674Z" fill="#F7BD7A"/>
<path d="M137.961 122.74L146.333 131.112H141.062L132.69 122.74H137.961Z" fill="#454545"/>
<path d="M135.793 131.112H130.405V125.724L135.793 131.112Z" fill="#454545"/>
<path d="M130.407 122.74H132.694L141.067 131.112H135.795L130.407 125.724V122.74Z" fill="#F7BD7A"/>
<path d="M116.22 111.304H114.834V125.931H116.22V111.304Z" fill="#454545"/>
<path d="M121.313 106.384L116.262 101.333C116.067 101.138 115.803 101.028 115.527 101.028C115.251 101.028 114.987 101.138 114.792 101.332L109.741 106.384C109.546 106.579 109.436 106.843 109.436 107.119C109.436 107.394 109.546 107.659 109.741 107.853L114.792 112.905C114.987 113.1 115.251 113.209 115.527 113.209C115.803 113.209 116.067 113.1 116.262 112.905L121.313 107.853C121.719 107.448 121.719 106.79 121.313 106.384Z" fill="#E42B27"/>
<path d="M17.1709 214.387C17.1709 214.387 15.8854 224.18 30.407 234.123C31.3648 234.346 54.554 255.956 58.8631 259.557C61.8904 262.087 66.9589 258.046 69.7647 255.273C72.8776 252.195 72.9935 247.205 70.0267 243.986L35.6381 205.676L17.1709 214.387Z" fill="#36481F"/>
<path d="M43.9691 305.98L51.0348 280.705L60.5376 283.895L52.7073 308.393L43.9691 305.98Z" fill="#F1F9FE"/>
<path d="M71.9649 251.346L60.4706 295.622L44.2631 291.529L55.4585 243.77L71.9649 251.346Z" fill="#36481F"/>
<path d="M43.9096 258.77L46.1477 302.331L31.2052 304.513L25.3649 257.797L43.9096 258.77Z" fill="#36481F"/>
<path d="M10.8696 210.615C10.8696 210.615 4.41351 219.476 12.4442 235.137C17.3707 244.745 26.1029 263.384 26.1029 263.384C27.8447 266.924 31.8739 268.697 35.6621 267.596C39.8656 266.373 44.8377 262.04 43.7625 257.797L29.0983 209.757L10.8696 210.615Z" fill="#36481F"/>
<path d="M38.7768 241.477L33.9651 225.72" stroke="#303030" stroke-width="0.5344" stroke-miterlimit="10" stroke-linecap="round" stroke-linejoin="round"/>
<path d="M35.8139 163.952C35.8139 163.952 46.6098 166.01 45.5736 181.508L32.6174 187.322L35.8139 163.952Z" fill="#BF1A16"/>
<path d="M24.1236 161.828C20.7492 162.281 15.9406 163.202 12.8446 164.618C12.0863 164.964 11.3505 165.591 10.5229 167.445C9.51226 169.709 10.8028 169.429 11.2018 171.949L6.81262 217.208C6.81262 217.208 21.9003 218.812 41.4074 212.425L39.9502 171.619C40.0209 168.077 39.1 164.933 35.8143 163.951C32.1333 162.851 27.6472 161.636 25.7157 161.614L24.1236 161.828Z" fill="#BF1A16"/>
<path d="M40.0886 175.526L40.7069 187.972" stroke="#303030" stroke-width="0.4132" stroke-miterlimit="10" stroke-linecap="round" stroke-linejoin="round"/>
<path d="M17.1734 163.157C17.1734 163.157 20.5432 161.676 25.2974 161.404C25.2974 161.404 29.8655 162.109 33.4081 163.253C33.4081 163.253 36.5133 168.468 28.115 168.437C19.4936 168.405 17.1734 163.157 17.1734 163.157Z" fill="#FAD9AE"/>
<path d="M14.6575 179.201C14.6575 179.201 12.2025 193.869 8.83985 204.667C8.43529 205.967 5.58645 206.831 4.22714 206.917C2.17768 207.046 -0.955726 204.93 -0.644487 202.02L4.31637 176.566L14.6575 179.201Z" fill="#FAD9AE"/>
<path d="M16.4534 163.505C16.4534 163.505 2.16461 164.562 0.700195 182.634L16.8611 187.097L15.4043 174.088L16.4534 163.505Z" fill="#BF1A16"/>
<path d="M13.5162 186.104L14.9929 178.81" stroke="#303030" stroke-width="0.4132" stroke-miterlimit="10" stroke-linecap="round" stroke-linejoin="round"/>
<path d="M7.20984 206.142L29.1899 194.452L30.4092 189.521C30.4092 189.521 14.1371 194.501 3.75902 198.189C2.11258 198.774 0.505105 202.993 1.305 204.381L2.51561 203.4C3.26423 204.7 5.37932 207.197 7.20984 206.142Z" fill="#FAD9AE"/>
<path d="M11.7611 193.886L7.42682 195.552" stroke="#303030" stroke-width="0.4132" stroke-miterlimit="10" stroke-linecap="round" stroke-linejoin="round"/>
<path d="M25.198 191.488C25.198 191.488 22.0953 184.638 29.2601 183.343L28.1633 193.028L25.198 191.488Z" fill="#FAD9AE"/>
<path d="M24.4204 177.922L29.1455 184.322L30.0435 183.655L25.3166 177.26C25.1231 176.998 24.7474 176.957 24.502 177.171C24.2836 177.362 24.248 177.689 24.4204 177.922Z" fill="#F1F9FE"/>
<path d="M24.7186 178.327L25.6428 177.702L25.8734 178.015L24.9651 178.661L24.7186 178.327Z" fill="#706F84"/>
<mask id="mask0_487_592" style="mask-type:alpha" maskUnits="userSpaceOnUse" x="26" y="174" width="41" height="38">
<path d="M40.707 205.622C40.1698 205.281 39.5609 205.071 38.9284 205.007C38.2959 204.943 37.6572 205.027 37.0628 205.253L29.2285 208.235C28.9018 208.359 28.5489 208.398 28.2032 208.347C27.8575 208.296 27.5306 208.157 27.2536 207.944C26.9765 207.73 26.7585 207.45 26.6203 207.128C26.482 206.807 26.4282 206.455 26.4638 206.107L29.0924 180.042C29.1308 179.663 29.2738 179.302 29.5054 179C29.737 178.697 30.048 178.466 30.4036 178.33L40.152 174.62C40.7464 174.394 41.3851 174.31 42.0176 174.374C42.6501 174.438 43.259 174.648 43.7962 174.989L51.9471 180.158C52.4843 180.499 53.0933 180.71 53.7257 180.774C54.3582 180.838 54.9969 180.753 55.5913 180.527L63.4256 177.545C63.7525 177.421 64.1056 177.383 64.4514 177.434C64.7972 177.485 65.1243 177.624 65.4013 177.837C65.6784 178.051 65.8964 178.332 66.0344 178.654C66.1725 178.975 66.2261 179.327 66.1901 179.676L63.5617 205.738C63.5233 206.118 63.3803 206.478 63.1487 206.781C62.9171 207.083 62.6061 207.315 62.2506 207.45L52.5021 211.16C51.9077 211.386 51.269 211.471 50.6365 211.407C50.004 211.343 49.3951 211.132 48.8579 210.791L40.707 205.622Z" fill="#7FAC36"/>
</mask>
<g mask="url(#mask0_487_592)">
<path d="M39.9721 204.745C39.341 204.345 38.6256 204.097 37.8826 204.022C37.1395 203.947 36.3892 204.046 35.6909 204.311L26.4871 207.815C26.1033 207.961 25.6887 208.006 25.2826 207.946C24.8765 207.886 24.4925 207.723 24.167 207.472C23.8415 207.222 23.5854 206.892 23.423 206.514C23.2606 206.137 23.1973 205.724 23.2392 205.314L26.3272 174.693C26.3723 174.248 26.5404 173.824 26.8124 173.469C27.0845 173.114 27.4498 172.841 27.8676 172.683L39.3202 168.323C40.0184 168.058 40.7687 167.959 41.5118 168.034C42.2548 168.109 42.9702 168.357 43.6013 168.757L53.177 174.83C53.8082 175.23 54.5236 175.478 55.2666 175.553C56.0097 175.628 56.76 175.529 57.4582 175.263L66.6621 171.76C67.046 171.614 67.4609 171.569 67.8672 171.629C68.2734 171.689 68.6576 171.852 68.9831 172.103C69.3087 172.354 69.5647 172.684 69.7269 173.062C69.8891 173.44 69.952 173.853 69.9098 174.263L66.822 204.882C66.7768 205.327 66.6088 205.751 66.3367 206.106C66.0647 206.461 65.6993 206.733 65.2816 206.892L53.829 211.251C53.1308 211.517 52.3804 211.616 51.6374 211.541C50.8943 211.465 50.1789 211.218 49.5478 210.818L39.9721 204.745Z" fill="#7FAC36"/>
<g filter="url(#filter0_n_487_592)">
<rect width="12.2971" height="52.3038" transform="matrix(-0.994893 -0.100934 0.100115 -0.994976 62.4457 216.284)" fill="#628927"/>
</g>
<g filter="url(#filter1_n_487_592)">
<rect width="12.2971" height="52.2482" transform="matrix(-0.994893 -0.100934 0.100115 -0.994976 50.2108 215.043)" fill="#7FAC36"/>
</g>
<g filter="url(#filter2_n_487_592)">
<rect width="12.2971" height="52.1072" transform="matrix(-0.994893 -0.100934 0.100115 -0.994976 37.9779 213.802)" fill="#628927"/>
</g>
</g>
<path d="M65.3513 186.702C65.3513 186.702 62.3765 187.053 62.2224 190.623C62.0532 194.54 64.392 196.491 64.392 196.491C64.392 196.491 66.9067 195.526 67.6668 191.491C68.0512 189.451 67.4306 187.59 65.4661 185.528L65.3513 186.702Z" fill="#FAD9AE"/>
<path d="M18.3501 137.53C17.6978 144.317 24.0395 149.782 28.1359 150.101C33.8459 150.544 38.9596 146.859 39.6056 141.366C40.2517 135.872 36.1646 130.876 30.4766 130.207C24.7887 129.537 18.952 131.269 18.3501 137.53Z" fill="#442D04"/>
<path d="M25.1395 149.306L21.9502 164.484L30.2393 166.013L31.4879 152.018L25.1395 149.306Z" fill="#FAD9AE"/>
<path d="M30.8947 158.662C30.8947 158.662 25.9872 157.762 23.972 151.096L31.3249 153.84L30.8947 158.662Z" fill="#442D04"/>
<path d="M33.9863 132.201C33.9863 132.201 41.049 133.265 39.4189 142.515C37.7889 151.766 36.4029 154.113 32.4445 155.633C28.8875 156.999 24.784 154.927 22.8156 150.681C22.0423 149.013 21.5998 146.591 21.6747 144.754L21.406 142.257C21.406 142.257 19.9052 129.815 33.9863 132.201Z" fill="#FAD9AE"/>
<path d="M22.5214 135.305C22.5214 135.305 26.044 138.188 23.4346 145.916L20.3007 141.955L22.5214 135.305Z" fill="#442D04"/>
<path d="M23.3162 147.294C22.7286 148.992 21.8067 149.556 19.569 148.822C17.8621 148.262 17.1088 146.014 17.6964 144.317C18.2841 142.619 19.7603 142.376 21.5057 143.163C22.7209 143.711 23.9038 145.597 23.3162 147.294Z" fill="#FAD9AE"/>
<path d="M19.6443 144.623C19.6443 144.623 21.3374 144.449 21.6399 146.861" stroke="#303030" stroke-width="0.5026" stroke-miterlimit="10" stroke-linecap="round" stroke-linejoin="round"/>
<path d="M23.0312 135.878C23.0312 135.878 31.7777 131.309 38.6224 135.53C38.6224 135.53 35.7931 129.873 28.4418 131.247C21.0905 132.621 20.9177 136.709 20.9177 136.709L23.0312 135.878Z" fill="#442D04"/>
<path d="M25.8972 134.102C25.8972 134.102 29.7388 137.963 39.4759 137.873C39.4759 137.873 39.0467 135.514 37.6982 134.217L31.317 131.93L25.8972 134.102Z" fill="#442D04"/>
<path d="M27.555 128.498C28.3839 128.362 28.9746 127.757 28.8744 127.147C28.7742 126.536 28.021 126.152 27.1922 126.288C26.3634 126.424 25.7727 127.029 25.8729 127.639C25.9731 128.25 26.7262 128.634 27.555 128.498Z" fill="#943A18"/>
<path d="M18.3504 137.53L39.0548 135.941L38.8122 135.13C37.475 130.655 33.1955 127.617 28.4229 127.754C23.16 127.905 18.8621 131.855 18.4006 136.964L18.3504 137.53Z" fill="#943A18"/>
<mask id="mask1_487_592" style="mask-type:luminance" maskUnits="userSpaceOnUse" x="18" y="127" width="22" height="11">
<path d="M18.3521 137.53L39.0565 135.941L38.8139 135.13C37.4767 130.655 33.1973 127.617 28.4246 127.754C23.1617 127.905 18.8638 131.855 18.4024 136.964L18.3521 137.53Z" fill="white"/>
</mask>
<g mask="url(#mask1_487_592)">
<path d="M38.456 134.136L25.7895 135.057C25.7895 135.057 24.5302 130.236 28.443 127.02C28.443 127.02 38.2437 127.43 38.456 134.136Z" fill="#F1F9FE"/>
</g>
<path d="M33.5367 136.364L45.9022 135.39C46.4508 135.348 46.8374 134.834 46.7256 134.296C46.6328 133.847 46.2216 133.538 45.7652 133.572L33.3552 134.529L33.5367 136.364Z" fill="#943A18"/>
<g filter="url(#filter3_n_487_592)">
<path d="M30.2536 151.424C31.4043 152.481 32.842 152.485 33.9965 151.434C34.3014 151.157 34.149 150.523 33.7963 150.522L30.456 150.512C30.1034 150.511 29.9495 151.144 30.2536 151.424Z" fill="#442D04"/>
<path d="M31.9086 147.139V144.071C31.9086 143.923 32.0068 143.803 32.1281 143.803C32.2493 143.803 32.3475 143.923 32.3475 144.071V147.139C32.3475 147.288 32.2493 147.408 32.1281 147.408C32.0068 147.408 31.9086 147.288 31.9086 147.139Z" fill="#442D04"/>
<path d="M37.2306 144.264C36.5714 143.45 35.4994 143.448 34.8363 144.258C34.7506 144.363 34.612 144.363 34.5267 144.258C34.4413 144.152 34.4416 143.982 34.5274 143.877C35.3616 142.858 36.7108 142.86 37.541 143.884C37.6263 143.989 37.626 144.16 37.5403 144.264C37.4546 144.369 37.316 144.369 37.2306 144.264Z" fill="#442D04"/>
<path d="M29.4177 144.264C28.7584 143.451 27.6864 143.448 27.0233 144.259C26.9376 144.363 26.799 144.363 26.7137 144.258C26.6284 144.152 26.6287 143.982 26.7144 143.877C27.5486 142.858 28.8979 142.86 29.728 143.884C29.8134 143.989 29.813 144.16 29.7273 144.264C29.6416 144.369 29.503 144.369 29.4177 144.264Z" fill="#442D04"/>
</g>
<path d="M169.106 221.994C169.106 221.948 169.106 221.904 169.102 221.869L169.094 221.758L169.092 221.731L169.091 221.724C169.091 221.699 169.091 221.715 169.091 221.709L169.091 221.705L169.089 221.692L169.082 221.637C169.071 221.564 169.062 221.491 169.052 221.419C168.973 220.843 168.9 220.305 168.836 219.845C168.71 218.923 168.626 218.309 168.626 218.309C168.626 218.309 168.542 218.923 168.416 219.845C168.352 220.305 168.279 220.843 168.2 221.419C168.19 221.491 168.18 221.564 168.171 221.637L168.163 221.692L168.161 221.705L168.161 221.709C168.161 221.705 168.16 221.723 168.161 221.7L168.16 221.707L168.156 221.734L168.143 221.845C168.139 221.885 168.132 221.914 168.126 221.943L168.108 222.032C168.093 222.095 168.078 222.158 168.062 222.222C167.991 222.477 167.891 222.725 167.766 222.958C167.516 223.425 167.164 223.823 166.79 224.111C166.414 224.399 166.02 224.577 165.679 224.665C165.508 224.709 165.351 224.737 165.211 224.75C165.18 224.753 165.15 224.755 165.121 224.757V222.361H163.617V226.082C163.585 226.077 163.553 226.071 163.519 226.066C163.341 226.047 163.146 225.995 162.931 225.928C162.829 225.885 162.714 225.851 162.604 225.797C162.549 225.769 162.493 225.741 162.436 225.712C162.379 225.684 162.32 225.655 162.265 225.617C162.155 225.543 162.032 225.477 161.925 225.383C161.869 225.339 161.812 225.295 161.754 225.25C161.701 225.2 161.647 225.149 161.593 225.098C161.478 224.999 161.386 224.877 161.28 224.761C161.226 224.704 161.186 224.636 161.137 224.573C161.093 224.507 161.037 224.446 161 224.375C160.918 224.236 160.829 224.098 160.764 223.947C160.686 223.8 160.635 223.643 160.577 223.486C160.544 223.406 160.534 223.336 160.511 223.26C160.492 223.182 160.464 223.119 160.455 223.017C160.441 222.923 160.428 222.83 160.415 222.736L160.41 222.701L160.408 222.693C160.408 222.686 160.409 222.735 160.408 222.712L160.408 222.708L160.406 222.69L160.4 222.62L160.387 222.479C160.354 222.107 160.321 221.739 160.289 221.385C160.225 220.674 160.165 220.012 160.114 219.443C160.011 218.307 159.943 217.549 159.943 217.549C159.943 217.549 159.874 218.307 159.771 219.443C159.72 220.011 159.66 220.674 159.596 221.385C159.565 221.74 159.531 222.107 159.498 222.479L159.485 222.62L159.479 222.69L159.477 222.708L159.477 222.712C159.476 222.692 159.477 222.744 159.477 222.74L159.477 222.749L159.476 222.784C159.472 222.878 159.468 222.973 159.465 223.067C159.456 223.155 159.47 223.277 159.477 223.386C159.487 223.496 159.489 223.616 159.509 223.719C159.543 223.929 159.575 224.143 159.638 224.347C159.687 224.557 159.765 224.755 159.839 224.955C159.873 225.057 159.926 225.148 159.969 225.245C160.017 225.339 160.057 225.439 160.111 225.529C160.22 225.708 160.319 225.894 160.446 226.057C160.507 226.14 160.568 226.223 160.628 226.305C160.695 226.382 160.762 226.458 160.828 226.534C160.956 226.69 161.106 226.819 161.247 226.952C161.315 227.021 161.391 227.08 161.467 227.137C161.542 227.194 161.617 227.251 161.69 227.307C161.838 227.416 161.995 227.503 162.142 227.596C162.445 227.761 162.737 227.897 163.009 227.985C163.077 228.009 163.142 228.032 163.205 228.054C163.269 228.073 163.332 228.086 163.392 228.102C163.472 228.121 163.547 228.138 163.618 228.155V230.97H165.121V226.846C165.191 226.832 165.266 226.816 165.346 226.798C165.445 226.772 165.552 226.745 165.665 226.709C165.89 226.639 166.137 226.54 166.393 226.412C166.906 226.158 167.445 225.76 167.893 225.242C168.342 224.725 168.701 224.09 168.905 223.415C169.007 223.077 169.071 222.73 169.096 222.387C169.102 222.301 169.105 222.217 169.107 222.13L169.106 221.994Z" fill="#303030"/>
<path d="M154.433 209.853C154.433 209.853 154.433 212.307 154.433 218.231C154.433 219.55 154.433 218.491 154.433 219.901L156.051 218.817L157.669 219.901L159.286 218.817L160.904 219.901L162.521 218.817L164.139 219.901L165.756 218.817L167.374 219.901L168.991 218.817L170.609 219.901L172.226 218.817L173.844 219.901C173.844 218.539 173.844 219.625 173.844 218.231C173.844 217.339 173.844 211.523 173.844 211.523C170.688 207.358 158.986 209.853 154.433 209.853Z" fill="#36481F"/>
<path d="M172.226 218.817L170.609 219.901L168.991 218.817L167.374 219.901L165.756 218.817L164.139 219.901L162.521 218.817L160.904 219.901L159.286 218.817L157.669 219.901L156.051 218.817L154.433 219.901C154.433 222.261 154.433 224.259 154.433 224.259L156.051 223.176L157.669 224.259L159.286 223.176L160.904 224.259L162.521 223.176L164.139 224.259L165.756 223.176L167.374 224.259L168.991 223.176L170.609 224.259L172.226 223.176L173.844 224.259C173.844 224.259 173.844 222.314 173.844 219.901L172.226 218.817Z" fill="#7FAC36"/>
<path d="M164.138 198.578C158.779 198.578 154.433 203.381 154.433 209.305C154.433 210.624 154.433 209.566 154.433 210.975L156.051 209.892L157.669 210.975L159.286 209.892L160.904 210.975L162.521 209.892L164.139 210.975L165.756 209.892L167.374 210.975L168.991 209.892L170.609 210.975L172.226 209.892L173.844 210.975C173.844 209.613 173.844 210.7 173.844 209.305C173.842 203.381 169.498 198.578 164.138 198.578Z" fill="#36481F"/>
<path d="M172.226 209.892L170.609 210.976L168.991 209.892L167.374 210.976L165.756 209.892L164.139 210.976L162.521 209.892L160.904 210.976L159.286 209.892L157.669 210.976L156.051 209.892L154.433 210.976C154.433 213.335 154.433 215.334 154.433 215.334L156.051 214.251L157.669 215.334L159.286 214.251L160.904 215.334L162.521 214.251L164.139 215.334L165.756 214.251L167.374 215.334L168.991 214.251L170.609 215.334L172.226 214.251L173.844 215.334C173.844 215.334 173.844 213.388 173.844 210.976L172.226 209.892Z" fill="#7FAC36"/>
</g>
<path d="M281.805 105.704C281.805 105.677 281.805 105.651 281.803 105.63L281.798 105.564L281.797 105.548L281.796 105.544C281.796 105.529 281.796 105.538 281.796 105.535L281.796 105.533L281.795 105.524L281.791 105.492C281.785 105.449 281.779 105.405 281.773 105.362C281.726 105.02 281.682 104.7 281.645 104.426C281.57 103.878 281.52 103.513 281.52 103.513C281.52 103.513 281.47 103.878 281.395 104.426C281.357 104.7 281.313 105.02 281.266 105.362C281.261 105.405 281.254 105.449 281.249 105.492L281.244 105.524L281.243 105.533L281.243 105.535C281.243 105.532 281.243 105.543 281.243 105.53L281.242 105.534L281.24 105.55L281.232 105.616C281.23 105.639 281.226 105.657 281.222 105.674L281.212 105.727C281.203 105.765 281.193 105.802 281.184 105.84C281.142 105.991 281.082 106.139 281.008 106.278C280.859 106.555 280.65 106.792 280.427 106.964C280.204 107.135 279.97 107.24 279.767 107.293C279.665 107.319 279.572 107.336 279.488 107.343C279.47 107.345 279.452 107.346 279.435 107.347V105.923H278.541V108.136C278.522 108.133 278.502 108.129 278.482 108.126C278.377 108.115 278.261 108.084 278.133 108.044C278.072 108.019 278.004 107.998 277.938 107.966C277.906 107.95 277.872 107.933 277.838 107.915C277.804 107.899 277.769 107.882 277.737 107.859C277.671 107.815 277.598 107.776 277.534 107.72C277.501 107.694 277.467 107.668 277.432 107.641C277.401 107.611 277.369 107.581 277.337 107.55C277.268 107.492 277.213 107.419 277.15 107.35C277.118 107.316 277.095 107.276 277.066 107.238C277.039 107.199 277.006 107.163 276.984 107.12C276.935 107.038 276.882 106.955 276.844 106.866C276.797 106.778 276.767 106.685 276.732 106.592C276.713 106.544 276.707 106.503 276.693 106.457C276.682 106.411 276.665 106.373 276.66 106.313C276.652 106.257 276.644 106.201 276.636 106.146L276.633 106.125L276.632 106.12C276.632 106.116 276.633 106.145 276.632 106.131L276.632 106.129L276.631 106.118L276.627 106.077L276.62 105.993C276.6 105.771 276.58 105.553 276.561 105.342C276.523 104.92 276.487 104.525 276.457 104.187C276.396 103.512 276.355 103.061 276.355 103.061C276.355 103.061 276.314 103.512 276.253 104.187C276.223 104.525 276.187 104.92 276.149 105.342C276.13 105.553 276.111 105.771 276.091 105.993L276.083 106.077L276.079 106.118L276.078 106.129L276.078 106.131C276.078 106.12 276.078 106.15 276.078 106.148L276.078 106.153L276.077 106.174C276.075 106.23 276.073 106.286 276.071 106.343C276.066 106.395 276.074 106.468 276.078 106.532C276.084 106.597 276.085 106.669 276.097 106.73C276.118 106.855 276.137 106.982 276.174 107.104C276.203 107.229 276.249 107.346 276.294 107.466C276.314 107.526 276.345 107.58 276.371 107.638C276.399 107.694 276.423 107.753 276.456 107.807C276.52 107.913 276.579 108.024 276.655 108.121C276.691 108.17 276.727 108.22 276.763 108.268C276.803 108.314 276.842 108.359 276.882 108.404C276.958 108.497 277.047 108.574 277.131 108.653C277.172 108.694 277.217 108.729 277.262 108.763C277.306 108.797 277.351 108.831 277.394 108.864C277.483 108.929 277.576 108.981 277.663 109.036C277.843 109.135 278.017 109.215 278.179 109.267C278.219 109.282 278.258 109.295 278.295 109.309C278.333 109.32 278.371 109.328 278.407 109.337C278.455 109.349 278.499 109.359 278.541 109.369V111.043H279.435V108.59C279.477 108.582 279.521 108.572 279.569 108.562C279.628 108.546 279.692 108.53 279.758 108.509C279.892 108.467 280.039 108.408 280.192 108.332C280.497 108.181 280.817 107.944 281.084 107.636C281.351 107.329 281.564 106.951 281.685 106.549C281.746 106.348 281.785 106.142 281.799 105.938C281.802 105.887 281.805 105.837 281.806 105.785L281.805 105.704Z" fill="#303030"/>
<path d="M273.079 98.4838C273.079 98.4838 273.079 99.9429 273.079 103.466C273.079 104.251 273.079 103.621 273.079 104.459L274.041 103.815L275.003 104.459L275.965 103.815L276.927 104.459L277.89 103.815L278.852 104.459L279.814 103.815L280.776 104.459L281.738 103.815L282.7 104.459L283.662 103.815L284.624 104.459C284.624 103.649 284.624 104.296 284.624 103.466C284.624 102.936 284.624 99.4766 284.624 99.4766C282.746 96.9998 275.787 98.4838 273.079 98.4838Z" fill="#36481F"/>
<path d="M283.662 103.815L282.7 104.459L281.738 103.815L280.776 104.459L279.814 103.815L278.852 104.459L277.89 103.815L276.927 104.459L275.965 103.815L275.003 104.459L274.041 103.815L273.079 104.459C273.079 105.863 273.079 107.051 273.079 107.051L274.041 106.407L275.003 107.051L275.965 106.407L276.927 107.051L277.89 106.407L278.852 107.051L279.814 106.407L280.776 107.051L281.738 106.407L282.7 107.051L283.662 106.407L284.624 107.051C284.624 107.051 284.624 105.894 284.624 104.459L283.662 103.815Z" fill="#7FAC36"/>
<path d="M278.851 91.778C275.664 91.778 273.079 94.6342 273.079 98.1578C273.079 98.9422 273.079 98.3128 273.079 99.1507L274.041 98.5064L275.003 99.1507L275.965 98.5064L276.927 99.1507L277.89 98.5064L278.852 99.1507L279.814 98.5064L280.776 99.1507L281.738 98.5064L282.7 99.1507L283.662 98.5064L284.624 99.1507C284.624 98.3406 284.624 98.9869 284.624 98.1578C284.623 94.6342 282.039 91.778 278.851 91.778Z" fill="#36481F"/>
<path d="M283.662 98.5067L282.7 99.151L281.738 98.5067L280.776 99.151L279.814 98.5067L278.852 99.151L277.89 98.5067L276.927 99.151L275.965 98.5067L275.003 99.151L274.041 98.5067L273.079 99.151C273.079 100.555 273.079 101.743 273.079 101.743L274.041 101.099L275.003 101.743L275.965 101.099L276.927 101.743L277.89 101.099L278.852 101.743L279.814 101.099L280.776 101.743L281.738 101.099L282.7 101.743L283.662 101.099L284.624 101.743C284.624 101.743 284.624 100.586 284.624 99.151L283.662 98.5067Z" fill="#7FAC36"/>
<path d="M142.702 57.1243C140.476 57.1243 138.459 57.9977 136.966 59.4123C137.08 58.6241 137.143 57.8191 137.143 56.9997C137.143 47.7908 129.632 40.3256 120.367 40.3256C112.411 40.3256 105.753 45.832 104.029 53.2183C103.018 52.8978 101.942 52.7236 100.825 52.7236C95.0038 52.7236 90.2852 57.4135 90.2852 63.199C90.2852 68.9845 95.0038 73.6744 100.825 73.6744C104.272 73.6744 116.103 73.6744 120.367 73.6744C126.248 73.6744 138.347 73.6744 142.702 73.6744C147.3 73.6744 151.028 69.9694 151.028 65.3993C151.028 60.8288 147.3 57.1243 142.702 57.1243Z" fill="#E2F2FC"/>
<path d="M128.156 54.6979C129.684 54.6979 131.068 55.2597 132.094 56.1688C132.015 55.662 131.972 55.1449 131.972 54.6179C131.972 48.6979 137.127 43.8987 143.485 43.8987C148.945 43.8987 153.514 47.4383 154.697 52.1873C155.391 51.9812 156.13 51.8692 156.897 51.8692C160.892 51.8692 164.129 54.8842 164.129 58.6032C164.129 62.3221 160.891 65.3372 156.897 65.3372C154.531 65.3372 146.411 65.3372 143.485 65.3372C139.45 65.3372 131.146 65.3372 128.157 65.3372C125.001 65.3372 122.443 62.9555 122.443 60.0176C122.443 57.0797 125.001 54.6979 128.156 54.6979Z" fill="#F1F9FE"/>
<defs>
<filter id="filter0_n_487_592" x="50.2114" y="163.002" width="17.4707" height="53.2822" filterUnits="userSpaceOnUse" color-interpolation-filters="sRGB">
<feFlood flood-opacity="0" result="BackgroundImageFix"/>
<feBlend mode="normal" in="SourceGraphic" in2="BackgroundImageFix" result="shape"/>
<feTurbulence type="fractalNoise" baseFrequency="2.093630313873291 2.093630313873291" stitchTiles="stitch" numOctaves="3" result="noise" seed="9343" />
<feColorMatrix in="noise" type="luminanceToAlpha" result="alphaNoise" />
<feComponentTransfer in="alphaNoise" result="coloredNoise1">
<feFuncA type="discrete" tableValues="0 0 0 0 0 0 0 0 0 0 0 0 1 1 1 1 1 1 1 1 1 1 1 1 1 1 1 1 1 1 1 1 1 1 1 1 1 1 0 0 0 0 0 0 0 0 0 0 0 0 0 0 0 0 0 0 0 0 0 0 0 0 0 0 0 0 0 0 0 0 0 0 0 0 0 0 0 0 0 0 0 0 0 0 0 0 0 0 0 0 0 0 0 0 0 0 0 0 0 0 "/>
</feComponentTransfer>
<feComposite operator="in" in2="shape" in="coloredNoise1" result="noise1Clipped" />
<feFlood flood-color="rgba(0, 0, 0, 0.15)" result="color1Flood" />
<feComposite operator="in" in2="noise1Clipped" in="color1Flood" result="color1" />
<feMerge result="effect1_noise_487_592">
<feMergeNode in="shape" />
<feMergeNode in="color1" />
</feMerge>
</filter>
<filter id="filter1_n_487_592" x="37.9765" y="161.816" width="17.4651" height="53.2268" filterUnits="userSpaceOnUse" color-interpolation-filters="sRGB">
<feFlood flood-opacity="0" result="BackgroundImageFix"/>
<feBlend mode="normal" in="SourceGraphic" in2="BackgroundImageFix" result="shape"/>
<feTurbulence type="fractalNoise" baseFrequency="2.093630313873291 2.093630313873291" stitchTiles="stitch" numOctaves="3" result="noise" seed="9343" />
<feColorMatrix in="noise" type="luminanceToAlpha" result="alphaNoise" />
<feComponentTransfer in="alphaNoise" result="coloredNoise1">
<feFuncA type="discrete" tableValues="0 0 0 0 0 0 0 0 0 0 0 0 1 1 1 1 1 1 1 1 1 1 1 1 1 1 1 1 1 1 1 1 1 1 1 1 1 1 0 0 0 0 0 0 0 0 0 0 0 0 0 0 0 0 0 0 0 0 0 0 0 0 0 0 0 0 0 0 0 0 0 0 0 0 0 0 0 0 0 0 0 0 0 0 0 0 0 0 0 0 0 0 0 0 0 0 0 0 0 0 "/>
</feComponentTransfer>
<feComposite operator="in" in2="shape" in="coloredNoise1" result="noise1Clipped" />
<feFlood flood-color="rgba(0, 0, 0, 0.15)" result="color1Flood" />
<feComposite operator="in" in2="noise1Clipped" in="color1Flood" result="color1" />
<feMerge result="effect1_noise_487_592">
<feMergeNode in="shape" />
<feMergeNode in="color1" />
</feMerge>
</filter>
<filter id="filter2_n_487_592" x="25.7436" y="160.715" width="17.451" height="53.0867" filterUnits="userSpaceOnUse" color-interpolation-filters="sRGB">
<feFlood flood-opacity="0" result="BackgroundImageFix"/>
<feBlend mode="normal" in="SourceGraphic" in2="BackgroundImageFix" result="shape"/>
<feTurbulence type="fractalNoise" baseFrequency="2.093630313873291 2.093630313873291" stitchTiles="stitch" numOctaves="3" result="noise" seed="9343" />
<feColorMatrix in="noise" type="luminanceToAlpha" result="alphaNoise" />
<feComponentTransfer in="alphaNoise" result="coloredNoise1">
<feFuncA type="discrete" tableValues="0 0 0 0 0 0 0 0 0 0 0 0 1 1 1 1 1 1 1 1 1 1 1 1 1 1 1 1 1 1 1 1 1 1 1 1 1 1 0 0 0 0 0 0 0 0 0 0 0 0 0 0 0 0 0 0 0 0 0 0 0 0 0 0 0 0 0 0 0 0 0 0 0 0 0 0 0 0 0 0 0 0 0 0 0 0 0 0 0 0 0 0 0 0 0 0 0 0 0 0 "/>
</feComponentTransfer>
<feComposite operator="in" in2="shape" in="coloredNoise1" result="noise1Clipped" />
<feFlood flood-color="rgba(0, 0, 0, 0.15)" result="color1Flood" />
<feComposite operator="in" in2="noise1Clipped" in="color1Flood" result="color1" />
<feMerge result="effect1_noise_487_592">
<feMergeNode in="shape" />
<feMergeNode in="color1" />
</feMerge>
</filter>
<filter id="filter3_n_487_592" x="26.6499" y="143.114" width="10.9549" height="9.10535" filterUnits="userSpaceOnUse" color-interpolation-filters="sRGB">
<feFlood flood-opacity="0" result="BackgroundImageFix"/>
<feBlend mode="normal" in="SourceGraphic" in2="BackgroundImageFix" result="shape"/>
<feTurbulence type="fractalNoise" baseFrequency="4.9049410820007324 4.9049410820007324" stitchTiles="stitch" numOctaves="3" result="noise" seed="9343" />
<feColorMatrix in="noise" type="luminanceToAlpha" result="alphaNoise" />
<feComponentTransfer in="alphaNoise" result="coloredNoise1">
<feFuncA type="discrete" tableValues="0 0 0 0 0 0 0 0 0 0 0 0 1 1 1 1 1 1 1 1 1 1 1 1 1 1 1 1 1 1 1 1 1 1 1 1 1 1 0 0 0 0 0 0 0 0 0 0 0 0 0 0 0 0 0 0 0 0 0 0 0 0 0 0 0 0 0 0 0 0 0 0 0 0 0 0 0 0 0 0 0 0 0 0 0 0 0 0 0 0 0 0 0 0 0 0 0 0 0 0 "/>
</feComponentTransfer>
<feComposite operator="in" in2="shape" in="coloredNoise1" result="noise1Clipped" />
<feFlood flood-color="rgba(0, 0, 0, 0.15)" result="color1Flood" />
<feComposite operator="in" in2="noise1Clipped" in="color1Flood" result="color1" />
<feMerge result="effect1_noise_487_592">
<feMergeNode in="shape" />
<feMergeNode in="color1" />
</feMerge>
</filter>
<clipPath id="clip0_487_592">
<rect y="24" width="362" height="263" rx="20" fill="white"/>
</clipPath>
</defs>
</svg>
