<svg width="363" height="300" viewBox="0 0 363 300" fill="none" xmlns="http://www.w3.org/2000/svg">
<g filter="url(#filter0_n_494_1066)">
<path d="M302.955 225.385C277.89 268.481 231.895 297.893 178.892 299.696C198.886 277.991 214.145 252.686 224.027 225.385H302.955ZM123.347 225.385C133.229 252.685 148.487 277.99 168.48 299.694C115.507 297.867 69.5411 268.462 44.4879 225.385H123.347ZM216.057 225.385C206.545 250.655 192.237 274.092 173.687 294.312C155.137 274.092 140.829 250.655 131.317 225.385H216.057ZM110.275 144.224C110.218 146.269 110.188 148.318 110.188 150.369C110.188 173.501 113.827 196.271 120.793 217.909H40.4196C30.1238 197.624 24.319 174.675 24.319 150.369C24.319 148.311 24.3625 146.262 24.445 144.224H110.275ZM229.618 144.224C229.677 146.269 229.71 148.317 229.71 150.369C229.71 173.535 225.932 196.324 218.713 217.909H128.663C121.443 196.324 117.665 173.535 117.665 150.369C117.665 148.317 117.698 146.269 117.757 144.224H229.618ZM322.998 144.224C323.08 146.262 323.124 148.311 323.124 150.369C323.124 174.675 317.319 197.624 307.023 217.909H226.583C233.549 196.271 237.186 173.501 237.186 150.369C237.186 148.318 237.157 146.269 237.1 144.224H322.998ZM128.216 63.0641C118.201 86.2812 112.191 111.196 110.61 136.748H24.9333C27.4052 109.391 37.2507 84.163 52.4655 63.0641H128.216ZM210.986 63.0641C221.382 86.1919 227.629 111.134 229.27 136.748H118.105C119.746 111.135 125.992 86.1918 136.388 63.0641H210.986ZM294.977 63.0641C310.192 84.163 320.037 109.391 322.509 136.748H236.764C235.183 111.196 229.173 86.2813 219.158 63.0641H294.977ZM168.48 1.0426C153.406 17.4068 141.024 35.8179 131.608 55.5875H58.2213C84.5888 23.487 124.073 2.57383 168.48 1.0426ZM173.687 6.42542C187.299 21.2627 198.625 37.8331 207.45 55.5875H139.925C148.75 37.8332 160.075 21.2626 173.687 6.42542ZM178.892 1.04163C223.328 2.55322 262.84 23.4701 289.221 55.5875H215.767C206.351 35.8171 193.967 17.4063 178.892 1.04163Z" fill="#BEE5F9"/>
</g>
<path d="M74.5808 238.589H70.6441V261.948H74.5808V238.589Z" fill="white"/>
<path d="M76.6225 258.157H68.7492V282.507H76.6225V258.157Z" fill="#303030"/>
<path d="M89.1934 280.933H56.3132V284.096H89.1934V280.933Z" fill="white"/>
<path d="M58.9016 280.933H56.3132V290.423H58.9016V280.933Z" fill="white"/>
<path d="M61.0385 294.055C61.4586 291.441 59.6805 288.982 57.067 288.562C54.4536 288.142 51.9944 289.92 51.5743 292.533C51.1542 295.147 52.9323 297.606 55.5457 298.026C58.1592 298.446 60.6184 296.668 61.0385 294.055Z" fill="#303030"/>
<path d="M86.6049 290.423H89.1933V280.933H86.6049V290.423Z" fill="white"/>
<path d="M92.5024 296.776C94.4215 294.953 94.4992 291.919 92.6759 290C90.8526 288.081 87.8187 288.003 85.8996 289.826C83.9804 291.649 83.9027 294.683 85.7261 296.602C87.5494 298.522 90.5832 298.599 92.5024 296.776Z" fill="#303030"/>
<path d="M43.3043 241.729H80.0535C82.5602 241.729 84.3625 238.924 83.6526 236.126L66.1032 166.951C65.6322 165.094 64.1675 163.82 62.5041 163.82H25.7549C23.2482 163.82 21.4464 166.625 22.1558 169.423L39.7052 238.599C40.1762 240.455 41.6409 241.729 43.3043 241.729Z" fill="#303030"/>
<path d="M46.1971 241.729H100.638C103.177 241.729 105.235 239.671 105.235 237.132C105.235 234.593 103.177 232.535 100.638 232.535H46.1971C43.658 232.535 41.5998 234.593 41.5998 237.132C41.5998 239.671 43.658 241.729 46.1971 241.729Z" fill="#303030"/>
<path d="M73.2302 183.913C75.0389 187.262 83.558 203.149 87.5031 208.288C89.1953 210.492 92.3887 210.84 94.5305 209.069C96.4672 207.468 96.7873 204.816 95.4033 202.719L81.5102 178.972C79.9753 176.647 76.7959 176.101 74.5729 177.781C72.6751 179.214 72.1 181.82 73.2302 183.913Z" fill="#FAD9AE"/>
<path d="M82.9649 177.363C84.4122 179.349 88.8547 185.824 88.8547 185.824L75.9663 192.512L71.1878 184.363C69.9133 181.699 70.4813 178.519 72.5998 176.462C75.6079 173.54 80.495 173.974 82.9649 177.363Z" fill="#4B6922"/>
<path d="M89.8649 209.942C89.8649 209.942 102.728 210.642 116.491 208.667L117.954 204.853L92.7859 201.772L89.8649 209.942Z" fill="#FAD9AE"/>
<path d="M71.2316 170.122L55.2152 175.305C54.6312 175.494 54.2404 176.044 54.2548 176.658L56.7835 210.167H75.5451L80.4103 198.469C82.3211 194.842 83.0933 188.718 82.6253 184.645L82.1304 177.269C82.0458 176.532 81.6107 175.881 80.9625 175.521L71.2316 170.122Z" fill="#4B6922"/>
<path d="M64.8112 172.2L71.2317 170.122L78.0202 173.889L74.6994 179.937L64.8112 172.2Z" fill="#FAD9AE"/>
<path d="M82.6979 189.02C82.6979 189.02 82.565 185.619 82.2433 183.516" stroke="#303030" stroke-width="0.5207" stroke-miterlimit="10" stroke-linecap="round" stroke-linejoin="round"/>
<path d="M53.0102 179.644C51.1985 182.991 41.6543 198.819 39.515 204.934C38.5974 207.558 40.0552 210.419 42.7098 211.242C45.1095 211.986 47.5048 210.802 48.5015 208.495L61.6786 183.866C62.7839 181.309 61.4999 178.349 58.8771 177.409C56.6372 176.606 54.1424 177.552 53.0102 179.644Z" fill="#FAD9AE"/>
<path d="M51.8239 177.754C50.3766 179.74 45.9341 186.215 45.9341 186.215L58.8224 192.903L63.601 184.754C64.8755 182.091 64.3069 178.911 62.189 176.853C59.1804 173.931 54.2933 174.365 51.8239 177.754Z" fill="#4B6922"/>
<path d="M57.2968 192.16L58.8222 192.903L63.1199 185.653" stroke="#303030" stroke-width="0.5207" stroke-miterlimit="10" stroke-linecap="round" stroke-linejoin="round"/>
<path d="M43.7007 211.442C43.7007 211.442 56.5637 212.142 70.3267 210.167L71.7895 206.352L46.6217 203.271L43.7007 211.442Z" fill="#FAD9AE"/>
<path d="M45.9838 203.19L50.8798 203.812" stroke="#303030" stroke-width="0.5207" stroke-miterlimit="10" stroke-linecap="round" stroke-linejoin="round"/>
<path d="M71.7868 206.352C71.7868 206.352 79.683 201.64 82.2416 210.167H70.3246L71.7868 206.352Z" fill="#FAD9AE"/>
<path d="M77.2766 274.083L88.9183 257.5L97.0719 261.824L84.5803 279.059L77.2766 274.083Z" fill="#FAD9AE"/>
<path d="M89.8667 271.765L82.4908 266.655L77.2766 274.083L84.5803 279.059L89.8667 271.765Z" fill="white"/>
<path d="M81.3779 276.02L81.4595 276.071C82.3114 276.598 83.3947 276.382 84.0469 275.621C84.4881 275.106 85.1542 274.594 86.1484 274.315C87.074 274.055 88.0438 274.56 88.3824 275.459C89.5349 278.526 92.6103 286.157 96.6161 291.769C97.5387 293.061 97.7831 294.716 97.24 296.208L96.9452 297.019L70.8176 278.788L77.0718 271.762C77.497 270.816 78.5913 270.374 79.5542 270.757C80.4439 271.111 80.9407 272.064 80.7222 272.996L80.4947 273.89C80.301 274.716 80.6565 275.574 81.3779 276.02Z" fill="#303030"/>
<path d="M70.8167 278.787C70.8167 278.787 70.3367 278.79 70.0295 279.315C69.6576 279.949 69.8916 280.771 70.4975 281.189L94.1761 297.781C95.135 298.442 96.4584 298.077 96.9443 297.019L70.8167 278.787Z" fill="white"/>
<path d="M90.2704 279.867C90.2704 279.867 89.4838 279.379 87.7597 280.581" stroke="white" stroke-width="1.0727" stroke-miterlimit="10" stroke-linecap="round" stroke-linejoin="round"/>
<path d="M90.9662 281.26C90.9662 281.26 90.1795 280.772 88.4554 281.974" stroke="white" stroke-width="1.0727" stroke-miterlimit="10" stroke-linecap="round" stroke-linejoin="round"/>
<path d="M91.6584 282.652C91.6584 282.652 90.8718 282.165 89.1477 283.366" stroke="white" stroke-width="1.0727" stroke-miterlimit="10" stroke-linecap="round" stroke-linejoin="round"/>
<path d="M73.4319 275.851C73.4319 275.851 81.807 279.297 84.7076 288.48L70.8176 278.788C70.8176 278.788 71.6864 277.17 73.4319 275.851Z" fill="#0C2E45"/>
<path d="M103.425 229.518L82.1361 262.511L93.5368 270.477L117.2 238.859C120.204 234.713 118.79 228.864 114.224 226.548C110.398 224.607 105.722 225.893 103.425 229.518Z" fill="#9E1916"/>
<path d="M58.0619 210.063C58.0619 210.063 52.3961 217.153 56.8073 226.102C60.2107 233.006 102.848 235.762 102.848 235.762L110.829 223.132L75.905 210.063H58.0619Z" fill="#9E1916"/>
<path d="M101.465 288.256L101.591 267.995L110.756 266.906L110.303 288.187L101.465 288.256Z" fill="#FAD9AE"/>
<path d="M110.495 279.181H101.522L101.465 288.256L110.303 288.187L110.495 279.181Z" fill="white"/>
<path d="M105.937 287.514L106.032 287.509C107.033 287.458 107.8 286.663 107.903 285.666C107.973 284.992 108.228 284.191 108.886 283.396C109.5 282.656 110.584 282.518 111.374 283.065C114.068 284.929 120.941 289.451 127.43 291.783C128.924 292.319 130.068 293.541 130.471 295.076L130.69 295.911L98.8307 295.804L99.9709 286.467C99.7817 285.448 100.429 284.46 101.439 284.227C102.373 284.012 103.323 284.512 103.675 285.403L103.996 286.267C104.309 287.055 105.089 287.558 105.937 287.514Z" fill="#303030"/>
<path d="M98.8319 295.803C98.8319 295.803 98.439 296.079 98.4848 296.685C98.5406 297.418 99.2013 297.961 99.9366 297.959L128.849 298.113C130.014 298.11 130.894 297.057 130.691 295.91L98.8319 295.803Z" fill="white"/>
<path d="M115.437 285.612C115.437 285.612 114.513 285.659 113.779 287.628" stroke="white" stroke-width="1.0727" stroke-miterlimit="10" stroke-linecap="round" stroke-linejoin="round"/>
<path d="M116.804 286.361C116.804 286.361 115.88 286.408 115.146 288.378" stroke="white" stroke-width="1.0727" stroke-miterlimit="10" stroke-linecap="round" stroke-linejoin="round"/>
<path d="M118.164 287.11C118.164 287.11 117.24 287.157 116.507 289.126" stroke="white" stroke-width="1.0727" stroke-miterlimit="10" stroke-linecap="round" stroke-linejoin="round"/>
<path d="M99.3087 291.9C99.3087 291.9 108.156 289.963 115.769 295.86L98.8323 295.803C98.8323 295.803 98.6252 293.978 99.3087 291.9Z" fill="#0C2E45"/>
<path d="M97.5551 233.594L98.868 275.977L112.776 276.032L114.26 229.9C114.301 228.581 114.094 227.256 113.566 226.046C113.062 224.892 112.221 223.689 110.828 223.131L102.26 224.784L97.5551 233.594Z" fill="#9E1916"/>
<path d="M97.5072 235.345L97.2299 230.36" stroke="#303030" stroke-width="0.5207" stroke-miterlimit="10" stroke-linecap="round" stroke-linejoin="round"/>
<path d="M76.8647 140.995C76.8647 140.995 72.6906 138.791 67.7184 141.757C62.1995 145.049 57.4941 160.642 57.4941 160.642C57.4941 160.642 77.2874 170.958 88.8529 161.685C88.8529 161.685 88.2624 138.926 76.8647 140.995Z" fill="#74530F"/>
<path d="M63.9687 148.753C63.8078 155.12 70.0765 159.794 73.9141 159.821C79.2632 159.858 83.7848 156.088 84.0253 150.927C84.2658 145.765 80.1285 141.379 74.7843 141.131C70.2249 140.918 64.0966 143.682 63.9687 148.753Z" fill="#74530F"/>
<path d="M71.3731 158.05L67.9985 174.003L75.5198 174.52L77.2076 160.485L71.3731 158.05Z" fill="#FAD9AE"/>
<path d="M76.4397 166.87C76.4397 166.87 72.5145 165.822 70.1452 160.122L77.0675 162.076L76.4397 166.87Z" fill="#303030"/>
<path d="M78.1887 142.757C78.1887 142.757 84.8397 143.275 83.9495 151.628C83.0593 159.981 81.9277 162.161 78.344 163.758C75.1233 165.194 71.1608 163.595 69.0389 159.927C68.2054 158.486 67.6289 156.352 67.5736 154.709L67.1539 152.497C67.1539 152.497 64.9105 141.488 78.1887 142.757Z" fill="#FAD9AE"/>
<g filter="url(#filter1_n_494_1066)">
<path d="M76.6052 153.234L76.4753 155.518" stroke="#0C2E45" stroke-width="0.5" stroke-linecap="round"/>
</g>
<g filter="url(#filter2_n_494_1066)">
<path d="M75.2479 157.383C76.006 158.123 77.2211 158.109 77.9618 157.351" stroke="#0C2E45" stroke-width="0.5" stroke-linecap="round"/>
</g>
<g filter="url(#filter3_n_494_1066)">
<path d="M71.5602 152.917C72.4474 153.744 73.8371 153.695 74.6641 152.808" stroke="#0C2E45" stroke-width="0.5" stroke-linecap="round"/>
</g>
<g filter="url(#filter4_n_494_1066)">
<path d="M79.0701 152.654C79.9573 153.481 81.3469 153.432 82.1739 152.545" stroke="#0C2E45" stroke-width="0.5" stroke-linecap="round"/>
</g>
<path d="M76.829 141.88C76.829 141.88 79.1077 151.017 66.2154 150.099C66.2154 150.099 67.9211 142.003 76.829 141.88Z" fill="#74530F"/>
<path d="M69.9538 149.363L68.5379 155.391L65.4008 152.198L65.9594 148.484L69.9538 149.363Z" fill="#74530F"/>
<path d="M69.2683 156.923C68.8326 158.543 68.0106 159.129 65.8778 158.593C64.2507 158.184 63.4004 156.139 63.836 154.519C64.2716 152.899 65.6308 152.575 67.3091 153.193C68.4776 153.623 69.7039 155.302 69.2683 156.923Z" fill="#FAD9AE"/>
<path d="M65.6701 154.676C65.6701 154.676 67.2364 154.402 67.677 156.63" stroke="#303030" stroke-width="0.4834" stroke-miterlimit="10" stroke-linecap="round" stroke-linejoin="round"/>
<path d="M113.864 182.62L104.165 207.679H141.502L150.753 182.897C151.001 181.733 150.113 180.636 148.923 180.636H116.348C115.159 180.636 114.127 181.46 113.864 182.62Z" fill="#4D495D"/>
<path d="M141.704 207.679H104.165V210.063H141.704V207.679Z" fill="#D1D1D1"/>
<path d="M84.8393 210.063H104.167V207.679H87.2231C85.9067 207.679 84.8393 208.746 84.8393 210.063Z" fill="#303030"/>
<path d="M131.673 195.405C131.099 196.911 129.537 197.713 128.184 197.197C126.831 196.682 126.199 195.043 126.773 193.537C127.347 192.031 128.91 191.229 130.262 191.744C131.615 192.26 132.247 193.899 131.673 195.405Z" fill="#D1D1D1"/>
<path d="M54.913 208.439H81.1547C82.0513 208.439 82.7777 209.166 82.7777 210.062H53.2895C53.29 209.166 54.0168 208.439 54.913 208.439Z" fill="#303030"/>
<path d="M49.6262 213.639L41.9641 297.565H44.6153L55.7435 213.639H49.6262Z" fill="white"/>
<path d="M129.834 213.639L137.496 297.565H134.844L123.716 213.639H129.834Z" fill="white"/>
<path d="M223.482 213.639L215.82 297.565H218.472L229.6 213.639H223.482Z" fill="white"/>
<path d="M303.231 213.639L310.892 297.565H308.241L297.113 213.639H303.231Z" fill="white"/>
<path d="M309.082 209.536H113.459V217.742H309.082V209.536Z" fill="white"/>
<path d="M113.456 209.536H30.0165V217.742H113.456V209.536Z" fill="white"/>
<path d="M235.117 182.072L244.816 207.132H207.479L198.228 182.35C197.98 181.186 198.868 180.089 200.058 180.089H232.633C233.823 180.089 234.854 180.912 235.117 182.072Z" fill="#4D495D"/>
<path d="M209.451 209.515H244.817L245.571 207.132H207.479L207.487 207.583C207.504 208.655 208.379 209.515 209.451 209.515Z" fill="#303030"/>
<path d="M264.145 209.515H244.817V207.132H261.761C263.077 207.132 264.145 208.199 264.145 209.515Z" fill="#303030"/>
<path d="M202.648 183.221L210.295 204.464H240.197L232.15 183.221H202.648Z" fill="#F1F9FE"/>
<path d="M284.019 285.679L276.407 261.512L267.705 265.873L275.947 289.188L284.019 285.679Z" fill="#BA4814"/>
<path d="M283.496 284.272C281.274 285.268 278.657 285.716 275.594 284.213C275.594 284.213 274.377 280.473 270.984 282.647C270.984 282.647 267.065 287.031 261.242 288.211C253.166 289.848 252.804 293.608 252.804 293.608H288.521L285.286 285.28C285.147 284.447 284.266 283.926 283.496 284.272Z" fill="#442D04"/>
<path d="M252.805 297.348H288.522V293.608H252.805V297.348Z" fill="white"/>
<path d="M253.848 231.923L268.97 277.942H284.388L272.238 230.857L253.848 231.923Z" fill="#FAD9AE"/>
<path d="M268.363 285.679L260.75 261.512L252.048 265.873L260.291 289.188L268.363 285.679Z" fill="#BA4814"/>
<path d="M267.841 284.272C265.619 285.268 263.002 285.716 259.94 284.213C259.94 284.213 258.722 280.473 255.329 282.647C255.329 282.647 251.41 287.031 245.587 288.211C237.512 289.848 237.149 293.608 237.149 293.608H272.866L269.632 285.28C269.492 284.447 268.611 283.926 267.841 284.272Z" fill="#442D04"/>
<path d="M237.15 297.348H272.867V293.608H237.15V297.348Z" fill="white"/>
<path d="M237.753 231.296L252.269 277.942H269.772L256.58 230.857L237.753 231.296Z" fill="#FDEED7"/>
<path d="M272.579 215.034L240.825 222.429C237.792 223.191 236.69 228.356 237.758 231.296L242.128 231.345C242.886 233.431 243.052 234.307 245.272 234.307L314.02 232.824L289.797 215.148L272.579 215.034Z" fill="#FDEED7"/>
<path d="M263.148 253.623L259.139 241.089" stroke="#442D04" stroke-width="0.5207" stroke-miterlimit="10" stroke-linecap="round" stroke-linejoin="round"/>
<path opacity="0.13" d="M261.104 148.57L265.918 153.865C265.918 153.865 264.99 156.521 262.99 156.513L258.155 151.366C258.155 151.366 258.962 148.702 261.104 148.57Z" fill="white"/>
<path d="M257.947 153.013C258.153 155.304 260.147 156.953 262.4 156.699C264.654 156.443 266.314 154.38 266.107 152.09C265.901 149.8 263.907 148.15 261.654 148.405C259.4 148.66 257.741 150.723 257.947 153.013Z" stroke="white" stroke-width="1.2593" stroke-miterlimit="10"/>
<path d="M261.717 150.36C262.041 156.485 265.231 161.445 271.191 161.131C277.151 160.815 283.389 152.988 283.065 146.863C282.741 140.738 278.393 137.318 270.888 138.003C264.945 138.544 261.393 144.235 261.717 150.36Z" fill="#442D04"/>
<path d="M264.664 141.643C264.664 141.643 259.569 142.015 260.146 148.643C260.146 148.643 260.521 151.197 261.047 157.417C261.325 160.704 263.829 164.725 267.936 164.031C269.928 163.694 272.343 163.83 274.119 162.122L276.182 157.766C281.784 149.933 274.692 139.15 265.343 141.461C265.12 141.517 264.894 141.577 264.664 141.643Z" fill="#BA4814"/>
<path d="M261.821 153.917L260.137 157.118C259.962 157.441 260.096 157.911 260.506 157.91L262.686 158.049L261.821 153.917Z" fill="#BA4814"/>
<path d="M261.577 159.384C262.165 159.268 262.724 158.953 262.979 158.575" stroke="#442D04" stroke-width="0.5026" stroke-miterlimit="10" stroke-linecap="round" stroke-linejoin="round"/>
<path d="M269.733 162.316L272.376 173.004L281.543 171.947L275.714 153.772L269.733 162.316Z" fill="#BA4814"/>
<path d="M267.283 153.832L266.285 149.776C266.285 149.776 261.718 144.966 264.663 141.643C264.663 141.643 267.965 140.878 268.476 143.812C268.987 146.745 269.459 150.636 269.459 150.636L267.283 153.832Z" fill="#442D04"/>
<path d="M270.022 157.253C270.022 157.253 270.99 161.051 277.22 158.466L278.962 153.296C278.962 153.296 281.936 141.803 275.933 140.541C269.929 139.279 264.663 141.643 264.663 141.643L270.022 157.253Z" fill="#442D04"/>
<path d="M272.674 153.852C272.667 155.75 270.157 157.544 268.617 157.509C267.076 157.474 267.088 155.624 267.095 153.727C267.102 151.829 268.356 150.318 269.897 150.353C271.437 150.388 272.681 151.954 272.674 153.852Z" fill="#BA4814"/>
<path d="M270.43 152.777C268.55 152.765 268.442 154.768 268.442 154.768" stroke="#442D04" stroke-width="0.5026" stroke-miterlimit="10" stroke-linecap="round" stroke-linejoin="round"/>
<path d="M270.093 163.772L269.733 162.316C268.585 163.672 266.471 164.08 266.471 164.08C267.181 164.248 270.093 163.772 270.093 163.772Z" fill="#21120E"/>
<path d="M257.949 153.013L267.029 152.791" stroke="white" stroke-width="1.2593" stroke-miterlimit="10"/>
<path d="M270.889 138.002C270.889 138.002 259.26 138.063 260.499 145.038C260.499 145.038 262.26 143.37 265.313 143.539L270.889 138.002Z" fill="#442D04"/>
<path d="M262.8 171.247C267.601 170.818 281.831 168.308 289.384 169.037C292.17 169.306 294.491 172.557 295.281 175.241L301.545 215.033C301.545 215.033 289.566 219.81 272.574 215.033L262.552 184.004C262.335 183.348 262.261 182.654 262.336 181.967L262.977 176.099C263.225 173.818 260.514 171.451 262.8 171.247Z" fill="#628927"/>
<path d="M291.724 169.98C291.724 169.98 303.527 177.98 307.498 201.185H294.96L291.724 169.98Z" fill="#628927"/>
<path d="M234.965 203.53L230.518 201.381C229.668 200.97 228.668 201.01 227.853 201.486L224.235 203.601C223.075 204.278 222.324 205.484 222.226 206.823L222.03 209.526H223.877L225.373 206.443C225.373 206.443 227.167 209.526 234.145 209.526L234.965 203.53Z" fill="#BA4814"/>
<path d="M252.407 198.771L235.469 200.421C235.469 200.421 230.481 206.81 232.895 209.526H254.27L252.407 198.771Z" fill="#628927"/>
<path d="M256.915 175.349L247.99 201.646C246.343 205.202 250.361 209.3 254.273 209.526C254.68 209.55 255.083 209.528 255.475 209.476C257.671 209.181 259.562 207.775 260.681 205.863L269.347 182.053C272.064 176.387 269.339 171.953 264.227 171.304C261.169 170.915 258.211 172.552 256.915 175.349Z" fill="#628927"/>
<path d="M265.41 192.86L268.266 185.016" stroke="#442D04" stroke-width="0.4132" stroke-miterlimit="10" stroke-linecap="round" stroke-linejoin="round"/>
<path d="M287.893 261.421H291.83V238.062H287.893V261.421Z" fill="white"/>
<path d="M285.855 281.979H293.728V257.63H285.855V281.979Z" fill="#303030"/>
<path d="M273.284 283.57H306.164V280.406H273.284V283.57Z" fill="white"/>
<path d="M303.576 289.896H306.164V280.406H303.576V289.896Z" fill="white"/>
<path d="M309.549 296.162C311.421 294.29 311.421 291.255 309.549 289.384C307.677 287.512 304.642 287.512 302.771 289.384C300.899 291.255 300.899 294.29 302.771 296.162C304.642 298.034 307.677 298.034 309.549 296.162Z" fill="#303030"/>
<path d="M275.869 280.406H273.28V289.896H275.869V280.406Z" fill="white"/>
<path d="M278.02 293.527C278.443 290.913 276.667 288.452 274.054 288.03C271.441 287.607 268.98 289.383 268.557 291.996C268.134 294.609 269.91 297.07 272.523 297.493C275.136 297.916 277.597 296.14 278.02 293.527Z" fill="#303030"/>
<path d="M317.878 241.202H282.416C279.91 241.202 278.107 238.397 278.817 235.599L296.367 166.423C296.838 164.567 298.302 163.293 299.966 163.293H336.471C338.977 163.293 340.779 166.098 340.07 168.896L321.478 238.072C321.006 239.928 319.542 241.202 317.878 241.202Z" fill="#303030"/>
<path d="M314.986 241.202H254.018C251.479 241.202 249.421 239.144 249.421 236.605C249.421 234.066 251.479 232.008 254.018 232.008H316.273C318.812 232.008 319.583 234.066 319.583 236.605C319.583 239.144 317.525 241.202 314.986 241.202Z" fill="#303030"/>
<rect x="240.264" y="30.0914" width="56" height="56" rx="8" fill="#FEF7EE"/>
<g filter="url(#filter5_n_494_1066)">
<path d="M253.834 44.7714C253.767 44.616 253.748 44.444 253.779 44.2777C253.811 44.1114 253.892 43.9584 254.012 43.8387C254.131 43.719 254.284 43.638 254.451 43.6063C254.617 43.5747 254.789 43.5937 254.944 43.661L282.233 54.7472C282.399 54.8148 282.54 54.933 282.635 55.0849C282.73 55.2368 282.774 55.4148 282.762 55.5936C282.751 55.7723 282.683 55.9428 282.568 56.0808C282.454 56.2188 282.299 56.3173 282.126 56.3624L271.681 59.0572C271.091 59.2089 270.552 59.5159 270.121 59.9463C269.689 60.3767 269.381 60.9148 269.228 61.5047L266.535 71.9529C266.49 72.1264 266.392 72.2812 266.254 72.3955C266.116 72.5098 265.945 72.5777 265.766 72.5895C265.588 72.6014 265.41 72.5567 265.258 72.4617C265.106 72.3668 264.988 72.2263 264.92 72.0604L253.834 44.7714Z" fill="#303030"/>
</g>
<rect x="86.2614" y="72.5914" width="56" height="56" rx="8" fill="#FEF7EE"/>
<g filter="url(#filter6_n_494_1066)">
<path d="M114.262 85.6383C117.434 85.6384 120.477 86.899 122.72 89.1422C124.963 91.3856 126.224 94.4285 126.224 97.6012C126.224 105.067 117.942 112.842 115.16 115.244C114.901 115.439 114.586 115.544 114.262 115.545C113.938 115.545 113.622 115.439 113.362 115.244C110.581 112.842 102.299 105.067 102.299 97.6012C102.299 94.4285 103.56 91.3856 105.803 89.1422C108.046 86.8989 111.089 85.6383 114.262 85.6383ZM114.26 93.1149C111.783 93.115 109.775 95.1237 109.775 97.6012C109.775 100.079 111.783 102.086 114.26 102.087C116.737 102.087 118.746 100.079 118.746 97.6012C118.746 95.1237 116.737 93.1149 114.26 93.1149Z" fill="#303030"/>
</g>
<defs>
<filter id="filter0_n_494_1066" x="24.319" y="1.04163" width="298.805" height="298.654" filterUnits="userSpaceOnUse" color-interpolation-filters="sRGB">
<feFlood flood-opacity="0" result="BackgroundImageFix"/>
<feBlend mode="normal" in="SourceGraphic" in2="BackgroundImageFix" result="shape"/>
<feTurbulence type="fractalNoise" baseFrequency="2.093630313873291 2.093630313873291" stitchTiles="stitch" numOctaves="3" result="noise" seed="9343" />
<feColorMatrix in="noise" type="luminanceToAlpha" result="alphaNoise" />
<feComponentTransfer in="alphaNoise" result="coloredNoise1">
<feFuncA type="discrete" tableValues="0 0 0 0 0 0 0 0 0 0 0 0 1 1 1 1 1 1 1 1 1 1 1 1 1 1 1 1 1 1 1 1 1 1 1 1 1 1 0 0 0 0 0 0 0 0 0 0 0 0 0 0 0 0 0 0 0 0 0 0 0 0 0 0 0 0 0 0 0 0 0 0 0 0 0 0 0 0 0 0 0 0 0 0 0 0 0 0 0 0 0 0 0 0 0 0 0 0 0 0 "/>
</feComponentTransfer>
<feComposite operator="in" in2="shape" in="coloredNoise1" result="noise1Clipped" />
<feFlood flood-color="rgba(0, 0, 0, 0.15)" result="color1Flood" />
<feComposite operator="in" in2="noise1Clipped" in="color1Flood" result="color1" />
<feMerge result="effect1_noise_494_1066">
<feMergeNode in="shape" />
<feMergeNode in="color1" />
</feMerge>
</filter>
<filter id="filter1_n_494_1066" x="76.2253" y="152.984" width="0.629959" height="2.78406" filterUnits="userSpaceOnUse" color-interpolation-filters="sRGB">
<feFlood flood-opacity="0" result="BackgroundImageFix"/>
<feBlend mode="normal" in="SourceGraphic" in2="BackgroundImageFix" result="shape"/>
<feTurbulence type="fractalNoise" baseFrequency="2.093630313873291 2.093630313873291" stitchTiles="stitch" numOctaves="3" result="noise" seed="9343" />
<feColorMatrix in="noise" type="luminanceToAlpha" result="alphaNoise" />
<feComponentTransfer in="alphaNoise" result="coloredNoise1">
<feFuncA type="discrete" tableValues="0 0 0 0 0 0 0 0 0 0 0 0 1 1 1 1 1 1 1 1 1 1 1 1 1 1 1 1 1 1 1 1 1 1 1 1 1 1 0 0 0 0 0 0 0 0 0 0 0 0 0 0 0 0 0 0 0 0 0 0 0 0 0 0 0 0 0 0 0 0 0 0 0 0 0 0 0 0 0 0 0 0 0 0 0 0 0 0 0 0 0 0 0 0 0 0 0 0 0 0 "/>
</feComponentTransfer>
<feComposite operator="in" in2="shape" in="coloredNoise1" result="noise1Clipped" />
<feFlood flood-color="rgba(0, 0, 0, 0.15)" result="color1Flood" />
<feComposite operator="in" in2="noise1Clipped" in="color1Flood" result="color1" />
<feMerge result="effect1_noise_494_1066">
<feMergeNode in="shape" />
<feMergeNode in="color1" />
</feMerge>
</filter>
<filter id="filter2_n_494_1066" x="74.9979" y="157.101" width="3.21391" height="1.078" filterUnits="userSpaceOnUse" color-interpolation-filters="sRGB">
<feFlood flood-opacity="0" result="BackgroundImageFix"/>
<feBlend mode="normal" in="SourceGraphic" in2="BackgroundImageFix" result="shape"/>
<feTurbulence type="fractalNoise" baseFrequency="2.093630313873291 2.093630313873291" stitchTiles="stitch" numOctaves="3" result="noise" seed="9343" />
<feColorMatrix in="noise" type="luminanceToAlpha" result="alphaNoise" />
<feComponentTransfer in="alphaNoise" result="coloredNoise1">
<feFuncA type="discrete" tableValues="0 0 0 0 0 0 0 0 0 0 0 0 1 1 1 1 1 1 1 1 1 1 1 1 1 1 1 1 1 1 1 1 1 1 1 1 1 1 0 0 0 0 0 0 0 0 0 0 0 0 0 0 0 0 0 0 0 0 0 0 0 0 0 0 0 0 0 0 0 0 0 0 0 0 0 0 0 0 0 0 0 0 0 0 0 0 0 0 0 0 0 0 0 0 0 0 0 0 0 0 "/>
</feComponentTransfer>
<feComposite operator="in" in2="shape" in="coloredNoise1" result="noise1Clipped" />
<feFlood flood-color="rgba(0, 0, 0, 0.15)" result="color1Flood" />
<feComposite operator="in" in2="noise1Clipped" in="color1Flood" result="color1" />
<feMerge result="effect1_noise_494_1066">
<feMergeNode in="shape" />
<feMergeNode in="color1" />
</feMerge>
</filter>
<filter id="filter3_n_494_1066" x="71.3102" y="152.558" width="3.60387" height="1.19873" filterUnits="userSpaceOnUse" color-interpolation-filters="sRGB">
<feFlood flood-opacity="0" result="BackgroundImageFix"/>
<feBlend mode="normal" in="SourceGraphic" in2="BackgroundImageFix" result="shape"/>
<feTurbulence type="fractalNoise" baseFrequency="2.093630313873291 2.093630313873291" stitchTiles="stitch" numOctaves="3" result="noise" seed="9343" />
<feColorMatrix in="noise" type="luminanceToAlpha" result="alphaNoise" />
<feComponentTransfer in="alphaNoise" result="coloredNoise1">
<feFuncA type="discrete" tableValues="0 0 0 0 0 0 0 0 0 0 0 0 1 1 1 1 1 1 1 1 1 1 1 1 1 1 1 1 1 1 1 1 1 1 1 1 1 1 0 0 0 0 0 0 0 0 0 0 0 0 0 0 0 0 0 0 0 0 0 0 0 0 0 0 0 0 0 0 0 0 0 0 0 0 0 0 0 0 0 0 0 0 0 0 0 0 0 0 0 0 0 0 0 0 0 0 0 0 0 0 "/>
</feComponentTransfer>
<feComposite operator="in" in2="shape" in="coloredNoise1" result="noise1Clipped" />
<feFlood flood-color="rgba(0, 0, 0, 0.15)" result="color1Flood" />
<feComposite operator="in" in2="noise1Clipped" in="color1Flood" result="color1" />
<feMerge result="effect1_noise_494_1066">
<feMergeNode in="shape" />
<feMergeNode in="color1" />
</feMerge>
</filter>
<filter id="filter4_n_494_1066" x="78.8201" y="152.295" width="3.60387" height="1.19873" filterUnits="userSpaceOnUse" color-interpolation-filters="sRGB">
<feFlood flood-opacity="0" result="BackgroundImageFix"/>
<feBlend mode="normal" in="SourceGraphic" in2="BackgroundImageFix" result="shape"/>
<feTurbulence type="fractalNoise" baseFrequency="2.093630313873291 2.093630313873291" stitchTiles="stitch" numOctaves="3" result="noise" seed="9343" />
<feColorMatrix in="noise" type="luminanceToAlpha" result="alphaNoise" />
<feComponentTransfer in="alphaNoise" result="coloredNoise1">
<feFuncA type="discrete" tableValues="0 0 0 0 0 0 0 0 0 0 0 0 1 1 1 1 1 1 1 1 1 1 1 1 1 1 1 1 1 1 1 1 1 1 1 1 1 1 0 0 0 0 0 0 0 0 0 0 0 0 0 0 0 0 0 0 0 0 0 0 0 0 0 0 0 0 0 0 0 0 0 0 0 0 0 0 0 0 0 0 0 0 0 0 0 0 0 0 0 0 0 0 0 0 0 0 0 0 0 0 "/>
</feComponentTransfer>
<feComposite operator="in" in2="shape" in="coloredNoise1" result="noise1Clipped" />
<feFlood flood-color="rgba(0, 0, 0, 0.15)" result="color1Flood" />
<feComposite operator="in" in2="noise1Clipped" in="color1Flood" result="color1" />
<feMerge result="effect1_noise_494_1066">
<feMergeNode in="shape" />
<feMergeNode in="color1" />
</feMerge>
</filter>
<filter id="filter5_n_494_1066" x="253.764" y="43.5914" width="29" height="29" filterUnits="userSpaceOnUse" color-interpolation-filters="sRGB">
<feFlood flood-opacity="0" result="BackgroundImageFix"/>
<feBlend mode="normal" in="SourceGraphic" in2="BackgroundImageFix" result="shape"/>
<feTurbulence type="fractalNoise" baseFrequency="2 2" stitchTiles="stitch" numOctaves="3" result="noise" seed="9343" />
<feColorMatrix in="noise" type="luminanceToAlpha" result="alphaNoise" />
<feComponentTransfer in="alphaNoise" result="coloredNoise1">
<feFuncA type="discrete" tableValues="0 0 0 0 0 0 0 0 0 0 0 0 1 1 1 1 1 1 1 1 1 1 1 1 1 1 1 1 1 1 1 1 1 1 1 1 1 1 0 0 0 0 0 0 0 0 0 0 0 0 0 0 0 0 0 0 0 0 0 0 0 0 0 0 0 0 0 0 0 0 0 0 0 0 0 0 0 0 0 0 0 0 0 0 0 0 0 0 0 0 0 0 0 0 0 0 0 0 0 0 "/>
</feComponentTransfer>
<feComposite operator="in" in2="shape" in="coloredNoise1" result="noise1Clipped" />
<feFlood flood-color="rgba(255, 255, 255, 0.5)" result="color1Flood" />
<feComposite operator="in" in2="noise1Clipped" in="color1Flood" result="color1" />
<feMerge result="effect1_noise_494_1066">
<feMergeNode in="shape" />
<feMergeNode in="color1" />
</feMerge>
</filter>
<filter id="filter6_n_494_1066" x="102.299" y="85.6383" width="23.9248" height="29.9062" filterUnits="userSpaceOnUse" color-interpolation-filters="sRGB">
<feFlood flood-opacity="0" result="BackgroundImageFix"/>
<feBlend mode="normal" in="SourceGraphic" in2="BackgroundImageFix" result="shape"/>
<feTurbulence type="fractalNoise" baseFrequency="2 2" stitchTiles="stitch" numOctaves="3" result="noise" seed="9343" />
<feColorMatrix in="noise" type="luminanceToAlpha" result="alphaNoise" />
<feComponentTransfer in="alphaNoise" result="coloredNoise1">
<feFuncA type="discrete" tableValues="0 0 0 0 0 0 0 0 0 0 0 0 1 1 1 1 1 1 1 1 1 1 1 1 1 1 1 1 1 1 1 1 1 1 1 1 1 1 0 0 0 0 0 0 0 0 0 0 0 0 0 0 0 0 0 0 0 0 0 0 0 0 0 0 0 0 0 0 0 0 0 0 0 0 0 0 0 0 0 0 0 0 0 0 0 0 0 0 0 0 0 0 0 0 0 0 0 0 0 0 "/>
</feComponentTransfer>
<feComposite operator="in" in2="shape" in="coloredNoise1" result="noise1Clipped" />
<feFlood flood-color="rgba(255, 255, 255, 0.5)" result="color1Flood" />
<feComposite operator="in" in2="noise1Clipped" in="color1Flood" result="color1" />
<feMerge result="effect1_noise_494_1066">
<feMergeNode in="shape" />
<feMergeNode in="color1" />
</feMerge>
</filter>
</defs>
</svg>
